<?xml version="1.0" standalone="no"?>
<!DOCTYPE svg PUBLIC "-//W3C//DTD SVG 1.1//EN" "http://www.w3.org/Graphics/SVG/1.1/DTD/svg11.dtd" >
<svg xmlns="http://www.w3.org/2000/svg" xmlns:xlink="http://www.w3.org/1999/xlink" version="1.1">
<metadata>
Created by FontForge 20170731 at Thu May 19 22:34:52 2022
 By Aleksey,,,
Copyright (c) 2012 by Jos Buivenga. All rights reserved.
</metadata>
<defs>
<font id="MuseoSansCyrl-300Italic" horiz-adv-x="780" >
  <font-face 
    font-family="Museo Sans Cyrl 300"
    font-weight="300"
    font-style="italic"
    font-stretch="normal"
    units-per-em="2048"
    panose-1="2 0 0 0 0 0 0 0 0 0"
    ascent="1536"
    descent="-512"
    x-height="1030"
    cap-height="1440"
    bbox="-360 -430 2226 1808"
    underline-thickness="102"
    underline-position="-307"
    slope="-11"
    unicode-range="U+0020-FB04"
  />
<missing-glyph horiz-adv-x="1044" 
d="M10 0v1434h1024v-1434h-1024zM522 809l348 522h-696zM932 195v1044l-348 -522zM113 195l348 522l-348 522v-1044zM174 102h696l-348 523z" />
    <glyph glyph-name="f_f" unicode="ff" horiz-adv-x="1325" 
d="M86 0l178 913h-129l23 117h129l8 47q18 94 58 165t84.5 109.5t100 62t95 30t78.5 6.5q37 0 75 -6l-26 -123q-8 4 -47 4q-29 0 -56 -4.5t-64 -20.5t-66 -42.5t-55.5 -76.5t-39.5 -116l-6 -35h524l8 47q18 94 58 165t84.5 109.5t99.5 62t94.5 30t77.5 6.5t78 -6l-29 -123
q-8 4 -45 4q-29 0 -56 -4.5t-63.5 -20.5t-66 -42.5t-55.5 -76.5t-39 -116l-9 -35h265l-23 -117h-262l-178 -913h-139l178 913h-525l-178 -913h-139z" />
    <glyph glyph-name="fi" unicode="fi" horiz-adv-x="1114" 
d="M86 0l178 913h-129l23 117h129l8 47q18 94 58 165t84.5 109.5t100 62t95 30t78.5 6.5q37 0 75 -6l-26 -123q-12 4 -47 4q-29 0 -56 -4.5t-64 -20.5t-66 -42.5t-55.5 -76.5t-39.5 -116l-6 -35h608l-203 -1030h-137l176 913h-467l-178 -913h-139zM934 1266l35 174h151
l-35 -174h-151z" />
    <glyph glyph-name="fl" unicode="fl" horiz-adv-x="1173" 
d="M750 182q0 35 8 74l229 1184h141l-227 -1166q-6 -34 -6 -63q0 -31 8.5 -50.5t24 -28t29.5 -11t34 -2.5q15 0 29 2l-27 -125q-16 -4 -47 -4q-27 0 -51.5 4t-52 17t-47 33t-32.5 55t-13 81zM88 0l176 905h-129l23 117h129l10 49q19 96 59.5 168.5t85 111.5t99.5 62.5
t94.5 30t77.5 6.5q41 0 78 -6l-29 -123q-16 4 -45 4t-56.5 -4.5t-64.5 -20.5t-66 -42.5t-55.5 -76t-38.5 -114.5l-10 -45h264l-22 -117h-265l-174 -905h-141z" />
    <glyph glyph-name="f_f_i" unicode="ffi" horiz-adv-x="1783" 
d="M86 0l178 913h-129l23 117h129l8 47q18 94 58 165t84.5 109.5t100 62t95 30t78.5 6.5q37 0 75 -6l-26 -123q-20 4 -47 4q-29 0 -56 -4.5t-64 -20.5t-66 -42.5t-55.5 -76.5t-39.5 -116l-6 -35h524l8 47q18 94 58 165t84.5 109.5t99.5 62t94.5 30t77.5 6.5t78 -6l-29 -123
q-12 4 -45 4q-29 0 -56 -4.5t-63.5 -20.5t-66 -42.5t-55.5 -76.5t-39 -116l-9 -35h617l-201 -1030h-141l178 913h-473l-178 -913h-139l178 913h-525l-178 -913h-139zM1604 1266l34 174h152l-37 -174h-149z" />
    <glyph glyph-name="f_f_l" unicode="ffl" horiz-adv-x="1835" 
d="M86 0l178 913h-129l23 117h129l8 47q18 94 58 165t84.5 109.5t100 62t95 30t78.5 6.5q37 0 75 -6l-26 -123q-8 4 -47 4q-29 0 -56 -4.5t-64 -20.5t-66 -42.5t-55.5 -76.5t-39.5 -116l-6 -35h524l8 47q18 94 58 165t84.5 109.5t99.5 62t94.5 30t77.5 6.5t78 -6l-29 -123
q-8 4 -45 4q-29 0 -56 -4.5t-63.5 -20.5t-66 -42.5t-55.5 -76.5t-39 -116l-9 -35h265l-23 -117h-262l-178 -913h-139l178 913h-525l-178 -913h-139zM1409 182q0 35 8 74l230 1184h141l-227 -1166q-7 -40 -7 -63q0 -31 8.5 -50.5t24.5 -28t30 -11t34 -2.5q14 0 28 2l-26 -125
q-16 -4 -47 -4q-34 0 -65 7.5t-62.5 26.5t-50.5 59t-19 97z" />
    <glyph glyph-name="f_j" unicode="fj" horiz-adv-x="1122" 
d="M86 0l178 913h-129l23 117h129l8 47q18 94 58 165t84.5 109.5t100 62t95 30t78.5 6.5q31 0 75 -6l-26 -123q-16 4 -47 4q-29 0 -56 -4.5t-64 -20.5t-66 -42.5t-55.5 -76.5t-39.5 -116l-6 -35h614l-206 -1067q-19 -98 -58 -171.5t-82 -113t-96.5 -63.5t-93 -30.5
t-80.5 -6.5q-38 0 -82 6l25 123q20 -4 45 -4q28 0 55.5 4.5t64.5 21t66.5 43.5t57 77.5t40.5 117.5l183 946h-476l-178 -913h-139zM940 1266l35 174h149l-32 -174h-152z" />
    <glyph glyph-name=".notdef" horiz-adv-x="1044" 
d="M10 0v1434h1024v-1434h-1024zM522 809l348 522h-696zM932 195v1044l-348 -522zM113 195l348 522l-348 522v-1044zM174 102h696l-348 523z" />
    <glyph glyph-name=".null" horiz-adv-x="0" 
 />
    <glyph glyph-name="nonmarkingreturn" horiz-adv-x="682" 
 />
    <glyph glyph-name="space" unicode=" " horiz-adv-x="512" 
 />
    <glyph glyph-name="exclam" unicode="!" horiz-adv-x="536" 
d="M158 377l200 1063h146l-215 -1063h-131zM70 0l32 162h162l-33 -162h-161z" />
    <glyph glyph-name="quotedbl" unicode="&#x22;" horiz-adv-x="694" 
d="M510 1116l68 344h118l-67 -344h-119zM262 1116l66 344h121l-68 -344h-119z" />
    <glyph glyph-name="numbersign" unicode="#" horiz-adv-x="1484" 
d="M197 0l147 399h-287l41 115h289l150 401h-287l41 115h287l151 410h127l-151 -410h354l151 410h129l-151 -410h285l-43 -115h-285l-148 -401h283l-41 -115h-285l-147 -399h-129l147 399h-352l-149 -399h-127zM514 514h354l150 401h-354z" />
    <glyph glyph-name="dollar" unicode="$" horiz-adv-x="1163" 
d="M49 160l92 100q60 -65 148.5 -107t202.5 -42q142 0 245 75t103 205q0 52 -20.5 94.5t-54.5 73.5t-78.5 58t-93.5 51.5t-98 50t-93.5 57.5t-78.5 70t-54.5 92t-20.5 119q0 89 37.5 163.5t100.5 125t143 80.5t169 36l39 191h115l-37 -193q195 -21 313 -139l-84 -107
q-51 53 -135 84t-166 31q-62 0 -123.5 -17.5t-113 -50t-83.5 -85t-32 -115.5q0 -61 33 -109t85 -81.5t115.5 -64.5t127 -66.5t115.5 -79t85 -111t33 -152.5q0 -176 -129 -292.5t-330 -127.5l-37 -188h-114l37 193q-100 10 -198 55t-165 123z" />
    <glyph glyph-name="percent" unicode="%" horiz-adv-x="1509" 
d="M479 895q-117 0 -186.5 69.5t-69.5 184.5q0 121 102 218t230 97q114 0 184 -70.5t70 -181.5q0 -124 -101 -220.5t-229 -96.5zM20 0l1362 1440h158l-1362 -1440h-158zM485 1010q80 0 141.5 61t61.5 143q0 59 -38.5 97.5t-100.5 38.5q-78 0 -140.5 -62t-62.5 -143
q0 -58 38.5 -96.5t100.5 -38.5zM743 229q0 119 102.5 217.5t229.5 98.5q115 0 185.5 -70.5t70.5 -181.5q0 -124 -102 -221t-230 -97q-117 0 -186.5 69t-69.5 185zM866 225q0 -59 39 -97t103 -38q79 0 139.5 60.5t60.5 142.5q0 59 -38.5 98t-100.5 39q-78 0 -140.5 -62
t-62.5 -143z" />
    <glyph glyph-name="ampersand" unicode="&#x26;" horiz-adv-x="1359" 
d="M78 342q0 145 97.5 270t250.5 164v4q-6 2 -16 6.5t-36 24.5t-46 45.5t-36 73t-16 104.5q0 188 141 309t349 121q78 0 176 -24l-57 -115q-61 14 -119 14q-91 0 -168.5 -36.5t-126.5 -107.5t-49 -163q0 -201 266 -201h303l41 203h139l-38 -203h194l-24 -126h-195l-41 -211
q-53 -264 -195.5 -391.5t-359.5 -127.5q-204 0 -319 100.5t-115 266.5zM227 346q0 -105 75.5 -171t211.5 -66q160 0 267 94.5t145 294.5l41 207h-303q-117 0 -214 -38.5t-160 -122t-63 -198.5z" />
    <glyph glyph-name="quotesingle" unicode="'" horiz-adv-x="446" 
d="M262 1116l66 344h123l-68 -344h-121z" />
    <glyph glyph-name="parenleft" unicode="(" horiz-adv-x="569" 
d="M201 -195q-99 265 -99 543q0 640 416 1147h135q-424 -535 -424 -1149q0 -276 97 -541h-125z" />
    <glyph glyph-name="parenright" unicode=")" horiz-adv-x="571" 
d="M-66 -195q424 539 424 1149q0 291 -96 541h125q100 -259 100 -545q0 -637 -417 -1145h-136z" />
    <glyph glyph-name="asterisk" unicode="*" horiz-adv-x="1013" 
d="M344 690l-100 80l243 252l-278 86l63 125l275 -109l49 316h139l-76 -316l322 107l16 -129l-325 -90l143 -246l-115 -78l-129 262z" />
    <glyph glyph-name="plus" unicode="+" horiz-adv-x="1163" 
d="M401 0l103 522h-473l22 119h471l105 522h125l-103 -522h471l-22 -119h-471l-103 -522h-125z" />
    <glyph glyph-name="comma" unicode="," horiz-adv-x="538" 
d="M-61 -199l190 367h160l-226 -367h-124z" />
    <glyph glyph-name="hyphen" unicode="-" horiz-adv-x="884" 
d="M135 518l23 127h581l-22 -127h-582z" />
    <glyph glyph-name="period" unicode="." horiz-adv-x="471" 
d="M37 0l33 170h168l-33 -170h-168z" />
    <glyph glyph-name="slash" unicode="/" horiz-adv-x="862" 
d="M-33 -86l832 1606h139l-832 -1606h-139z" />
    <glyph glyph-name="zero" unicode="0" horiz-adv-x="1269" 
d="M129 440q0 83 10 173.5t33.5 191t58.5 193.5t88 178.5t118 149t153.5 101t189.5 37.5q404 0 404 -467q0 -83 -10 -173t-33.5 -190.5t-58 -193.5t-87.5 -178.5t-118 -148.5t-154 -100.5t-191 -37.5q-403 0 -403 465zM274 440q0 -331 263 -331q78 0 145.5 33t117.5 88
t90.5 129.5t67 155.5t44.5 168t26 164.5t8 147.5q0 160 -61 247t-201 87q-102 0 -187.5 -59t-142 -152.5t-96 -212.5t-57 -237t-17.5 -228z" />
    <glyph glyph-name="one" unicode="1" horiz-adv-x="956" 
d="M6 0l23 127h321l205 1042l18 80h-4q-22 -29 -90 -86l-178 -149l-78 102l393 324h132l-256 -1313h315l-25 -127h-776z" />
    <glyph glyph-name="two" unicode="2" horiz-adv-x="1153" 
d="M16 0q1 58 13 111t35.5 100t49 86.5t66 79.5t74.5 70.5t86 66.5t88.5 60t93.5 59q14 9 43 26l69 42t64.5 40.5t63 43t54 43t50 46.5t38.5 48t31.5 53.5t18 56t7.5 62.5q0 110 -71.5 172.5t-184.5 62.5q-103 0 -198.5 -53t-162.5 -141l-102 82q82 107 206.5 177t270.5 70
q171 0 280 -96.5t109 -259.5q0 -57 -15 -110.5t-39.5 -96.5t-63.5 -86.5t-77.5 -77t-92.5 -71.5t-98 -65.5t-103 -63.5q-5 -3 -8.5 -5t-8 -5t-8.5 -5q-60 -36 -94.5 -58t-84.5 -56.5t-80.5 -63t-63 -64t-51 -74t-27.5 -79.5h749l-27 -127h-899z" />
    <glyph glyph-name="three" unicode="3" horiz-adv-x="1150" 
d="M12 172l97 98q140 -157 352 -157q73 0 143.5 28.5t125.5 76.5t88.5 118t33.5 147q0 119 -86 182.5t-221 63.5h-111l-18 84l440 422q20 20 43 40t36 30l13 10v4q-43 -6 -119 -6h-530l25 127h841l-18 -94l-526 -500q47 -2 94.5 -13t99.5 -37.5t91.5 -65.5t65 -102.5
t25.5 -142.5q0 -133 -72.5 -250.5t-198 -188.5t-269.5 -71q-131 0 -249 50.5t-196 146.5z" />
    <glyph glyph-name="four" unicode="4" horiz-adv-x="1228" 
d="M39 399l16 93l879 948h166l-178 -918h204l-24 -123h-205l-78 -399h-141l78 399h-717zM244 522h536l119 604q4 27 12.5 61.5t14.5 55.5l6 21h-4q-47 -60 -92 -111l-592 -627v-4z" />
    <glyph glyph-name="five" unicode="5" horiz-adv-x="1146" 
d="M31 178l102 92q114 -157 311 -157q110 0 208 53t157 144.5t59 197.5q0 128 -85.5 204t-223.5 76q-70 0 -139 -20t-103 -40l-34 -19l-88 32l213 699h700l-25 -127h-573l-113 -365l-28 -82h4q10 6 28.5 14.5t76.5 23t118 14.5q186 0 303 -113t117 -293q0 -144 -78.5 -268
t-211.5 -196.5t-286 -72.5q-124 0 -233.5 52.5t-175.5 150.5z" />
    <glyph glyph-name="six" unicode="6" horiz-adv-x="1210" 
d="M119 494q0 88 23 192t65.5 213t111 210t152.5 180.5t196 127t236 47.5q156 0 277 -59l-72 -119q-34 18 -90.5 30.5t-112.5 12.5q-108 0 -207 -50t-172.5 -133.5t-127.5 -183t-85 -208.5h4q65 77 167.5 122.5t207.5 45.5q179 0 283 -103.5t104 -277.5q0 -102 -37.5 -202.5
t-103 -181.5t-166.5 -131.5t-217 -50.5q-203 0 -319.5 142t-116.5 377zM264 467q0 -90 32 -170t99 -134t156 -54q161 0 273 125.5t112 304.5q0 119 -72 187.5t-200 68.5q-62 0 -131.5 -24t-129.5 -65.5t-99.5 -105t-39.5 -133.5z" />
    <glyph glyph-name="seven" unicode="7" horiz-adv-x="1077" 
d="M74 0l813 1180q24 35 50.5 68t40.5 49l15 16v4q-36 -4 -110 -4h-662l25 127h936l-19 -99l-930 -1341h-159z" />
    <glyph glyph-name="eight" unicode="8" horiz-adv-x="1222" 
d="M80 356q0 75 31.5 148.5t73 123t93.5 94t81.5 63t48.5 28.5q-136 103 -136 244q0 76 34.5 148.5t96 130t155.5 93t204 35.5q189 0 293 -85.5t104 -235.5q0 -63 -26 -131.5t-57 -116.5t-76 -99t-64.5 -69t-40.5 -37q162 -107 162 -258q0 -125 -74.5 -231t-199 -166
t-269.5 -60q-192 0 -313 101.5t-121 279.5zM782 754q230 195 230 381q0 92 -68.5 145t-185.5 53q-147 0 -242.5 -81t-95.5 -193q0 -39 16.5 -73t38.5 -57.5t64 -50t73 -42t86.5 -41.5t83.5 -41zM229 360q0 -116 82.5 -185t204.5 -69q97 0 185.5 38.5t147 114.5t58.5 171
q0 38 -17.5 72.5t-43.5 59t-69 51t-79.5 44t-91 44t-88.5 44.5q-28 -16 -54 -32.5t-72.5 -54.5t-79 -78t-58 -99.5t-25.5 -120.5z" />
    <glyph glyph-name="nine" unicode="9" horiz-adv-x="1210" 
d="M76 35l71 119q95 -45 203 -45q87 0 169 33t146.5 89t119.5 130.5t93.5 156t63.5 168.5h-4q-61 -74 -164 -121t-211 -47q-179 0 -283 103t-104 276q0 103 37.5 203.5t104 182t167.5 131.5t217 50q203 0 319 -141.5t116 -376.5q0 -75 -16 -162.5t-50 -181t-81 -183.5
t-113.5 -170.5t-143.5 -141.5t-175.5 -96.5t-205.5 -35.5q-162 0 -276 60zM588 645q62 0 132 24t131 65.5t100.5 105t39.5 133.5q0 90 -31.5 169.5t-98 133t-156.5 53.5q-162 0 -274 -124t-112 -304q0 -119 71.5 -187.5t197.5 -68.5z" />
    <glyph glyph-name="colon" unicode=":" horiz-adv-x="468" 
d="M201 860l32 170h166l-30 -170h-168zM33 0l33 170h167l-32 -170h-168z" />
    <glyph glyph-name="semicolon" unicode=";" horiz-adv-x="591" 
d="M291 860l33 170h163l-32 -170h-164zM-31 -199l189 367h159l-223 -367h-125z" />
    <glyph glyph-name="less" unicode="&#x3c;" horiz-adv-x="1163" 
d="M70 530v103l923 414v-138l-751 -325v-4l751 -326v-137z" />
    <glyph glyph-name="equal" unicode="=" horiz-adv-x="1163" 
d="M96 700v119h955v-119h-955zM96 344v119h955v-119h-955z" />
    <glyph glyph-name="greater" unicode="&#x3e;" horiz-adv-x="1163" 
d="M150 117v137l753 326v4l-753 325v138l925 -414v-103z" />
    <glyph glyph-name="question" unicode="?" horiz-adv-x="921" 
d="M274 377l19 92q14 69 48.5 129.5t78 104.5t93 84.5t95.5 78.5t84 77.5t61 90t23 107.5q0 85 -60.5 138.5t-164.5 53.5q-127 0 -264 -86l-60 111q63 45 157 76.5t181 31.5q163 0 262 -85.5t99 -225.5q0 -74 -24.5 -138.5t-64 -111.5t-88.5 -89t-100 -81.5t-95.5 -78
t-78.5 -88t-45 -103.5l-16 -88h-140zM193 0l32 162h162l-33 -162h-161z" />
    <glyph glyph-name="at" unicode="@" horiz-adv-x="1591" 
d="M90 358q0 174 74.5 339t195 285.5t280 193.5t323.5 73q121 0 210 -25t139 -71t73.5 -102.5t23.5 -126.5q0 -38 -6 -82l-123 -627h145l-22 -115h-531q-164 0 -262 95t-98 241q0 85 39 167.5t103 145t151.5 100.5t179.5 38h287q4 20 4 39q0 89 -77 145.5t-232 56.5
q-143 0 -278.5 -64t-235 -169t-160 -245.5t-60.5 -287.5q0 -217 136.5 -356t363.5 -139l-24 -121q-176 0 -317.5 79t-221.5 219t-80 314zM657 438q0 -97 63.5 -160t166.5 -63h254l110 563h-252q-135 0 -238.5 -103t-103.5 -237z" />
    <glyph glyph-name="A" unicode="A" horiz-adv-x="1298" 
d="M-63 0l802 1440h156l248 -1440h-144l-75 459h-580l-254 -459h-153zM408 582h495l-86 522l-22 188h-4q-54 -120 -91 -188z" />
    <glyph glyph-name="B" unicode="B" horiz-adv-x="1261" 
d="M88 0l281 1440h462q100 0 173 -27q87 -32 134.5 -103.5t47.5 -172.5q0 -131 -69 -231t-181 -146v-4q81 -28 129.5 -103.5t48.5 -179.5q0 -153 -78.5 -267t-206.5 -167q-91 -39 -202 -39h-539zM389 815h348q124 0 213.5 88.5t89.5 220.5q0 88 -53 138.5t-153 50.5h-349z
M254 127h369q84 0 149 29q89 41 142 124t53 193q0 101 -63.5 160t-172.5 59h-366z" />
    <glyph glyph-name="C" unicode="C" horiz-adv-x="1472" 
d="M125 594q0 175 71.5 336.5t189.5 278t274.5 186t320.5 69.5q144 0 282 -45.5t224 -140.5l-90 -100q-74 72 -183.5 112.5t-230.5 40.5q-140 0 -271.5 -59t-227.5 -158t-154 -234.5t-58 -281.5q0 -215 130 -352t348 -137q133 0 266 51t237 139l70 -111q-102 -93 -263 -153
t-315 -60q-190 0 -331.5 80t-215 220t-73.5 319z" />
    <glyph glyph-name="D" unicode="D" horiz-adv-x="1511" 
d="M88 0l281 1440h436q293 0 460 -146.5t167 -412.5q0 -180 -63.5 -341.5t-174.5 -280.5t-271.5 -189t-344.5 -70h-490zM254 127h307q206 0 371.5 98t258.5 268t93 379q0 211 -130.5 326t-360.5 115h-306z" />
    <glyph glyph-name="E" unicode="E" horiz-adv-x="1140" 
d="M88 0l281 1440h811l-27 -127h-668l-102 -525h547l-25 -126h-545l-106 -535h704l-22 -127h-848z" />
    <glyph glyph-name="F" unicode="F" horiz-adv-x="1042" 
d="M88 0l281 1440h757l-24 -127h-617l-104 -541h528l-24 -127h-529l-127 -645h-141z" />
    <glyph glyph-name="G" unicode="G" horiz-adv-x="1552" 
d="M121 578q0 176 71 340t188.5 283.5t276.5 191t328 71.5q141 0 273.5 -40.5t226.5 -125.5l-90 -100q-68 61 -181 97t-227 36q-192 0 -357.5 -103t-262.5 -275.5t-97 -368.5q0 -214 128 -344.5t339 -130.5q134 0 263.5 60.5t234.5 162.5l45 229h-244l23 127h379l-133 -688
h-129l20 111l14 61h-4q-8 -9 -30.5 -27.5t-70 -49t-101.5 -56.5t-130.5 -45t-152.5 -19q-264 0 -432 168t-168 435z" />
    <glyph glyph-name="H" unicode="H" horiz-adv-x="1529" 
d="M88 0l281 1440h143l-129 -656h836l127 656h141l-281 -1440h-143l129 657h-834l-129 -657h-141z" />
    <glyph glyph-name="I" unicode="I" horiz-adv-x="552" 
d="M88 0l281 1440h143l-283 -1440h-141z" />
    <glyph glyph-name="J" unicode="J" horiz-adv-x="1058" 
d="M10 301q0 34 13 107l8 53h143l-10 -51q-8 -62 -8 -88q0 -213 211 -213q51 0 98.5 15.5t92.5 48t79 92t49 138.5l174 910h-348l25 127h491l-205 -1051q-21 -110 -69 -192.5t-111.5 -129.5t-133 -69.5t-144.5 -22.5q-72 0 -134.5 19t-112.5 57t-79 102t-29 148z" />
    <glyph glyph-name="K" unicode="K" horiz-adv-x="1208" 
d="M88 0l281 1440h143l-123 -625h234l518 625h168l-572 -686v-4l314 -750h-154l-281 688h-251l-136 -688h-141z" />
    <glyph glyph-name="L" unicode="L" horiz-adv-x="1040" 
d="M88 0l281 1440h143l-258 -1313h668l-27 -127h-807z" />
    <glyph glyph-name="M" unicode="M" horiz-adv-x="1728" 
d="M33 0l397 1440h141l213 -846l35 -176h4q58 100 105 176l542 846h152l-166 -1440h-141l119 1008l34 200h-4q-67 -126 -114 -200l-484 -740h-133l-194 740q-8 32 -17.5 83t-15.5 86l-6 35h-4q-21 -126 -41 -204l-279 -1008h-143z" />
    <glyph glyph-name="N" unicode="N" horiz-adv-x="1523" 
d="M88 0l281 1440h127l534 -1037q16 -32 36 -80.5t32 -80.5l12 -33h4q9 118 25 194l200 1037h144l-283 -1440h-125l-534 1036q-16 32 -36 81t-32 81l-12 33h-4q-11 -119 -25 -195l-203 -1036h-141z" />
    <glyph glyph-name="O" unicode="O" horiz-adv-x="1689" 
d="M123 598q0 171 74 332.5t193.5 277.5t277 186t319.5 70q279 0 453 -170t174 -436q0 -174 -74.5 -338.5t-194.5 -283t-277.5 -190t-317.5 -71.5q-279 0 -453 175t-174 448zM270 602q0 -217 133.5 -355t346.5 -138q132 0 262 59.5t230 158.5t162 237.5t62 287.5
q0 211 -133.5 345t-345.5 134q-134 0 -264.5 -58t-230 -155t-161 -233.5t-61.5 -282.5z" />
    <glyph glyph-name="P" unicode="P" horiz-adv-x="1226" 
d="M88 0l281 1440h471q142 0 227 -49q80 -43 125 -122.5t45 -181.5q0 -165 -86 -293.5t-223 -187.5q-100 -41 -209 -41h-379l-111 -565h-141zM365 692h340q94 0 167 33q98 43 158 136.5t60 219.5q0 110 -70.5 171t-196.5 61h-338z" />
    <glyph glyph-name="Q" unicode="Q" horiz-adv-x="1689" 
d="M123 598q0 171 74 332.5t193.5 277.5t277 186t319.5 70q279 0 453 -170t174 -436q0 -182 -76.5 -345t-208.5 -288l137 -174l-94 -86l-139 180q-223 -170 -483 -170q-279 0 -453 175t-174 448zM270 602q0 -217 133.5 -355t346.5 -138q215 0 401 141l-143 182l94 84
l141 -186q103 105 163 240.5t60 281.5q0 211 -133.5 345t-345.5 134q-134 0 -264.5 -58t-230 -155t-161 -233.5t-61.5 -282.5z" />
    <glyph glyph-name="R" unicode="R" horiz-adv-x="1257" 
d="M90 0l279 1440h473q125 0 202 -39q79 -39 123.5 -115t44.5 -176q0 -170 -101 -301t-261 -168v-4q8 -18 22 -59l205 -578h-151l-209 606h-369l-117 -606h-141zM373 733h336q150 0 254 101t104 262q0 103 -64 160t-178 57h-340z" />
    <glyph glyph-name="S" unicode="S" horiz-adv-x="1099" 
d="M16 160l95 100q1 -1 11 -10.5l20 -19t29.5 -24t39 -26.5t48 -25.5t58 -22.5t66.5 -15t76 -6q91 0 169.5 31t129.5 96.5t51 152.5q0 66 -33 117.5t-85 86.5t-115.5 66.5t-127 66t-115.5 76t-85 106.5t-33 147q0 125 72.5 219.5t184.5 141t241 46.5q231 0 385 -143
l-84 -107q-1 0 -11.5 9t-23 18t-32.5 22t-44.5 24t-53 21t-64 15.5t-72.5 5.5q-63 0 -124.5 -17.5t-113 -50t-83.5 -85t-32 -115.5q0 -61 33 -109t85 -81.5t115.5 -64.5t127 -66.5t115.5 -79t85 -111t33 -152.5q0 -184 -140 -303t-353 -119q-74 0 -145 17t-118 39t-90 52
t-60.5 46t-31.5 31z" />
    <glyph glyph-name="T" unicode="T" horiz-adv-x="1234" 
d="M426 0l256 1313h-516l24 127h1174l-23 -127h-518l-254 -1313h-143z" />
    <glyph glyph-name="U" unicode="U" horiz-adv-x="1480" 
d="M160 393q0 55 12 117l182 930h142l-181 -934q-10 -41 -10 -96q0 -143 89.5 -222t252.5 -79q186 0 317 106t169 295l182 930h141l-186 -948q-47 -239 -216 -378t-411 -139q-220 0 -351.5 111t-131.5 307z" />
    <glyph glyph-name="V" unicode="V" horiz-adv-x="1298" 
d="M446 0l-249 1440h147l182 -1094q5 -33 10.5 -79t7.5 -75l3 -30h4q53 110 92 184l610 1094h160l-811 -1440h-156z" />
    <glyph glyph-name="W" unicode="W" horiz-adv-x="1892" 
d="M324 0l-99 1440h146l63 -1118l2 -154h4q33 78 68 154l536 1118h142l74 -1118l2 -154h4q30 82 61 154l498 1118h155l-653 -1440h-172l-70 1014q-4 57 -5 135.5t1 79.5h-4q-51 -121 -94 -213l-491 -1016h-168z" />
    <glyph glyph-name="X" unicode="X" horiz-adv-x="1169" 
d="M-78 0l604 760l-284 680h151l172 -422l64 -164h4q51 76 117 162l337 424h173l-562 -697l320 -743h-152l-207 492l-61 157h-4q-43 -67 -113 -153l-395 -496h-164z" />
    <glyph glyph-name="Y" unicode="Y" horiz-adv-x="1185" 
d="M393 0l121 618l-324 822h154l201 -522l57 -173h4q64 92 121 170l403 525h173l-648 -826l-120 -614h-142z" />
    <glyph glyph-name="Z" unicode="Z" horiz-adv-x="1177" 
d="M-47 0l20 100l940 1082q30 35 62 67.5t49 48.5l16 15v4q-32 -4 -102 -4h-692l26 127h979l-18 -101l-944 -1081q-30 -35 -62.5 -67.5t-49.5 -48.5l-17 -15v-4q34 4 104 4h737l-24 -127h-1024z" />
    <glyph glyph-name="bracketleft" unicode="[" horiz-adv-x="577" 
d="M35 -195l327 1690h279l-23 -115h-149l-283 -1460h150l-23 -115h-278z" />
    <glyph glyph-name="backslash" unicode="\" horiz-adv-x="811" 
d="M467 -86l-207 1606h125l207 -1606h-125z" />
    <glyph glyph-name="bracketright" unicode="]" horiz-adv-x="577" 
d="M-23 -80h150l283 1460h-148l23 115h276l-328 -1690h-276z" />
    <glyph glyph-name="asciicircum" unicode="^" horiz-adv-x="1241" 
d="M162 512l405 928h97l407 -928h-135l-320 758l-319 -758h-135z" />
    <glyph glyph-name="underscore" unicode="_" horiz-adv-x="1196" 
d="M-35 0h1057l-23 -119h-1056z" />
    <glyph glyph-name="grave" unicode="`" horiz-adv-x="1032" 
d="M410 1540l-129 244h151l96 -244h-118z" />
    <glyph glyph-name="a" unicode="a" horiz-adv-x="1056" 
d="M8 236q0 80 31 144.5t86 107t121.5 72.5t148 45.5t154.5 22.5t151 7h68q10 55 10 110q0 88 -48.5 136.5t-160.5 48.5q-78 0 -161 -27t-150 -72l-43 117q64 44 165 75.5t202 31.5q159 0 249.5 -72t90.5 -219q0 -48 -13 -115l-125 -649h-135l25 119l22 88h-4
q-19 -36 -52 -73.5t-80 -74.5t-111.5 -60.5t-133.5 -23.5q-129 0 -218 71t-89 190zM150 254q0 -69 50 -115.5t148 -46.5q90 0 175 61t140 149t76 181l9 41h-60q-45 0 -84.5 -1.5t-96.5 -8t-103.5 -17.5t-95.5 -31.5t-82 -48t-54.5 -69.5t-21.5 -94z" />
    <glyph glyph-name="b" unicode="b" horiz-adv-x="1204" 
d="M49 0l281 1440h139l-96 -498q-4 -22 -11.5 -45.5t-12.5 -36.5l-5 -12h4q58 93 159 150t214 57q181 0 280 -110.5t99 -303.5q0 -143 -47 -269t-125 -212t-179.5 -135.5t-209.5 -49.5q-116 0 -202.5 55t-119.5 156h-4q-2 -43 -10 -92l-19 -94h-135zM272 391
q0 -128 65 -209.5t193 -81.5q76 0 151 37t136.5 103t100 168.5t38.5 222.5q0 138 -68.5 217.5t-189.5 79.5q-93 0 -174 -47t-135.5 -123t-85.5 -172t-31 -195z" />
    <glyph glyph-name="c" unicode="c" horiz-adv-x="1112" 
d="M70 414q0 136 53.5 257t141.5 204t202.5 131.5t234.5 48.5q108 0 209 -37.5t164 -110.5l-84 -94q-47 53 -124.5 85t-157.5 32q-92 0 -182 -38.5t-159.5 -104t-112 -161t-42.5 -202.5q0 -145 93.5 -233.5t242.5 -88.5q96 0 190 38t168 104l45 -115q-75 -69 -186 -111.5
t-223 -42.5q-211 0 -342 121t-131 318z" />
    <glyph glyph-name="d" unicode="d" horiz-adv-x="1208" 
d="M72 389q0 143 47 269t125.5 212t181 135.5t211.5 49.5q112 0 198 -53t119 -152h4q1 43 9 86l98 504h139l-278 -1440h-135l20 109q4 20 9.5 41t9.5 32l4 11h-5q-56 -93 -154.5 -155.5t-219.5 -62.5q-184 0 -283.5 110.5t-99.5 303.5zM215 397q0 -138 69.5 -217.5
t192.5 -79.5q92 0 173 48.5t134.5 125.5t84 172.5t30.5 190.5q0 128 -65 209.5t-193 81.5q-76 0 -151 -37t-136.5 -103t-100 -168.5t-38.5 -222.5z" />
    <glyph glyph-name="e" unicode="e" horiz-adv-x="1130" 
d="M72 410q0 125 45.5 242.5t123.5 206.5t190.5 142.5t238.5 53.5q185 0 279.5 -101.5t94.5 -271.5q0 -79 -28 -172h-791q-10 -55 -10 -92q0 -136 87 -226t243 -90q178 0 338 123l43 -114q-66 -55 -172 -95.5t-213 -40.5q-211 0 -340 120t-129 315zM252 621h645q6 30 6 73
q0 120 -64.5 183t-168.5 63q-134 0 -249 -84t-169 -235z" />
    <glyph glyph-name="f" unicode="f" horiz-adv-x="665" 
d="M88 0l176 905h-129l23 117h129l10 49q19 96 59.5 168.5t85 111.5t99.5 62.5t94.5 30t77.5 6.5q41 0 78 -6l-29 -123q-16 4 -45 4t-56.5 -4.5t-64.5 -20.5t-66 -42.5t-55.5 -76t-38.5 -114.5l-10 -45h264l-22 -117h-265l-174 -905h-141z" />
    <glyph glyph-name="g" unicode="g" horiz-adv-x="1189" 
d="M78 -236q46 -29 121 -48t149 -19q103 0 188 32t148.5 106t85.5 183l21 95q3 17 8.5 38t9.5 33l4 13h-4q-126 -191 -342 -191q-182 0 -286.5 111.5t-104.5 298.5q0 88 22 177.5t67.5 172.5t108.5 147.5t152 103t190 38.5q115 0 206 -44t122 -139h4q-2 23 2 46l23 112h135
l-199 -1018q-18 -95 -58.5 -171.5t-93.5 -126t-120 -83t-135.5 -47.5t-143.5 -14q-197 0 -348 86zM219 424q0 -137 71 -215t199 -78q78 0 145.5 34.5t113.5 90.5t78.5 128t47.5 146.5t15 147.5q0 252 -262 252q-76 0 -142.5 -29t-114.5 -79t-82.5 -114.5t-51.5 -137
t-17 -146.5z" />
    <glyph glyph-name="h" unicode="h" horiz-adv-x="1214" 
d="M49 0l281 1440h139l-107 -557l-26 -92h4q22 42 63 85.5t98 85t133.5 67.5t156.5 26q142 0 218 -68t76 -199q0 -57 -16 -135l-125 -653h-139l119 616q16 94 16 138q0 85 -47.5 127.5t-130.5 42.5q-168 0 -306.5 -132.5t-174.5 -314.5l-93 -477h-139z" />
    <glyph glyph-name="i" unicode="i" horiz-adv-x="471" 
d="M291 1266l35 174h149l-35 -174h-149zM49 0l201 1030h141l-203 -1030h-139z" />
    <glyph glyph-name="j" unicode="j" horiz-adv-x="473" 
d="M289 1266l33 174h151l-35 -174h-149zM43 -33l207 1063h139l-207 -1067q-19 -98 -58.5 -171.5t-82.5 -113t-96.5 -63.5t-92.5 -30.5t-79 -6.5q-43 0 -84 6l24 123q16 -4 45 -4q28 0 55.5 4.5t65 21t67.5 43.5t57 77.5t40 117.5z" />
    <glyph glyph-name="k" unicode="k" horiz-adv-x="1013" 
d="M49 0l283 1440h139l-158 -803h158l387 393h176l-448 -452v-5l278 -573h-151l-246 514h-176l-103 -514h-139z" />
    <glyph glyph-name="l" unicode="l" horiz-adv-x="514" 
d="M90 182q0 35 8 74l230 1184h141l-227 -1166q-6 -35 -6 -63q0 -31 8.5 -50.5t24 -28t29.5 -11t34 -2.5q14 0 28 2l-26 -125q-16 -4 -47 -4q-34 0 -65 7.5t-62.5 26.5t-50.5 59t-19 97z" />
    <glyph glyph-name="m" unicode="m" horiz-adv-x="1873" 
d="M49 0l201 1030h137l-31 -151q-4 -20 -10 -43.5t-10 -36.5l-4 -13h4q59 112 178 190.5t246 78.5q139 0 202 -65.5t68 -192.5h4q64 111 180.5 184.5t243.5 73.5q139 0 213 -69t74 -200q0 -57 -16 -139l-125 -647h-140l119 618q16 78 16 132q0 84 -41 130t-137 46
q-79 0 -153.5 -39.5t-129.5 -102.5t-93.5 -140.5t-53.5 -156.5l-94 -487h-139l119 618q16 78 16 136q0 82 -39 127t-133 45q-103 0 -198 -65.5t-156.5 -165.5t-83.5 -210l-95 -485h-139z" />
    <glyph glyph-name="n" unicode="n" horiz-adv-x="1214" 
d="M49 0l201 1030h137l-27 -147q-4 -21 -11 -45t-12 -38l-5 -14h4q21 42 62 86.5t98.5 86.5t135.5 69t159 27q142 0 218 -68t76 -199q0 -57 -16 -135l-125 -653h-139l119 616q16 94 16 138q0 85 -47.5 127.5t-130.5 42.5q-84 0 -165.5 -36.5t-144.5 -97.5t-108.5 -142.5
t-62.5 -170.5l-93 -477h-139z" />
    <glyph glyph-name="o" unicode="o" horiz-adv-x="1277" 
d="M70 426q0 128 53.5 246t141.5 201t203 132.5t234 49.5q210 0 341 -124.5t131 -320.5q0 -130 -54.5 -249t-143 -202.5t-203 -133.5t-232.5 -50q-209 0 -340 126t-131 325zM213 430q0 -145 92 -236.5t238 -91.5q121 0 232.5 65.5t183 182.5t71.5 254q0 143 -92 234.5
t-238 91.5q-122 0 -234 -66t-182.5 -182.5t-70.5 -251.5z" />
    <glyph glyph-name="p" unicode="p" horiz-adv-x="1206" 
d="M205 84l-96 -494h-140l281 1440h131l-19 -100l-22 -88h4q57 93 155 153t222 60q181 0 281 -110.5t100 -303.5q0 -143 -47.5 -269t-125 -212t-178 -135.5t-206.5 -49.5q-116 0 -203 53t-121 154h-4q-2 -45 -12 -98zM274 397q0 -129 66 -213t192 -84q76 0 151 37t136.5 103
t100 168.5t38.5 222.5q0 138 -69.5 217.5t-190.5 79.5q-91 0 -172 -47t-135 -123t-85.5 -171t-31.5 -190z" />
    <glyph glyph-name="q" unicode="q" horiz-adv-x="1206" 
d="M70 387q0 144 47.5 270.5t126 212.5t181.5 135.5t212 49.5q117 0 201 -53.5t116 -153.5h4q3 33 11 78l20 104h133l-278 -1440h-139l96 496q4 24 10.5 48.5t10.5 37.5l5 12h-4q-53 -88 -149 -148.5t-221 -60.5q-182 0 -282.5 110.5t-100.5 301.5zM213 397
q0 -138 70 -217.5t192 -79.5q92 0 173.5 48.5t135 125.5t84.5 172.5t31 190.5q0 128 -65 209.5t-193 81.5q-76 0 -151 -37t-137.5 -103t-101 -168.5t-38.5 -222.5z" />
    <glyph glyph-name="r" unicode="r" horiz-adv-x="731" 
d="M49 0l201 1030h135l-35 -182l-24 -90h4q57 120 157 201t220 81q27 0 61 -6l-29 -137q-32 4 -49 4q-64 0 -125 -32.5t-108.5 -85t-87.5 -120.5t-66 -138.5t-39 -139.5l-76 -385h-139z" />
    <glyph glyph-name="s" unicode="s" horiz-adv-x="897" 
d="M-8 123l78 98q47 -55 125 -88t163 -33q102 0 175 46t73 130q0 45 -25.5 79t-66.5 57.5t-90 44.5t-98.5 46t-90.5 56.5t-66.5 81.5t-25.5 115q0 94 56 163.5t143 102.5t190 33q91 0 173.5 -29.5t138.5 -85.5l-74 -98q-88 88 -242 88q-63 0 -117 -16.5t-92 -57t-38 -98.5
q0 -45 25.5 -79t66 -57t90 -44t99 -46t90 -56t66 -81t25.5 -114q0 -135 -109.5 -220.5t-275.5 -85.5q-103 0 -201.5 38t-164.5 110z" />
    <glyph glyph-name="t" unicode="t" horiz-adv-x="653" 
d="M143 283q0 42 13 112l98 510h-135l22 117h138l57 293h137l-59 -293h260l-23 -117h-258l-98 -512q-10 -44 -10 -92q0 -47 11.5 -81.5t28.5 -53.5t41.5 -30.5t46.5 -15t48 -3.5q23 0 59 4l-24 -125q-20 -4 -54 -4q-57 0 -104 11.5t-94 41t-74 90t-27 148.5z" />
    <glyph glyph-name="u" unicode="u" horiz-adv-x="1204" 
d="M96 242q0 41 15 137l127 651h139l-119 -612q-16 -85 -16 -142q0 -80 41.5 -125t140.5 -45q111 0 212.5 66.5t166.5 169t86 215.5l92 473h139l-198 -1030h-138l29 147q4 21 10.5 45t11.5 38l5 14h-4q-24 -42 -63 -85.5t-95 -86.5t-133 -70t-160 -27q-61 0 -111.5 14.5
t-91 45t-63.5 83.5t-23 124z" />
    <glyph glyph-name="v" unicode="v" horiz-adv-x="1042" 
d="M326 0l-197 1030h141l136 -760q4 -20 7 -51t4 -53l1 -21h4q32 72 61 125l430 760h152l-592 -1030h-147z" />
    <glyph glyph-name="w" unicode="w" horiz-adv-x="1685" 
d="M285 0l-148 1030h142l98 -772q4 -23 6.5 -50.5t2.5 -43.5l1 -17h4q26 60 53 111l402 768h139l102 -768l11 -111h4q24 60 51 111l401 772h152l-549 -1030h-151l-111 739l-8 111h-4q-29 -60 -56 -111l-389 -739h-153z" />
    <glyph glyph-name="x" unicode="x" horiz-adv-x="978" 
d="M-76 0l469 541l-246 489h154l162 -338l26 -61h3q20 28 40 55l291 344h168l-432 -502l268 -528h-149l-189 379l-24 61h-4q-18 -30 -43 -57l-328 -383h-166z" />
    <glyph glyph-name="y" unicode="y" horiz-adv-x="1083" 
d="M-80 -264q44 -41 115 -41q125 0 229 166l92 149l-231 1020h145l160 -770l16 -108h3q28 57 57 106l446 772h158l-754 -1249q-60 -101 -142.5 -156t-174.5 -55q-105 0 -191 61z" />
    <glyph glyph-name="z" unicode="z" horiz-adv-x="1011" 
d="M-41 0l16 90l707 723q22 23 45.5 45.5t37.5 35.5t15 13v4q-32 -4 -100 -4h-522l22 123h821l-18 -92l-709 -721q-24 -24 -48.5 -47t-39 -35.5t-14.5 -11.5v-4q36 4 104 4h568l-23 -123h-862z" />
    <glyph glyph-name="braceleft" unicode="{" horiz-adv-x="692" 
d="M168 61q0 29 12 115l37 189q6 35 6 61q0 144 -135 172l25 127q84 13 142 77t77 159l35 174q73 360 374 360h31l-20 -115h-19q-19 0 -37.5 -3t-51 -17.5t-59 -39.5t-52.5 -76t-39 -120l-39 -206q-17 -90 -74 -158.5t-141 -95.5v-5q53 -29 85.5 -84t32.5 -122q0 -25 -6 -60
l-43 -219q-10 -41 -10 -90q0 -44 12 -77t28.5 -49.5t39.5 -26t38 -11.5t32 -2h18l-23 -115q-8 -2 -32 -2q-23 0 -48.5 4.5t-62.5 20.5t-65 42.5t-48 76.5t-20 116z" />
    <glyph glyph-name="bar" unicode="|" horiz-adv-x="626" 
d="M254 -322v1936h129v-1936h-129z" />
    <glyph glyph-name="braceright" unicode="}" horiz-adv-x="692" 
d="M-12 -82q14 0 31 2.5t49 17t58 39.5t52 76.5t39 120.5l45 229q19 97 75.5 167t139.5 94v4q-117 65 -117 200q0 20 7 60l36 196q11 64 11 90q0 44 -12.5 77t-29 49.5t-40 26t-38.5 11.5t-32 2h-18l22 115q10 2 33 2t48.5 -4.5t62.5 -20.5t65 -42.5t48 -76.5t20 -116
q0 -45 -13 -115l-32 -164q-6 -38 -6 -63q0 -67 35.5 -113.5t99.5 -58.5l-25 -127q-80 -14 -140.5 -77t-78.5 -159l-39 -196q-72 -363 -375 -363q-18 0 -30 2l22 115h27z" />
    <glyph glyph-name="asciitilde" unicode="~" horiz-adv-x="1196" 
d="M129 428q0 162 69.5 239.5t190.5 77.5q62 0 110.5 -22t80.5 -53.5t61.5 -62.5t68.5 -53t87 -22q43 0 74 20.5t45 54.5t20 65.5t6 64.5h119q0 -161 -68.5 -239t-189.5 -78q-62 0 -111 22t-81 53t-61 62.5t-68 53.5t-87 22q-43 0 -74 -20.5t-45 -54.5t-20 -65.5t-6 -64.5
h-121z" />
    <glyph glyph-name="uni00A0" unicode="&#xa0;" horiz-adv-x="512" 
 />
    <glyph glyph-name="exclamdown" unicode="&#xa1;" horiz-adv-x="489" 
d="M215 868l33 162h160l-33 -162h-160zM-25 -410l215 1063h129l-200 -1063h-144z" />
    <glyph glyph-name="cent" unicode="&#xa2;" horiz-adv-x="1163" 
d="M422 -27l35 179q-156 24 -245 137t-89 297q0 97 24.5 195.5t73.5 187t115 158.5t155 114t189 51l33 172h114l-34 -176q70 -10 128 -42t91.5 -68.5t57.5 -79.5t32.5 -68t11.5 -41l-129 -49q-1 10 -7 29.5t-25 54t-46.5 63.5t-77.5 50.5t-112 21.5q-132 0 -236 -81
t-158.5 -212t-54.5 -284q0 -139 69.5 -220t209.5 -81q58 0 114 20.5t92.5 46t71 62t46.5 53t24 34.5q1 1 1 2l1 1l127 -54q-11 -18 -28.5 -43.5t-60.5 -72t-91.5 -83.5t-122 -67t-150.5 -35l-32 -172h-117z" />
    <glyph glyph-name="sterling" unicode="&#xa3;" horiz-adv-x="1163" 
d="M-10 0l24 127h127l107 541h-92l22 112h90l62 318q31 156 164 261t309 105q87 0 171.5 -31.5t145.5 -91.5l-100 -92q-39 38 -98.5 60t-120.5 22q-130 0 -219.5 -73t-110.5 -181l-57 -297h391l-23 -112h-391l-106 -541h694l-25 -127h-964z" />
    <glyph glyph-name="currency" unicode="&#xa4;" horiz-adv-x="1222" 
d="M145 0l72 369h-147l20 112h150l30 154h-147l22 121h148l133 684h426q179 0 282 -89t103 -247q0 -197 -150.5 -333t-369.5 -136h-305l-31 -154h518l-22 -112h-519l-71 -369h-142zM434 756h279q161 0 270 95.5t109 242.5q0 112 -69.5 168.5t-199.5 56.5h-278z" />
    <glyph glyph-name="yen" unicode="&#xa5;" horiz-adv-x="1163" 
d="M389 0l86 432h-334l19 105h334l18 81l-39 99h-276l20 104h217l-237 619h153l193 -512l57 -183h4q62 99 121 181l391 514h172l-479 -619h215l-23 -104h-272l-74 -99l-18 -81h330l-19 -105h-330l-86 -432h-143z" />
    <glyph glyph-name="section" unicode="&#xa7;" horiz-adv-x="849" 
d="M209 174l33 897q3 162 112 277.5t285 115.5q139 0 240 -88l-84 -90q-27 25 -71 40t-85 15q-123 0 -196.5 -79.5t-75.5 -200.5l-39 -887h-119zM-4 -37l84 88q27 -26 70.5 -40.5t87.5 -14.5q122 0 195.5 79t76.5 201l35 887h121l-33 -897q-3 -162 -112 -277.5t-285 -115.5
q-144 0 -240 90z" />
    <glyph glyph-name="dieresis" unicode="&#xa8;" horiz-adv-x="1032" 
d="M485 1608l35 176h127l-35 -176h-127zM176 1608l33 176h127l-33 -176h-127z" />
    <glyph glyph-name="copyright" unicode="&#xa9;" horiz-adv-x="1714" 
d="M154 721q0 152 57.5 290t154 237t230.5 157.5t281 58.5q150 0 285.5 -58.5t233 -157.5t155 -236.5t57.5 -290.5t-57.5 -291.5t-155 -238t-233 -158t-285.5 -58.5q-197 0 -363 99t-263 271t-97 376zM272 721q0 -176 80 -322t218.5 -229.5t306.5 -83.5q170 0 310.5 83.5
t221 229.5t80.5 322q0 175 -80 320t-221 229t-311 84q-167 0 -306.5 -84t-219 -229.5t-79.5 -319.5zM475 717q0 111 48 205.5t146 155.5t228 61q100 0 190 -51.5t144 -139.5l-94 -63q-37 59 -102.5 100t-133.5 41q-143 0 -224 -90t-81 -217t81 -217t224 -90q69 0 131.5 39
t104.5 102l94 -64q-54 -83 -143 -136.5t-191 -53.5q-131 0 -229 60.5t-145.5 154t-47.5 203.5z" />
    <glyph glyph-name="ordfeminine" unicode="&#xaa;" horiz-adv-x="868" 
d="M426 782q-75 0 -134 44.5t-59 125.5q0 50 19 90.5t47 66.5t69.5 44.5t78.5 28t83 15t72 6.5t57 1h39q4 13 4 15q12 70 -17 107.5t-99 37.5q-88 0 -185 -57l-39 84q41 29 111 49t131 20q215 0 215 -190q0 -35 -10 -80l-78 -395h-108l20 100h-4q-89 -108 -213 -113z
M459 879q52 0 102 39t79.5 88t37.5 90l4 18h-27q-303 0 -303 -149q0 -38 27 -62t80 -24zM150 541l18 94h539l-19 -94h-538z" />
    <glyph glyph-name="guillemotleft" unicode="&#xab;" horiz-adv-x="1071" 
d="M719 158l-264 424l422 417h161l-438 -428l258 -413h-139zM358 158l-264 424l393 417h162l-409 -428l260 -413h-142z" />
    <glyph glyph-name="logicalnot" unicode="&#xac;" horiz-adv-x="1361" 
d="M205 700v119h954v-495h-123v376h-831z" />
    <glyph glyph-name="uni00AD" unicode="&#xad;" horiz-adv-x="884" 
d="M135 518l23 127h581l-22 -127h-582z" />
    <glyph glyph-name="registered" unicode="&#xae;" horiz-adv-x="1714" 
d="M154 721q0 152 57.5 290t154 237t230.5 157.5t281 58.5q150 0 285.5 -58.5t233 -157.5t155 -236.5t57.5 -290.5t-57.5 -291.5t-155 -238t-233 -158t-285.5 -58.5q-197 0 -363 99t-263 271t-97 376zM272 721q0 -176 80 -322t218.5 -229.5t306.5 -83.5q170 0 310.5 83.5
t221 229.5t80.5 322q0 175 -80 320t-221 229t-311 84q-167 0 -306.5 -84t-219 -229.5t-79.5 -319.5zM633 322v798h285q106 0 172.5 -65t66.5 -172q0 -84 -43.5 -140t-105.5 -71v-4q8 -10 26 -45l156 -301h-129l-160 323h-151v-323h-117zM750 735h149q64 0 102.5 40t38.5 108
q0 67 -38 104t-103 37h-149v-289z" />
    <glyph glyph-name="macron" unicode="&#xaf;" horiz-adv-x="1032" 
d="M147 1608l21 112h504l-19 -112h-506z" />
    <glyph glyph-name="degree" unicode="&#xb0;" horiz-adv-x="817" 
d="M481 893q-114 0 -185 70t-71 178q0 125 101.5 223t228.5 98q113 0 183.5 -70.5t70.5 -177.5q0 -126 -102.5 -223.5t-225.5 -97.5zM487 1008q79 0 140 60t61 142q0 59 -39 98.5t-100 39.5q-78 0 -140.5 -62t-62.5 -141q0 -59 39 -98t102 -39z" />
    <glyph glyph-name="plusminus" unicode="&#xb1;" horiz-adv-x="1163" 
d="M463 0v522h-471v119h471v522h127v-522h471v-119h-471v-522h-127zM29 -213h995v-119h-995v119z" />
    <glyph glyph-name="twosuperior" unicode="&#xb2;" 
d="M158 866q2 83 34 151.5t82 115.5t110.5 87.5t120 75.5t109 70t80.5 80.5t31 99.5q0 55 -38 91t-101 36q-93 0 -205 -100l-64 78q52 54 126 91.5t149 37.5q116 0 184 -63t68 -163q0 -66 -26.5 -121.5t-70 -95t-96.5 -74t-109 -66t-105 -63.5t-86.5 -74.5t-51.5 -90.5h449
l-21 -103h-569z" />
    <glyph glyph-name="threesuperior" unicode="&#xb3;" 
d="M444 846q-180 0 -297 135l80 72q88 -101 219 -101q85 0 151.5 62t66.5 151q0 65 -51 103.5t-121 38.5h-68l-18 61l247 238l62 51v4q-39 -6 -76 -6h-311l20 104h537l-15 -76l-299 -284q33 -4 67 -19t67 -41t54 -71t21 -101q0 -127 -98.5 -224t-237.5 -97z" />
    <glyph glyph-name="acute" unicode="&#xb4;" horiz-adv-x="1032" 
d="M223 1540l191 244h172l-228 -244h-135z" />
    <glyph glyph-name="mu" unicode="&#xb5;" horiz-adv-x="1208" 
d="M178 -94l-63 -316h-127l278 1440h140l-119 -612q-17 -90 -17 -142q0 -80 41.5 -125t141.5 -45q111 0 212.5 66.5t167 169t87.5 215.5l90 473h139l-199 -1030h-137l29 147l26 97h-4q-23 -42 -61.5 -85.5t-94.5 -86.5t-133 -70t-161 -27q-148 0 -213 88h-4
q-9 -106 -19 -157z" />
    <glyph glyph-name="mu" unicode="&#x3bc;" horiz-adv-x="1208" 
d="M178 -94l-63 -316h-127l278 1440h140l-119 -612q-17 -90 -17 -142q0 -80 41.5 -125t141.5 -45q111 0 212.5 66.5t167 169t87.5 215.5l90 473h139l-199 -1030h-137l29 147l26 97h-4q-23 -42 -61.5 -85.5t-94.5 -86.5t-133 -70t-161 -27q-148 0 -213 88h-4
q-9 -106 -19 -157z" />
    <glyph glyph-name="paragraph" unicode="&#xb6;" horiz-adv-x="1167" 
d="M436 -102l115 596q-106 0 -199 52t-150 146.5t-57 210.5q0 107 49 207t127.5 172t181.5 115t208 43h512l-25 -127h-371l-274 -1415h-117zM680 -102l250 1292h117l-248 -1292h-119z" />
    <glyph glyph-name="periodcentered" unicode="&#xb7;" horiz-adv-x="468" 
d="M133 504l31 170h166l-33 -170h-164z" />
    <glyph glyph-name="cedilla" unicode="&#xb8;" horiz-adv-x="1032" 
d="M287 -186l98 227l82 -16l-55 -138q50 -8 85 -42.5t35 -90.5q0 -86 -68 -130t-153 -44q-66 0 -110 12l20 95q29 -11 82 -11q47 0 83 18.5t36 61.5q0 28 -28 44t-77 16q-18 0 -30 -2z" />
    <glyph glyph-name="onesuperior" unicode="&#xb9;" 
d="M213 866l20 103h193l113 583l14 50h-4q-10 -17 -51 -50l-95 -77l-59 81l244 203h106l-153 -790h188l-20 -103h-496z" />
    <glyph glyph-name="ordmasculine" unicode="&#xba;" horiz-adv-x="993" 
d="M547 784q-130 0 -213.5 79t-83.5 202q0 106 57 198.5t148.5 145.5t191.5 53q130 0 213.5 -79t83.5 -201q0 -163 -122 -280.5t-275 -117.5zM551 889q107 0 193.5 84t86.5 203q0 82 -52.5 133t-135.5 51q-108 0 -193 -84t-85 -201q0 -84 51 -135t135 -51zM176 541l19 94
h620l-18 -94h-621z" />
    <glyph glyph-name="guillemotright" unicode="&#xbb;" horiz-adv-x="1071" 
d="M414 158l409 428l-260 413h142l262 -424l-394 -417h-159zM25 158l438 428l-260 413h141l262 -424l-420 -417h-161z" />
    <glyph glyph-name="onequarter" unicode="&#xbc;" horiz-adv-x="1886" 
d="M1438 0l45 233h-436l14 78l545 582h118l-108 -557h133l-18 -103h-134l-47 -233h-112zM1212 336h291l53 278l33 127h-4q-43 -55 -86 -100l-287 -301v-4zM516 0h-129l969 1440h127zM113 549l20 102h193l112 584l15 49h-4q-11 -16 -52 -49l-94 -78l-59 82l243 203h107
l-154 -791h189l-21 -102h-495z" />
    <glyph glyph-name="onehalf" unicode="&#xbd;" horiz-adv-x="1871" 
d="M1081 0q2 83 34 151.5t82 115.5t110.5 87.5t120.5 75.5t109.5 70t80.5 80.5t31 99.5q0 55 -38.5 91t-101.5 36q-92 0 -204 -100l-64 77q52 54 126 91.5t149 37.5q116 0 183.5 -62.5t67.5 -162.5q0 -66 -26.5 -121.5t-70 -95t-96.5 -74t-109 -66.5t-104.5 -64t-86 -74.5
t-51.5 -90.5h448l-20 -102h-570zM516 0h-129l969 1440h127zM111 549l20 102h193l112 584l15 49h-5q-10 -16 -51 -49l-94 -78l-59 82l243 203h107l-154 -791h189l-21 -102h-495z" />
    <glyph glyph-name="threequarters" unicode="&#xbe;" horiz-adv-x="1943" 
d="M1497 0l45 233h-436l14 78l545 582h119l-109 -557h133l-18 -103h-133l-47 -233h-113zM1272 336h291l53 278l33 127h-4q-43 -55 -86 -100l-287 -301v-4zM401 528q-86 0 -163 35t-134 101l80 71q87 -100 219 -100q85 0 151.5 61.5t66.5 151.5q0 64 -51 102.5t-121 38.5h-68
l-19 62l248 237l62 51v4q-39 -6 -76 -6h-311l20 105h537l-15 -76l-299 -285q33 -4 67 -18.5t67 -41t54 -71t21 -100.5q0 -127 -98.5 -224.5t-237.5 -97.5zM575 0h-129l969 1440h127z" />
    <glyph glyph-name="questiondown" unicode="&#xbf;" horiz-adv-x="913" 
d="M496 868l32 162h162l-33 -162h-161zM-43 -119q0 74 24.5 138.5t64 111.5t88.5 89t100 81.5t95.5 78t78.5 88t45 103.5l16 82h139l-18 -88q-15 -69 -49.5 -129t-78 -103.5t-93 -84t-96 -78t-84 -77t-60.5 -90t-23 -107.5q0 -85 61.5 -139t164.5 -54q129 0 266 86l59 -113
q-62 -43 -154.5 -74.5t-185.5 -31.5q-162 0 -261 85t-99 226z" />
    <glyph glyph-name="Agrave" unicode="&#xc0;" horiz-adv-x="1298" 
d="M-63 0l802 1440h156l248 -1440h-144l-75 459h-580l-254 -459h-153zM408 582h495l-86 522l-22 188h-4q-54 -120 -91 -188zM774 1540l-129 244h152l96 -244h-119z" />
    <glyph glyph-name="Aacute" unicode="&#xc1;" horiz-adv-x="1298" 
d="M-63 0l802 1440h156l248 -1440h-144l-75 459h-580l-254 -459h-153zM408 582h495l-86 522l-22 188h-4q-54 -120 -91 -188zM766 1540l190 244h172l-227 -244h-135z" />
    <glyph glyph-name="Acircumflex" unicode="&#xc2;" horiz-adv-x="1298" 
d="M-63 0l802 1440h156l248 -1440h-144l-75 459h-580l-254 -459h-153zM408 582h495l-86 522l-22 188h-4q-54 -120 -91 -188zM582 1540l219 244h153l123 -244h-129l-78 164h-4l-143 -164h-141z" />
    <glyph glyph-name="Atilde" unicode="&#xc3;" horiz-adv-x="1298" 
d="M-63 0l802 1440h156l248 -1440h-144l-75 459h-580l-254 -459h-153zM408 582h495l-86 522l-22 188h-4q-54 -120 -91 -188zM532 1546q44 238 218 238q36 0 65 -15t47 -36.5t34.5 -43t36 -36.5t42.5 -15q77 0 104 140h111q-24 -120 -76.5 -179t-142.5 -59q-36 0 -64.5 15
t-47 36.5t-35 43t-37 36.5t-44.5 15q-39 0 -64.5 -44t-35.5 -96h-111z" />
    <glyph glyph-name="Adieresis" unicode="&#xc4;" horiz-adv-x="1298" 
d="M-63 0l802 1440h156l248 -1440h-144l-75 459h-580l-254 -459h-153zM408 582h495l-86 522l-22 188h-4q-54 -120 -91 -188zM944 1608l35 176h127l-35 -176h-127zM635 1608l33 176h127l-33 -176h-127z" />
    <glyph glyph-name="Aring" unicode="&#xc5;" horiz-adv-x="1298" 
d="M-63 0l802 1440h156l248 -1440h-144l-75 459h-580l-254 -459h-153zM408 582h495l-86 522l-22 188h-4q-54 -120 -91 -188zM846 1520q-65 0 -103 33t-38 92q0 67 51.5 115t117.5 48q67 0 105.5 -34t38.5 -95q0 -66 -53 -112.5t-119 -46.5zM850 1595q33 0 56.5 24.5
t23.5 59.5q0 23 -15.5 38.5t-40.5 15.5q-33 0 -57 -25t-24 -61q0 -24 15 -38t42 -14z" />
    <glyph glyph-name="AE" unicode="&#xc6;" horiz-adv-x="1751" 
d="M-76 0l869 1440h997l-27 -127h-667l-103 -525h547l-24 -126h-547l-105 -535h705l-25 -127h-846l129 664h-348l-397 -664h-158zM553 786h297l104 527h-84z" />
    <glyph glyph-name="Ccedilla" unicode="&#xc7;" horiz-adv-x="1472" 
d="M584 -186l71 168q-247 27 -388.5 194t-141.5 418q0 175 71.5 336.5t189.5 278t274.5 186t320.5 69.5q144 0 282 -45.5t224 -140.5l-90 -100q-74 72 -183.5 112.5t-230.5 40.5q-140 0 -271.5 -59t-227.5 -158t-154 -234.5t-58 -281.5q0 -215 130 -352t348 -137
q133 0 266 51t237 139l70 -111q-102 -93 -263 -153t-315 -60h-2l-34 -88q50 -8 85 -42.5t35 -90.5q0 -86 -68 -130t-153 -44q-66 0 -110 12l20 95q29 -11 82 -11q47 0 83 18.5t36 61.5q0 28 -28 44t-77 16q-18 0 -30 -2z" />
    <glyph glyph-name="Egrave" unicode="&#xc8;" horiz-adv-x="1140" 
d="M88 0l281 1440h811l-27 -127h-668l-102 -525h547l-25 -126h-545l-106 -535h704l-22 -127h-848zM754 1540l-129 244h151l96 -244h-118z" />
    <glyph glyph-name="Eacute" unicode="&#xc9;" horiz-adv-x="1140" 
d="M743 1540l191 244h172l-227 -244h-136zM88 0l281 1440h811l-27 -127h-668l-102 -525h547l-25 -126h-545l-106 -535h704l-22 -127h-848z" />
    <glyph glyph-name="Ecircumflex" unicode="&#xca;" horiz-adv-x="1140" 
d="M561 1540l219 244h154l123 -244h-129l-78 164h-4l-144 -164h-141zM88 0l281 1440h811l-27 -127h-668l-102 -525h547l-25 -126h-545l-106 -535h704l-22 -127h-848z" />
    <glyph glyph-name="Edieresis" unicode="&#xcb;" horiz-adv-x="1140" 
d="M922 1608l34 176h127l-34 -176h-127zM612 1608l33 176h127l-33 -176h-127zM88 0l281 1440h811l-27 -127h-668l-102 -525h547l-25 -126h-545l-106 -535h704l-22 -127h-848z" />
    <glyph glyph-name="Igrave" unicode="&#xcc;" horiz-adv-x="552" 
d="M88 0l281 1440h143l-283 -1440h-141zM397 1540l-129 244h152l96 -244h-119z" />
    <glyph glyph-name="Iacute" unicode="&#xcd;" horiz-adv-x="552" 
d="M88 0l281 1440h143l-283 -1440h-141zM387 1540l191 244h172l-228 -244h-135z" />
    <glyph glyph-name="Icircumflex" unicode="&#xce;" horiz-adv-x="552" 
d="M88 0l281 1440h143l-283 -1440h-141zM203 1540l219 244h153l123 -244h-129l-77 164h-5l-143 -164h-141z" />
    <glyph glyph-name="Idieresis" unicode="&#xcf;" horiz-adv-x="552" 
d="M88 0l281 1440h143l-283 -1440h-141zM565 1608l35 176h127l-35 -176h-127zM256 1608l33 176h127l-33 -176h-127z" />
    <glyph glyph-name="Eth" unicode="&#xd0;" horiz-adv-x="1525" 
d="M102 0l129 662h-120l24 122h121l129 656h436q293 0 459 -146.5t166 -412.5q0 -180 -63 -341.5t-174 -280.5t-271.5 -189t-345.5 -70h-490zM268 127h307q206 0 371.5 98t258.5 268t93 379q0 212 -130 326.5t-361 114.5h-305l-107 -529h346l-24 -122h-344z" />
    <glyph glyph-name="Ntilde" unicode="&#xd1;" horiz-adv-x="1523" 
d="M88 0l281 1440h127l534 -1037q16 -32 36 -80.5t32 -80.5l12 -33h4q9 118 25 194l200 1037h144l-283 -1440h-125l-534 1036q-16 32 -36 81t-32 81l-12 33h-4q-11 -119 -25 -195l-203 -1036h-141zM637 1546q44 238 217 238q36 0 65 -15t47 -36.5t34.5 -43t36 -36.5
t42.5 -15q31 0 55 26t34 53.5t16 60.5h110q-24 -120 -76.5 -179t-142.5 -59q-43 0 -77 23t-52 50t-43.5 50t-54.5 23q-39 0 -64.5 -44t-35.5 -96h-111z" />
    <glyph glyph-name="Ograve" unicode="&#xd2;" horiz-adv-x="1689" 
d="M123 598q0 171 74 332.5t193.5 277.5t277 186t319.5 70q279 0 453 -170t174 -436q0 -174 -74.5 -338.5t-194.5 -283t-277.5 -190t-317.5 -71.5q-279 0 -453 175t-174 448zM270 602q0 -217 133.5 -355t346.5 -138q132 0 262 59.5t230 158.5t162 237.5t62 287.5
q0 211 -133.5 345t-345.5 134q-134 0 -264.5 -58t-230 -155t-161 -233.5t-61.5 -282.5zM961 1540l-130 244h152l96 -244h-118z" />
    <glyph glyph-name="Oacute" unicode="&#xd3;" horiz-adv-x="1689" 
d="M952 1540l191 244h172l-228 -244h-135zM123 598q0 171 74 332.5t193.5 277.5t277 186t319.5 70q279 0 453 -170t174 -436q0 -174 -74.5 -338.5t-194.5 -283t-277.5 -190t-317.5 -71.5q-279 0 -453 175t-174 448zM270 602q0 -217 133.5 -355t346.5 -138q132 0 262 59.5
t230 158.5t162 237.5t62 287.5q0 211 -133.5 345t-345.5 134q-134 0 -264.5 -58t-230 -155t-161 -233.5t-61.5 -282.5z" />
    <glyph glyph-name="Ocircumflex" unicode="&#xd4;" horiz-adv-x="1689" 
d="M770 1540l219 244h154l123 -244h-129l-78 164h-4l-144 -164h-141zM123 598q0 171 74 332.5t193.5 277.5t277 186t319.5 70q279 0 453 -170t174 -436q0 -174 -74.5 -338.5t-194.5 -283t-277.5 -190t-317.5 -71.5q-279 0 -453 175t-174 448zM270 602q0 -217 133.5 -355
t346.5 -138q132 0 262 59.5t230 158.5t162 237.5t62 287.5q0 211 -133.5 345t-345.5 134q-134 0 -264.5 -58t-230 -155t-161 -233.5t-61.5 -282.5z" />
    <glyph glyph-name="Otilde" unicode="&#xd5;" horiz-adv-x="1689" 
d="M123 598q0 171 74 332.5t193.5 277.5t277 186t319.5 70q279 0 453 -170t174 -436q0 -174 -74.5 -338.5t-194.5 -283t-277.5 -190t-317.5 -71.5q-279 0 -453 175t-174 448zM270 602q0 -217 133.5 -355t346.5 -138q132 0 262 59.5t230 158.5t162 237.5t62 287.5
q0 211 -133.5 345t-345.5 134q-134 0 -264.5 -58t-230 -155t-161 -233.5t-61.5 -282.5zM721 1546q44 238 217 238q36 0 65 -15t47 -36.5t34.5 -43t36 -36.5t42.5 -15q31 0 55 26t34 53.5t16 60.5h110q-24 -120 -76.5 -179t-142.5 -59q-43 0 -77 23t-52 50t-43.5 50t-54.5 23
q-27 0 -49.5 -25t-34 -54.5t-17.5 -60.5h-110z" />
    <glyph glyph-name="Odieresis" unicode="&#xd6;" horiz-adv-x="1689" 
d="M1130 1608l35 176h127l-35 -176h-127zM821 1608l33 176h127l-33 -176h-127zM123 598q0 171 74 332.5t193.5 277.5t277 186t319.5 70q279 0 453 -170t174 -436q0 -174 -74.5 -338.5t-194.5 -283t-277.5 -190t-317.5 -71.5q-279 0 -453 175t-174 448zM270 602
q0 -217 133.5 -355t346.5 -138q132 0 262 59.5t230 158.5t162 237.5t62 287.5q0 211 -133.5 345t-345.5 134q-134 0 -264.5 -58t-230 -155t-161 -233.5t-61.5 -282.5z" />
    <glyph glyph-name="multiply" unicode="&#xd7;" horiz-adv-x="1163" 
d="M63 84l441 498l-441 497l84 84l439 -493l438 493l84 -84l-444 -497l444 -498l-84 -84l-438 494l-439 -494z" />
    <glyph glyph-name="Oslash" unicode="&#xd8;" horiz-adv-x="1689" 
d="M147 14l136 150q-160 171 -160 434q0 171 74 332.5t193.5 277.5t277 186t319.5 70q226 0 383 -114l129 141l80 -66l-129 -141q78 -81 121 -191t43 -235q0 -174 -74.5 -338.5t-194.5 -283t-277.5 -190t-317.5 -71.5q-229 0 -392 119l-131 -143zM383 270l891 975
q-122 86 -287 86q-134 0 -264.5 -58t-230 -155t-161 -233.5t-61.5 -282.5q0 -201 113 -332zM455 199q126 -90 295 -90q132 0 262 59.5t230 158.5t162 237.5t62 287.5q0 195 -116 324z" />
    <glyph glyph-name="Ugrave" unicode="&#xd9;" horiz-adv-x="1480" 
d="M160 393q0 55 12 117l182 930h142l-181 -934q-10 -41 -10 -96q0 -143 89.5 -222t252.5 -79q186 0 317 106t169 295l182 930h141l-186 -948q-47 -239 -216 -378t-411 -139q-220 0 -351.5 111t-131.5 307zM860 1540l-129 244h152l96 -244h-119z" />
    <glyph glyph-name="Uacute" unicode="&#xda;" horiz-adv-x="1480" 
d="M850 1540l190 244h172l-227 -244h-135zM160 393q0 55 12 117l182 930h142l-181 -934q-10 -41 -10 -96q0 -143 89.5 -222t252.5 -79q186 0 317 106t169 295l182 930h141l-186 -948q-47 -239 -216 -378t-411 -139q-220 0 -351.5 111t-131.5 307z" />
    <glyph glyph-name="Ucircumflex" unicode="&#xdb;" horiz-adv-x="1480" 
d="M668 1540l219 244h153l123 -244h-129l-78 164h-4l-143 -164h-141zM160 393q0 55 12 117l182 930h142l-181 -934q-10 -41 -10 -96q0 -143 89.5 -222t252.5 -79q186 0 317 106t169 295l182 930h141l-186 -948q-47 -239 -216 -378t-411 -139q-220 0 -351.5 111t-131.5 307z
" />
    <glyph glyph-name="Udieresis" unicode="&#xdc;" horiz-adv-x="1480" 
d="M1028 1608l35 176h127l-35 -176h-127zM719 1608l33 176h127l-33 -176h-127zM160 393q0 55 12 117l182 930h142l-181 -934q-10 -41 -10 -96q0 -143 89.5 -222t252.5 -79q186 0 317 106t169 295l182 930h141l-186 -948q-47 -239 -216 -378t-411 -139q-220 0 -351.5 111
t-131.5 307z" />
    <glyph glyph-name="Yacute" unicode="&#xdd;" horiz-adv-x="1185" 
d="M393 0l121 618l-324 822h154l201 -522l57 -173h4q64 92 121 170l403 525h173l-648 -826l-120 -614h-142zM676 1540l190 244h172l-227 -244h-135z" />
    <glyph glyph-name="Thorn" unicode="&#xde;" horiz-adv-x="1230" 
d="M88 0l281 1440h143l-53 -256h332q185 0 291 -94t106 -259q0 -114 -42.5 -213t-113.5 -166t-165.5 -105t-196.5 -38h-379l-62 -309h-141zM315 436h338q167 0 277 105t110 284q0 110 -70 171t-196 61h-340z" />
    <glyph glyph-name="germandbls" unicode="&#xdf;" horiz-adv-x="1175" 
d="M49 0l213 1104q34 166 167.5 263t289.5 97q154 0 242 -76t88 -192q0 -50 -17 -94.5t-44.5 -78t-61 -63.5t-67 -56t-61 -51t-44.5 -53.5t-17 -58.5q0 -36 32.5 -73t78.5 -73t92 -75.5t78.5 -94.5t32.5 -116q0 -133 -111 -228t-258 -95q-182 0 -315 65l26 129
q43 -30 126 -48.5t155 -18.5q39 0 78.5 11.5t75 34t57.5 61t22 87.5q0 40 -23.5 78.5t-58.5 68t-76.5 63t-76.5 63.5t-58.5 70.5t-23.5 82.5q0 57 32.5 108.5t79 90.5t92.5 76.5t78.5 83t32.5 94.5q0 63 -48.5 108t-139.5 45q-109 0 -202 -70t-116 -192l-211 -1077h-139z
" />
    <glyph glyph-name="agrave" unicode="&#xe0;" horiz-adv-x="1056" 
d="M8 236q0 80 31 144.5t86 107t121.5 72.5t148 45.5t154.5 22.5t151 7h68q10 55 10 110q0 88 -48.5 136.5t-160.5 48.5q-78 0 -161 -27t-150 -72l-43 117q64 44 165 75.5t202 31.5q159 0 249.5 -72t90.5 -219q0 -48 -13 -115l-125 -649h-135l25 119l22 88h-4
q-19 -36 -52 -73.5t-80 -74.5t-111.5 -60.5t-133.5 -23.5q-129 0 -218 71t-89 190zM150 254q0 -69 50 -115.5t148 -46.5q90 0 175 61t140 149t76 181l9 41h-60q-45 0 -84.5 -1.5t-96.5 -8t-103.5 -17.5t-95.5 -31.5t-82 -48t-54.5 -69.5t-21.5 -94zM565 1198l-129 244h152
l96 -244h-119z" />
    <glyph glyph-name="aacute" unicode="&#xe1;" horiz-adv-x="1056" 
d="M8 236q0 80 31 144.5t86 107t121.5 72.5t148 45.5t154.5 22.5t151 7h68q10 55 10 110q0 88 -48.5 136.5t-160.5 48.5q-78 0 -161 -27t-150 -72l-43 117q64 44 165 75.5t202 31.5q159 0 249.5 -72t90.5 -219q0 -48 -13 -115l-125 -649h-135l25 119l22 88h-4
q-19 -36 -52 -73.5t-80 -74.5t-111.5 -60.5t-133.5 -23.5q-129 0 -218 71t-89 190zM150 254q0 -69 50 -115.5t148 -46.5q90 0 175 61t140 149t76 181l9 41h-60q-45 0 -84.5 -1.5t-96.5 -8t-103.5 -17.5t-95.5 -31.5t-82 -48t-54.5 -69.5t-21.5 -94zM557 1198l191 244h172
l-228 -244h-135z" />
    <glyph glyph-name="acircumflex" unicode="&#xe2;" horiz-adv-x="1056" 
d="M8 236q0 80 31 144.5t86 107t121.5 72.5t148 45.5t154.5 22.5t151 7h68q10 55 10 110q0 88 -48.5 136.5t-160.5 48.5q-78 0 -161 -27t-150 -72l-43 117q64 44 165 75.5t202 31.5q159 0 249.5 -72t90.5 -219q0 -48 -13 -115l-125 -649h-135l25 119l22 88h-4
q-19 -36 -52 -73.5t-80 -74.5t-111.5 -60.5t-133.5 -23.5q-129 0 -218 71t-89 190zM150 254q0 -69 50 -115.5t148 -46.5q90 0 175 61t140 149t76 181l9 41h-60q-45 0 -84.5 -1.5t-96.5 -8t-103.5 -17.5t-95.5 -31.5t-82 -48t-54.5 -69.5t-21.5 -94zM375 1198l219 244h154
l122 -244h-129l-77 164h-5l-143 -164h-141z" />
    <glyph glyph-name="atilde" unicode="&#xe3;" horiz-adv-x="1056" 
d="M8 236q0 80 31 144.5t86 107t121.5 72.5t148 45.5t154.5 22.5t151 7h68q10 55 10 110q0 88 -48.5 136.5t-160.5 48.5q-78 0 -161 -27t-150 -72l-43 117q64 44 165 75.5t202 31.5q159 0 249.5 -72t90.5 -219q0 -48 -13 -115l-125 -649h-135l25 119l22 88h-4
q-19 -36 -52 -73.5t-80 -74.5t-111.5 -60.5t-133.5 -23.5q-129 0 -218 71t-89 190zM150 254q0 -69 50 -115.5t148 -46.5q90 0 175 61t140 149t76 181l9 41h-60q-45 0 -84.5 -1.5t-96.5 -8t-103.5 -17.5t-95.5 -31.5t-82 -48t-54.5 -69.5t-21.5 -94zM324 1204q44 238 217 238
q36 0 65 -15t47 -36.5t34.5 -43t36 -36.5t42.5 -15q77 0 104 140h111q-24 -120 -76.5 -179t-142.5 -59q-36 0 -64.5 15t-46.5 36t-34.5 42.5t-37 36.5t-44.5 15q-40 0 -65.5 -44t-35.5 -95h-110z" />
    <glyph glyph-name="adieresis" unicode="&#xe4;" horiz-adv-x="1056" 
d="M8 236q0 80 31 144.5t86 107t121.5 72.5t148 45.5t154.5 22.5t151 7h68q10 55 10 110q0 88 -48.5 136.5t-160.5 48.5q-78 0 -161 -27t-150 -72l-43 117q64 44 165 75.5t202 31.5q159 0 249.5 -72t90.5 -219q0 -48 -13 -115l-125 -649h-135l25 119l22 88h-4
q-19 -36 -52 -73.5t-80 -74.5t-111.5 -60.5t-133.5 -23.5q-129 0 -218 71t-89 190zM150 254q0 -69 50 -115.5t148 -46.5q90 0 175 61t140 149t76 181l9 41h-60q-45 0 -84.5 -1.5t-96.5 -8t-103.5 -17.5t-95.5 -31.5t-82 -48t-54.5 -69.5t-21.5 -94zM735 1266l35 176h127
l-35 -176h-127zM426 1266l33 176h127l-33 -176h-127z" />
    <glyph glyph-name="aring" unicode="&#xe5;" horiz-adv-x="1056" 
d="M8 236q0 80 31 144.5t86 107t121.5 72.5t148 45.5t154.5 22.5t151 7h68q10 55 10 110q0 88 -48.5 136.5t-160.5 48.5q-78 0 -161 -27t-150 -72l-43 117q64 44 165 75.5t202 31.5q159 0 249.5 -72t90.5 -219q0 -48 -13 -115l-125 -649h-135l25 119l22 88h-4
q-19 -36 -52 -73.5t-80 -74.5t-111.5 -60.5t-133.5 -23.5q-129 0 -218 71t-89 190zM150 254q0 -69 50 -115.5t148 -46.5q90 0 175 61t140 149t76 181l9 41h-60q-45 0 -84.5 -1.5t-96.5 -8t-103.5 -17.5t-95.5 -31.5t-82 -48t-54.5 -69.5t-21.5 -94zM637 1178q-65 0 -103 33
t-38 92q0 67 52 115t118 48q67 0 105 -34t38 -95q0 -66 -53 -112.5t-119 -46.5zM641 1253q33 0 56.5 24.5t23.5 59.5q0 23 -15.5 38.5t-39.5 15.5q-33 0 -57.5 -25t-24.5 -61q0 -24 15 -38t42 -14z" />
    <glyph glyph-name="ae" unicode="&#xe6;" horiz-adv-x="1771" 
d="M10 236q0 81 29.5 145t83 105.5t118 70t145.5 43.5t154.5 21t155.5 6h70q14 77 14 118q0 92 -52.5 138.5t-164.5 46.5q-74 0 -157 -27.5t-146 -71.5l-43 117q71 46 169.5 76.5t191.5 30.5q275 0 315 -199h4q81 98 187 148.5t225 50.5q185 0 281 -101t96 -274
q0 -70 -27 -164h-776q-12 -62 -9 -115q3 -144 88 -221.5t224 -77.5q87 0 176 33.5t162 89.5l43 -114q-68 -56 -178 -96t-205 -40q-164 0 -276.5 76t-149.5 205h-4q-10 -21 -27.5 -49.5t-56.5 -71t-85 -76.5t-117 -59t-149 -25q-132 0 -220.5 69t-88.5 192zM911 627h627
q6 35 6 69q0 120 -66 181t-169 61q-132 0 -238.5 -81t-159.5 -230zM154 252q0 -69 50.5 -114.5t145.5 -45.5q93 0 177.5 60.5t137 146.5t72.5 178l8 39h-118q-50 0 -95 -3.5t-102.5 -12t-103.5 -27.5t-86.5 -46.5t-63 -72.5t-22.5 -102z" />
    <glyph glyph-name="ccedilla" unicode="&#xe7;" horiz-adv-x="1114" 
d="M377 -186l72 170q-173 25 -276 140.5t-103 289.5q0 136 53.5 257t141.5 204t202.5 131.5t234.5 48.5q108 0 209 -37.5t164 -110.5l-84 -94q-47 53 -124.5 85t-157.5 32q-92 0 -182 -38.5t-159.5 -104t-112 -161t-42.5 -202.5q0 -145 93.5 -233.5t242.5 -88.5q96 0 190 38
t168 104l45 -115q-75 -69 -186 -111.5t-223 -42.5h-6l-35 -88q50 -8 85.5 -42.5t35.5 -90.5q0 -59 -36 -100t-84.5 -57.5t-101.5 -16.5q-66 0 -110 12l20 95q29 -11 82 -11q47 0 83 18.5t36 61.5q0 28 -27.5 44t-76.5 16q-19 0 -31 -2z" />
    <glyph glyph-name="egrave" unicode="&#xe8;" horiz-adv-x="1130" 
d="M72 410q0 125 45.5 242.5t123.5 206.5t190.5 142.5t238.5 53.5q185 0 279.5 -101.5t94.5 -271.5q0 -79 -28 -172h-791q-10 -55 -10 -92q0 -136 87 -226t243 -90q178 0 338 123l43 -114q-66 -55 -172 -95.5t-213 -40.5q-211 0 -340 120t-129 315zM252 621h645q6 30 6 73
q0 120 -64.5 183t-168.5 63q-134 0 -249 -84t-169 -235zM657 1198l-129 244h152l96 -244h-119z" />
    <glyph glyph-name="eacute" unicode="&#xe9;" horiz-adv-x="1130" 
d="M647 1198l191 244h172l-228 -244h-135zM72 410q0 125 45.5 242.5t123.5 206.5t190.5 142.5t238.5 53.5q185 0 279.5 -101.5t94.5 -271.5q0 -79 -28 -172h-791q-10 -55 -10 -92q0 -136 87 -226t243 -90q178 0 338 123l43 -114q-66 -55 -172 -95.5t-213 -40.5
q-211 0 -340 120t-129 315zM252 621h645q6 30 6 73q0 120 -64.5 183t-168.5 63q-134 0 -249 -84t-169 -235z" />
    <glyph glyph-name="ecircumflex" unicode="&#xea;" horiz-adv-x="1130" 
d="M465 1198l219 244h154l123 -244h-130l-77 164h-4l-144 -164h-141zM72 410q0 125 45.5 242.5t123.5 206.5t190.5 142.5t238.5 53.5q185 0 279.5 -101.5t94.5 -271.5q0 -79 -28 -172h-791q-10 -55 -10 -92q0 -136 87 -226t243 -90q178 0 338 123l43 -114
q-66 -55 -172 -95.5t-213 -40.5q-211 0 -340 120t-129 315zM252 621h645q6 30 6 73q0 120 -64.5 183t-168.5 63q-134 0 -249 -84t-169 -235z" />
    <glyph glyph-name="edieresis" unicode="&#xeb;" horiz-adv-x="1130" 
d="M825 1266l35 176h127l-35 -176h-127zM516 1266l33 176h127l-33 -176h-127zM72 410q0 125 45.5 242.5t123.5 206.5t190.5 142.5t238.5 53.5q185 0 279.5 -101.5t94.5 -271.5q0 -79 -28 -172h-791q-10 -55 -10 -92q0 -136 87 -226t243 -90q178 0 338 123l43 -114
q-66 -55 -172 -95.5t-213 -40.5q-211 0 -340 120t-129 315zM252 621h645q6 30 6 73q0 120 -64.5 183t-168.5 63q-134 0 -249 -84t-169 -235z" />
    <glyph glyph-name="igrave" unicode="&#xec;" horiz-adv-x="471" 
d="M49 0l201 1030h139l-201 -1030h-139zM289 1198l-129 244h151l97 -244h-119z" />
    <glyph glyph-name="iacute" unicode="&#xed;" horiz-adv-x="471" 
d="M276 1198l191 244h172l-227 -244h-136zM49 0l201 1030h139l-201 -1030h-139z" />
    <glyph glyph-name="icircumflex" unicode="&#xee;" horiz-adv-x="471" 
d="M96 1198l219 244h154l123 -244h-129l-78 164h-4l-143 -164h-142zM49 0l201 1030h139l-201 -1030h-139z" />
    <glyph glyph-name="idieresis" unicode="&#xef;" horiz-adv-x="471" 
d="M457 1266l35 176h126l-34 -176h-127zM147 1266l33 176h127l-33 -176h-127zM49 0l201 1030h139l-201 -1030h-139z" />
    <glyph glyph-name="eth" unicode="&#xf0;" horiz-adv-x="1183" 
d="M66 383q0 103 40 204.5t112 184t183.5 133.5t243.5 51q57 0 108.5 -12t83 -29.5t55.5 -35t34 -29.5l10 -12h4q-36 208 -192 336l-396 -164l-8 100l307 129q-120 69 -270 111l57 106q220 -58 359 -158l305 125l10 -100l-231 -96q209 -193 209 -506q0 -63 -11 -131.5
t-34.5 -141t-58 -140.5t-85 -129t-111.5 -106t-141 -71.5t-170 -26.5q-134 0 -229.5 57t-139.5 147.5t-44 203.5zM209 387q0 -123 70 -205t200 -82q78 0 150.5 32t125.5 84t93 117t60 133t20 130q0 109 -75.5 175.5t-205.5 66.5q-120 0 -221 -61.5t-159 -165.5t-58 -224z
" />
    <glyph glyph-name="ntilde" unicode="&#xf1;" horiz-adv-x="1214" 
d="M49 0l201 1030h137l-27 -147q-4 -21 -11 -45t-12 -38l-5 -14h4q21 42 62 86.5t98.5 86.5t135.5 69t159 27q142 0 218 -68t76 -199q0 -57 -16 -135l-125 -653h-139l119 616q16 94 16 138q0 85 -47.5 127.5t-130.5 42.5q-84 0 -165.5 -36.5t-144.5 -97.5t-108.5 -142.5
t-62.5 -170.5l-93 -477h-139zM442 1204q44 238 217 238q36 0 65 -15t47.5 -36.5t35 -43t36 -36.5t42.5 -15q77 0 104 140h111q-24 -120 -76.5 -179t-142.5 -59q-36 0 -64.5 15t-47 36t-35 42.5t-37 36.5t-44.5 15q-39 0 -64.5 -43.5t-35.5 -95.5h-111z" />
    <glyph glyph-name="ograve" unicode="&#xf2;" horiz-adv-x="1277" 
d="M70 426q0 128 53.5 246t141.5 201t203 132.5t234 49.5q210 0 341 -124.5t131 -320.5q0 -130 -54.5 -249t-143 -202.5t-203 -133.5t-232.5 -50q-209 0 -340 126t-131 325zM213 430q0 -145 92 -236.5t238 -91.5q121 0 232.5 65.5t183 182.5t71.5 254q0 143 -92 234.5
t-238 91.5q-122 0 -234 -66t-182.5 -182.5t-70.5 -251.5zM690 1198l-129 244h152l96 -244h-119z" />
    <glyph glyph-name="oacute" unicode="&#xf3;" horiz-adv-x="1277" 
d="M682 1198l190 244h172l-227 -244h-135zM70 426q0 128 53.5 246t141.5 201t203 132.5t234 49.5q210 0 341 -124.5t131 -320.5q0 -130 -54.5 -249t-143 -202.5t-203 -133.5t-232.5 -50q-209 0 -340 126t-131 325zM213 430q0 -145 92 -236.5t238 -91.5q121 0 232.5 65.5
t183 182.5t71.5 254q0 143 -92 234.5t-238 91.5q-122 0 -234 -66t-182.5 -182.5t-70.5 -251.5z" />
    <glyph glyph-name="ocircumflex" unicode="&#xf4;" horiz-adv-x="1277" 
d="M498 1198l219 244h153l123 -244h-129l-78 164h-4l-143 -164h-141zM70 426q0 128 53.5 246t141.5 201t203 132.5t234 49.5q210 0 341 -124.5t131 -320.5q0 -130 -54.5 -249t-143 -202.5t-203 -133.5t-232.5 -50q-209 0 -340 126t-131 325zM213 430q0 -145 92 -236.5
t238 -91.5q121 0 232.5 65.5t183 182.5t71.5 254q0 143 -92 234.5t-238 91.5q-122 0 -234 -66t-182.5 -182.5t-70.5 -251.5z" />
    <glyph glyph-name="otilde" unicode="&#xf5;" horiz-adv-x="1277" 
d="M70 426q0 128 53.5 246t141.5 201t203 132.5t234 49.5q210 0 341 -124.5t131 -320.5q0 -130 -54.5 -249t-143 -202.5t-203 -133.5t-232.5 -50q-209 0 -340 126t-131 325zM213 430q0 -145 92 -236.5t238 -91.5q121 0 232.5 65.5t183 182.5t71.5 254q0 143 -92 234.5
t-238 91.5q-122 0 -234 -66t-182.5 -182.5t-70.5 -251.5zM449 1204q44 238 217 238q36 0 65 -15t47 -36.5t34.5 -43t36 -36.5t42.5 -15q77 0 104 140h111q-24 -120 -76.5 -179t-142.5 -59q-36 0 -64.5 15t-47 36t-35 42.5t-37 36.5t-44.5 15q-39 0 -64.5 -43.5t-35.5 -95.5
h-110z" />
    <glyph glyph-name="odieresis" unicode="&#xf6;" horiz-adv-x="1277" 
d="M858 1266l35 176h127l-35 -176h-127zM549 1266l33 176h127l-33 -176h-127zM70 426q0 128 53.5 246t141.5 201t203 132.5t234 49.5q210 0 341 -124.5t131 -320.5q0 -130 -54.5 -249t-143 -202.5t-203 -133.5t-232.5 -50q-209 0 -340 126t-131 325zM213 430
q0 -145 92 -236.5t238 -91.5q121 0 232.5 65.5t183 182.5t71.5 254q0 143 -92 234.5t-238 91.5q-122 0 -234 -66t-182.5 -182.5t-70.5 -251.5z" />
    <glyph glyph-name="divide" unicode="&#xf7;" horiz-adv-x="1163" 
d="M498 887v151h153v-151h-153zM74 522v119h1003v-119h-1003zM498 125v151h153v-151h-153z" />
    <glyph glyph-name="oslash" unicode="&#xf8;" horiz-adv-x="1277" 
d="M90 -2l103 111q-123 123 -123 317q0 128 53.5 246t141.5 201t203 132.5t234 49.5q163 0 285 -80l105 115l79 -66l-108 -117q111 -121 111 -297q0 -130 -54.5 -249t-143 -202.5t-203 -133.5t-232.5 -50q-154 0 -269 70l-104 -113zM287 213l606 659q-83 58 -193 58
q-122 0 -234 -66t-182.5 -182.5t-70.5 -251.5q0 -130 74 -217zM367 147q76 -45 176 -45q121 0 232.5 65.5t183 182.5t71.5 254q0 119 -65 199z" />
    <glyph glyph-name="ugrave" unicode="&#xf9;" horiz-adv-x="1204" 
d="M96 242q0 41 15 137l127 651h139l-119 -612q-16 -85 -16 -142q0 -80 41.5 -125t140.5 -45q111 0 212.5 66.5t166.5 169t86 215.5l92 473h139l-198 -1030h-138l29 147q4 21 10.5 45t11.5 38l5 14h-4q-24 -42 -63 -85.5t-95 -86.5t-133 -70t-160 -27q-61 0 -111.5 14.5
t-91 45t-63.5 83.5t-23 124zM647 1198l-129 244h152l96 -244h-119z" />
    <glyph glyph-name="uacute" unicode="&#xfa;" horiz-adv-x="1204" 
d="M637 1198l190 244h172l-227 -244h-135zM96 242q0 41 15 137l127 651h139l-119 -612q-16 -85 -16 -142q0 -80 41.5 -125t140.5 -45q111 0 212.5 66.5t166.5 169t86 215.5l92 473h139l-198 -1030h-138l29 147q4 21 10.5 45t11.5 38l5 14h-4q-24 -42 -63 -85.5t-95 -86.5
t-133 -70t-160 -27q-61 0 -111.5 14.5t-91 45t-63.5 83.5t-23 124z" />
    <glyph glyph-name="ucircumflex" unicode="&#xfb;" horiz-adv-x="1204" 
d="M455 1198l219 244h153l123 -244h-129l-78 164h-4l-143 -164h-141zM96 242q0 41 15 137l127 651h139l-119 -612q-16 -85 -16 -142q0 -80 41.5 -125t140.5 -45q111 0 212.5 66.5t166.5 169t86 215.5l92 473h139l-198 -1030h-138l29 147q4 21 10.5 45t11.5 38l5 14h-4
q-24 -42 -63 -85.5t-95 -86.5t-133 -70t-160 -27q-61 0 -111.5 14.5t-91 45t-63.5 83.5t-23 124z" />
    <glyph glyph-name="udieresis" unicode="&#xfc;" horiz-adv-x="1204" 
d="M815 1266l35 176h127l-35 -176h-127zM506 1266l33 176h127l-33 -176h-127zM96 242q0 41 15 137l127 651h139l-119 -612q-16 -85 -16 -142q0 -80 41.5 -125t140.5 -45q111 0 212.5 66.5t166.5 169t86 215.5l92 473h139l-198 -1030h-138l29 147q4 21 10.5 45t11.5 38l5 14
h-4q-24 -42 -63 -85.5t-95 -86.5t-133 -70t-160 -27q-61 0 -111.5 14.5t-91 45t-63.5 83.5t-23 124z" />
    <glyph glyph-name="yacute" unicode="&#xfd;" horiz-adv-x="1083" 
d="M-80 -264q44 -41 115 -41q125 0 229 166l92 149l-231 1020h145l160 -770l16 -108h3q28 57 57 106l446 772h158l-754 -1249q-60 -101 -142.5 -156t-174.5 -55q-105 0 -191 61zM582 1198l190 244h172l-227 -244h-135z" />
    <glyph glyph-name="thorn" unicode="&#xfe;" horiz-adv-x="1208" 
d="M207 84l-96 -494h-140l359 1850h137l-96 -504q-4 -19 -10 -40.5t-11 -33.5l-4 -12h4q57 87 154 146t219 59q181 0 281 -110.5t100 -303.5q0 -143 -47.5 -269t-125 -212t-179 -135.5t-207.5 -49.5q-114 0 -201.5 53t-120.5 154h-4q-2 -45 -12 -98zM276 397
q0 -129 65.5 -213t190.5 -84q61 0 121.5 23t115.5 69t97 108.5t67 148.5t25 182q0 138 -69.5 217.5t-190.5 79.5q-90 0 -170.5 -47t-134.5 -123t-85.5 -171t-31.5 -190z" />
    <glyph glyph-name="ydieresis" unicode="&#xff;" horiz-adv-x="1083" 
d="M-80 -264q44 -41 115 -41q125 0 229 166l92 149l-231 1020h145l160 -770l16 -108h3q28 57 57 106l446 772h158l-754 -1249q-60 -101 -142.5 -156t-174.5 -55q-105 0 -191 61zM758 1266l35 176h127l-35 -176h-127zM449 1266l32 176h127l-33 -176h-126z" />
    <glyph glyph-name="Amacron" unicode="&#x100;" horiz-adv-x="1298" 
d="M-63 0l802 1440h156l248 -1440h-144l-75 459h-580l-254 -459h-153zM408 582h495l-86 522l-22 188h-4q-54 -120 -91 -188zM598 1608l20 112h504l-18 -112h-506z" />
    <glyph glyph-name="amacron" unicode="&#x101;" horiz-adv-x="1056" 
d="M8 236q0 80 31 144.5t86 107t121.5 72.5t148 45.5t154.5 22.5t151 7h68q10 55 10 110q0 88 -48.5 136.5t-160.5 48.5q-78 0 -161 -27t-150 -72l-43 117q64 44 165 75.5t202 31.5q159 0 249.5 -72t90.5 -219q0 -48 -13 -115l-125 -649h-135l25 119l22 88h-4
q-19 -36 -52 -73.5t-80 -74.5t-111.5 -60.5t-133.5 -23.5q-129 0 -218 71t-89 190zM150 254q0 -69 50 -115.5t148 -46.5q90 0 175 61t140 149t76 181l9 41h-60q-45 0 -84.5 -1.5t-96.5 -8t-103.5 -17.5t-95.5 -31.5t-82 -48t-54.5 -69.5t-21.5 -94zM389 1266l21 112h503
l-18 -112h-506z" />
    <glyph glyph-name="Abreve" unicode="&#x102;" horiz-adv-x="1298" 
d="M-63 0l802 1440h156l248 -1440h-144l-75 459h-580l-254 -459h-153zM408 582h495l-86 522l-22 188h-4q-54 -120 -91 -188zM844 1534q-85 0 -147 46.5t-62 133.5q0 25 10 70h115q-10 -38 -10 -60q0 -49 29 -71.5t73 -22.5q55 0 99.5 37t54.5 117h114q-12 -89 -55.5 -147
t-98.5 -80.5t-122 -22.5z" />
    <glyph glyph-name="abreve" unicode="&#x103;" horiz-adv-x="1056" 
d="M8 236q0 80 31 144.5t86 107t121.5 72.5t148 45.5t154.5 22.5t151 7h68q10 55 10 110q0 88 -48.5 136.5t-160.5 48.5q-78 0 -161 -27t-150 -72l-43 117q64 44 165 75.5t202 31.5q159 0 249.5 -72t90.5 -219q0 -48 -13 -115l-125 -649h-135l25 119l22 88h-4
q-19 -36 -52 -73.5t-80 -74.5t-111.5 -60.5t-133.5 -23.5q-129 0 -218 71t-89 190zM150 254q0 -69 50 -115.5t148 -46.5q90 0 175 61t140 149t76 181l9 41h-60q-45 0 -84.5 -1.5t-96.5 -8t-103.5 -17.5t-95.5 -31.5t-82 -48t-54.5 -69.5t-21.5 -94zM637 1192
q-85 0 -147 46.5t-62 133.5q0 25 10 70h115q-10 -38 -10 -60q0 -49 29 -71.5t73 -22.5q55 0 99.5 37t54.5 117h114q-12 -89 -55.5 -147t-98.5 -80.5t-122 -22.5z" />
    <glyph glyph-name="Aogonek" unicode="&#x104;" horiz-adv-x="1298" 
d="M-63 0l802 1440h156l248 -1440h-4q-193 -132 -193 -221q0 -21 11 -37.5t27 -25t32.5 -13.5t27.5 -7l11 -1l-54 -115q-4 0 -11 1t-26.5 5t-37.5 10.5t-40 19.5t-37.5 29t-26.5 42t-11 57q0 137 186 262l-73 453h-580l-254 -459h-153zM408 582h495l-86 522l-22 188h-4
q-54 -120 -91 -188z" />
    <glyph glyph-name="aogonek" unicode="&#x105;" horiz-adv-x="1056" 
d="M8 236q0 80 31 144.5t86 107t121.5 72.5t148 45.5t154.5 22.5t151 7h68q10 55 10 110q0 88 -48.5 136.5t-160.5 48.5q-78 0 -161 -27t-150 -72l-43 117q64 44 165 75.5t202 31.5q159 0 249.5 -72t90.5 -219q0 -48 -13 -115l-125 -649q-194 -128 -194 -221q0 -34 27 -55
t54 -25l27 -4l-53 -115q-4 0 -11 1t-26.5 5t-37.5 10.5t-40 19.5t-37.5 29t-26.5 42t-11 57q0 79 54 144t142 126l23 105l22 88h-4q-19 -36 -52 -73.5t-80 -74.5t-111.5 -60.5t-133.5 -23.5q-129 0 -218 71t-89 190zM150 254q0 -69 50 -115.5t148 -46.5q90 0 175 61t140 149
t76 181l9 41h-60q-45 0 -84.5 -1.5t-96.5 -8t-103.5 -17.5t-95.5 -31.5t-82 -48t-54.5 -69.5t-21.5 -94z" />
    <glyph glyph-name="Cacute" unicode="&#x106;" horiz-adv-x="1472" 
d="M936 1540l190 244h172l-227 -244h-135zM125 594q0 175 71.5 336.5t189.5 278t274.5 186t320.5 69.5q144 0 282 -45.5t224 -140.5l-90 -100q-74 72 -183.5 112.5t-230.5 40.5q-140 0 -271.5 -59t-227.5 -158t-154 -234.5t-58 -281.5q0 -215 130 -352t348 -137
q133 0 266 51t237 139l70 -111q-102 -93 -263 -153t-315 -60q-190 0 -331.5 80t-215 220t-73.5 319z" />
    <glyph glyph-name="cacute" unicode="&#x107;" horiz-adv-x="1112" 
d="M647 1198l191 244h172l-228 -244h-135zM70 414q0 136 53.5 257t141.5 204t202.5 131.5t234.5 48.5q108 0 209 -37.5t164 -110.5l-84 -94q-47 53 -124.5 85t-157.5 32q-92 0 -182 -38.5t-159.5 -104t-112 -161t-42.5 -202.5q0 -145 93.5 -233.5t242.5 -88.5q96 0 190 38
t168 104l45 -115q-75 -69 -186 -111.5t-223 -42.5q-211 0 -342 121t-131 318z" />
    <glyph glyph-name="Ccircumflex" unicode="&#x108;" horiz-adv-x="1472" 
d="M752 1540l219 244h153l123 -244h-129l-78 164h-4l-143 -164h-141zM125 594q0 175 71.5 336.5t189.5 278t274.5 186t320.5 69.5q144 0 282 -45.5t224 -140.5l-90 -100q-74 72 -183.5 112.5t-230.5 40.5q-140 0 -271.5 -59t-227.5 -158t-154 -234.5t-58 -281.5
q0 -215 130 -352t348 -137q133 0 266 51t237 139l70 -111q-102 -93 -263 -153t-315 -60q-190 0 -331.5 80t-215 220t-73.5 319z" />
    <glyph glyph-name="ccircumflex" unicode="&#x109;" horiz-adv-x="1112" 
d="M463 1198l219 244h154l122 -244h-129l-77 164h-4l-144 -164h-141zM70 414q0 136 53.5 257t141.5 204t202.5 131.5t234.5 48.5q108 0 209 -37.5t164 -110.5l-84 -94q-47 53 -124.5 85t-157.5 32q-92 0 -182 -38.5t-159.5 -104t-112 -161t-42.5 -202.5q0 -145 93.5 -233.5
t242.5 -88.5q96 0 190 38t168 104l45 -115q-75 -69 -186 -111.5t-223 -42.5q-211 0 -342 121t-131 318z" />
    <glyph glyph-name="Cdotaccent" unicode="&#x10a;" horiz-adv-x="1472" 
d="M125 594q0 175 71.5 336.5t189.5 278t274.5 186t320.5 69.5q144 0 282 -45.5t224 -140.5l-90 -100q-74 72 -183.5 112.5t-230.5 40.5q-140 0 -271.5 -59t-227.5 -158t-154 -234.5t-58 -281.5q0 -215 130 -352t348 -137q133 0 266 51t237 139l70 -111q-102 -93 -263 -153
t-315 -60q-190 0 -331.5 80t-215 220t-73.5 319zM956 1610l33 174h133l-32 -174h-134z" />
    <glyph glyph-name="cdotaccent" unicode="&#x10b;" horiz-adv-x="1112" 
d="M70 414q0 136 53.5 257t141.5 204t202.5 131.5t234.5 48.5q108 0 209 -37.5t164 -110.5l-84 -94q-47 53 -124.5 85t-157.5 32q-92 0 -182 -38.5t-159.5 -104t-112 -161t-42.5 -202.5q0 -145 93.5 -233.5t242.5 -88.5q96 0 190 38t168 104l45 -115q-75 -69 -186 -111.5
t-223 -42.5q-211 0 -342 121t-131 318zM668 1268l32 174h134l-33 -174h-133z" />
    <glyph glyph-name="Ccaron" unicode="&#x10c;" horiz-adv-x="1472" 
d="M936 1540l-123 244h129l78 -164h4l143 164h142l-219 -244h-154zM125 594q0 175 71.5 336.5t189.5 278t274.5 186t320.5 69.5q144 0 282 -45.5t224 -140.5l-90 -100q-74 72 -183.5 112.5t-230.5 40.5q-140 0 -271.5 -59t-227.5 -158t-154 -234.5t-58 -281.5
q0 -215 130 -352t348 -137q133 0 266 51t237 139l70 -111q-102 -93 -263 -153t-315 -60q-190 0 -331.5 80t-215 220t-73.5 319z" />
    <glyph glyph-name="ccaron" unicode="&#x10d;" horiz-adv-x="1112" 
d="M647 1198l-123 244h129l78 -164h4l144 164h141l-219 -244h-154zM70 414q0 136 53.5 257t141.5 204t202.5 131.5t234.5 48.5q108 0 209 -37.5t164 -110.5l-84 -94q-47 53 -124.5 85t-157.5 32q-92 0 -182 -38.5t-159.5 -104t-112 -161t-42.5 -202.5q0 -145 93.5 -233.5
t242.5 -88.5q96 0 190 38t168 104l45 -115q-75 -69 -186 -111.5t-223 -42.5q-211 0 -342 121t-131 318z" />
    <glyph glyph-name="Dcaron" unicode="&#x10e;" horiz-adv-x="1511" 
d="M815 1540l-123 244h129l78 -164h4l144 164h141l-219 -244h-154zM88 0l281 1440h436q293 0 460 -146.5t167 -412.5q0 -180 -63.5 -341.5t-174.5 -280.5t-271.5 -189t-344.5 -70h-490zM254 127h307q206 0 371.5 98t258.5 268t93 379q0 211 -130.5 326t-360.5 115h-306z" />
    <glyph glyph-name="dcaron" unicode="&#x10f;" horiz-adv-x="1216" 
d="M1333 1438h135v-29q0 -67 -21 -123.5t-69 -132.5h-114q39 67 57 118.5t18 108.5q0 28 -6 58zM72 389q0 143 47 269t125.5 212t181 135.5t211.5 49.5q112 0 198 -53t119 -152h4q1 43 9 86l98 504h139l-278 -1440h-135l20 109q4 20 9.5 41t9.5 32l4 11h-5
q-56 -93 -154.5 -155.5t-219.5 -62.5q-184 0 -283.5 110.5t-99.5 303.5zM215 397q0 -138 69.5 -217.5t192.5 -79.5q92 0 173 48.5t134.5 125.5t84 172.5t30.5 190.5q0 128 -65 209.5t-193 81.5q-76 0 -151 -37t-136.5 -103t-100 -168.5t-38.5 -222.5z" />
    <glyph glyph-name="Dcroat" unicode="&#x110;" horiz-adv-x="1525" 
d="M102 0l129 662h-120l24 122h121l129 656h436q293 0 459 -146.5t166 -412.5q0 -180 -63 -341.5t-174 -280.5t-271.5 -189t-345.5 -70h-490zM268 127h307q206 0 371.5 98t258.5 268t93 379q0 212 -130 326.5t-361 114.5h-305l-107 -529h346l-24 -122h-344z" />
    <glyph glyph-name="dcroat" unicode="&#x111;" horiz-adv-x="1208" 
d="M72 389q0 143 47 269t125.5 212t181 135.5t211.5 49.5q112 0 198 -53t119 -152h4q1 43 9 86l43 223h-269l21 105h268l35 176h139l-35 -176h164l-20 -105h-164l-223 -1159h-135l20 109q4 20 9.5 40t9.5 31l4 10h-5q-58 -92 -155.5 -153.5t-218.5 -61.5
q-184 0 -283.5 110.5t-99.5 303.5zM215 397q0 -138 69.5 -217.5t192.5 -79.5q92 0 173 48.5t134.5 125.5t84 172.5t30.5 190.5q0 128 -65 209.5t-193 81.5q-76 0 -151 -37t-136.5 -103t-100 -168.5t-38.5 -222.5z" />
    <glyph glyph-name="Emacron" unicode="&#x112;" horiz-adv-x="1140" 
d="M88 0l281 1440h811l-27 -127h-668l-102 -525h547l-25 -126h-545l-106 -535h704l-22 -127h-848zM578 1608l20 112h504l-19 -112h-505z" />
    <glyph glyph-name="emacron" unicode="&#x113;" horiz-adv-x="1130" 
d="M72 410q0 125 45.5 242.5t123.5 206.5t190.5 142.5t238.5 53.5q185 0 279.5 -101.5t94.5 -271.5q0 -79 -28 -172h-791q-10 -55 -10 -92q0 -136 87 -226t243 -90q178 0 338 123l43 -114q-66 -55 -172 -95.5t-213 -40.5q-211 0 -340 120t-129 315zM252 621h645q6 30 6 73
q0 120 -64.5 183t-168.5 63q-134 0 -249 -84t-169 -235zM481 1266l21 112h504l-19 -112h-506z" />
    <glyph glyph-name="Ebreve" unicode="&#x114;" horiz-adv-x="1140" 
d="M88 0l281 1440h811l-27 -127h-668l-102 -525h547l-25 -126h-545l-106 -535h704l-22 -127h-848zM823 1534q-85 0 -147 46.5t-62 133.5q0 20 11 70h114q-10 -38 -10 -60q0 -49 29 -71.5t73 -22.5q55 0 99.5 37t54.5 117h115q-12 -88 -55.5 -146.5t-99 -81t-122.5 -22.5z
" />
    <glyph glyph-name="ebreve" unicode="&#x115;" horiz-adv-x="1130" 
d="M72 410q0 125 45.5 242.5t123.5 206.5t190.5 142.5t238.5 53.5q185 0 279.5 -101.5t94.5 -271.5q0 -79 -28 -172h-791q-10 -55 -10 -92q0 -136 87 -226t243 -90q178 0 338 123l43 -114q-66 -55 -172 -95.5t-213 -40.5q-211 0 -340 120t-129 315zM252 621h645q6 30 6 73
q0 120 -64.5 183t-168.5 63q-134 0 -249 -84t-169 -235zM727 1192q-85 0 -147 46.5t-62 133.5q0 25 10 70h115q-10 -38 -10 -60q0 -49 29 -71.5t73 -22.5q55 0 99.5 37t54.5 117h115q-12 -88 -55.5 -146.5t-99 -81t-122.5 -22.5z" />
    <glyph glyph-name="Edotaccent" unicode="&#x116;" horiz-adv-x="1140" 
d="M88 0l281 1440h811l-27 -127h-668l-102 -525h547l-25 -126h-545l-106 -535h704l-22 -127h-848zM764 1610l33 174h133l-33 -174h-133z" />
    <glyph glyph-name="edotaccent" unicode="&#x117;" horiz-adv-x="1130" 
d="M72 410q0 125 45.5 242.5t123.5 206.5t190.5 142.5t238.5 53.5q185 0 279.5 -101.5t94.5 -271.5q0 -79 -28 -172h-791q-10 -55 -10 -92q0 -136 87 -226t243 -90q178 0 338 123l43 -114q-66 -55 -172 -95.5t-213 -40.5q-211 0 -340 120t-129 315zM252 621h645q6 30 6 73
q0 120 -64.5 183t-168.5 63q-134 0 -249 -84t-169 -235zM668 1268l32 174h134l-33 -174h-133z" />
    <glyph glyph-name="Eogonek" unicode="&#x118;" horiz-adv-x="1140" 
d="M88 0l281 1440h811l-27 -127h-668l-102 -525h547l-25 -126h-545l-106 -535h704l-22 -127q-27 -17 -54 -38.5t-59.5 -52t-52.5 -65t-20 -65.5q0 -34 27.5 -55t54.5 -25l28 -4l-53 -115q-4 0 -11 1t-26.5 5t-38 10.5t-40.5 19.5t-37.5 29t-26.5 42t-11 57q0 71 46 130.5
t126 121.5v4h-700z" />
    <glyph glyph-name="eogonek" unicode="&#x119;" horiz-adv-x="1132" 
d="M72 410q0 125 45.5 242.5t123.5 206.5t190.5 142.5t238.5 53.5q185 0 279.5 -101.5t94.5 -271.5q0 -36 -7 -79t-14 -68l-7 -25h-789l-1 -6l-2.5 -17.5t-3 -22.5t-2.5 -25.5t-1 -24.5q0 -146 91 -229t237 -83q52 0 106 12.5t94 31t72 36.5t49 30l17 13l43 -114
q-19 -16 -67.5 -46t-97 -61t-96.5 -68t-78 -78t-30 -79q0 -21 11.5 -37.5t27.5 -25t32.5 -13.5t27.5 -7l12 -1l-54 -115q-4 0 -10.5 1t-26.5 5t-37.5 10.5t-39 19.5t-37.5 29t-26.5 42t-10.5 57q0 118 152 231v5q-221 -17 -363.5 104t-142.5 326zM252 621h645q6 36 6 75
q0 118 -64.5 180t-168.5 62q-134 0 -249 -83.5t-169 -233.5z" />
    <glyph glyph-name="Ecaron" unicode="&#x11a;" horiz-adv-x="1140" 
d="M745 1540l-122 244h129l77 -164h5l143 164h141l-219 -244h-154zM88 0l281 1440h811l-27 -127h-668l-102 -525h547l-25 -126h-545l-106 -535h704l-22 -127h-848z" />
    <glyph glyph-name="ecaron" unicode="&#x11b;" horiz-adv-x="1130" 
d="M649 1198l-123 244h129l78 -164h4l144 164h141l-219 -244h-154zM72 410q0 125 45.5 242.5t123.5 206.5t190.5 142.5t238.5 53.5q185 0 279.5 -101.5t94.5 -271.5q0 -79 -28 -172h-791q-10 -55 -10 -92q0 -136 87 -226t243 -90q178 0 338 123l43 -114q-66 -55 -172 -95.5
t-213 -40.5q-211 0 -340 120t-129 315zM252 621h645q6 30 6 73q0 120 -64.5 183t-168.5 63q-134 0 -249 -84t-169 -235z" />
    <glyph glyph-name="Gcircumflex" unicode="&#x11c;" horiz-adv-x="1552" 
d="M745 1540l220 244h153l123 -244h-129l-78 164h-4l-143 -164h-142zM121 578q0 176 71 340t188.5 283.5t276.5 191t328 71.5q141 0 273.5 -40.5t226.5 -125.5l-90 -100q-68 61 -181 97t-227 36q-192 0 -357.5 -103t-262.5 -275.5t-97 -368.5q0 -214 128 -344.5t339 -130.5
q134 0 263.5 60.5t234.5 162.5l45 229h-244l23 127h379l-133 -688h-129l20 111l14 61h-4q-8 -9 -30.5 -27.5t-70 -49t-101.5 -56.5t-130.5 -45t-152.5 -19q-264 0 -432 168t-168 435z" />
    <glyph glyph-name="gcircumflex" unicode="&#x11d;" horiz-adv-x="1189" 
d="M449 1198l219 244h153l123 -244h-129l-78 164h-4l-143 -164h-141zM78 -236q46 -29 121 -48t149 -19q103 0 188 32t148.5 106t85.5 183l21 95q3 17 8.5 38t9.5 33l4 13h-4q-126 -191 -342 -191q-182 0 -286.5 111.5t-104.5 298.5q0 88 22 177.5t67.5 172.5t108.5 147.5
t152 103t190 38.5q115 0 206 -44t122 -139h4q-2 23 2 46l23 112h135l-199 -1018q-18 -95 -58.5 -171.5t-93.5 -126t-120 -83t-135.5 -47.5t-143.5 -14q-197 0 -348 86zM219 424q0 -137 71 -215t199 -78q78 0 145.5 34.5t113.5 90.5t78.5 128t47.5 146.5t15 147.5
q0 252 -262 252q-76 0 -142.5 -29t-114.5 -79t-82.5 -114.5t-51.5 -137t-17 -146.5z" />
    <glyph glyph-name="Gbreve" unicode="&#x11e;" horiz-adv-x="1552" 
d="M121 578q0 176 71 340t188.5 283.5t276.5 191t328 71.5q141 0 273.5 -40.5t226.5 -125.5l-90 -100q-68 61 -181 97t-227 36q-192 0 -357.5 -103t-262.5 -275.5t-97 -368.5q0 -214 128 -344.5t339 -130.5q134 0 263.5 60.5t234.5 162.5l45 229h-244l23 127h379l-133 -688
h-129l20 111l14 61h-4q-8 -9 -30.5 -27.5t-70 -49t-101.5 -56.5t-130.5 -45t-152.5 -19q-264 0 -432 168t-168 435zM1004 1534q-85 0 -147 46.5t-62 133.5q0 25 10 70h115q-11 -42 -11 -60q0 -49 29.5 -71.5t73.5 -22.5q55 0 99 37t54 117h115q-12 -89 -55.5 -147
t-98.5 -80.5t-122 -22.5z" />
    <glyph glyph-name="gbreve" unicode="&#x11f;" horiz-adv-x="1189" 
d="M78 -236q46 -29 121 -48t149 -19q103 0 188 32t148.5 106t85.5 183l21 95q3 17 8.5 38t9.5 33l4 13h-4q-126 -191 -342 -191q-182 0 -286.5 111.5t-104.5 298.5q0 88 22 177.5t67.5 172.5t108.5 147.5t152 103t190 38.5q115 0 206 -44t122 -139h4q-2 23 2 46l23 112h135
l-199 -1018q-18 -95 -58.5 -171.5t-93.5 -126t-120 -83t-135.5 -47.5t-143.5 -14q-197 0 -348 86zM219 424q0 -137 71 -215t199 -78q78 0 145.5 34.5t113.5 90.5t78.5 128t47.5 146.5t15 147.5q0 252 -262 252q-76 0 -142.5 -29t-114.5 -79t-82.5 -114.5t-51.5 -137
t-17 -146.5zM707 1192q-85 0 -147 46.5t-62 133.5q0 25 10 70h115q-11 -42 -11 -60q0 -49 29.5 -71.5t73.5 -22.5q55 0 99 37t54 117h115q-12 -89 -55.5 -147t-98.5 -80.5t-122 -22.5z" />
    <glyph glyph-name="Gdotaccent" unicode="&#x120;" horiz-adv-x="1552" 
d="M121 578q0 176 71 340t188.5 283.5t276.5 191t328 71.5q141 0 273.5 -40.5t226.5 -125.5l-90 -100q-68 61 -181 97t-227 36q-192 0 -357.5 -103t-262.5 -275.5t-97 -368.5q0 -214 128 -344.5t339 -130.5q134 0 263.5 60.5t234.5 162.5l45 229h-244l23 127h379l-133 -688
h-129l20 111l14 61h-4q-8 -9 -30.5 -27.5t-70 -49t-101.5 -56.5t-130.5 -45t-152.5 -19q-264 0 -432 168t-168 435zM948 1610l33 174h133l-33 -174h-133z" />
    <glyph glyph-name="gdotaccent" unicode="&#x121;" horiz-adv-x="1189" 
d="M78 -236q46 -29 121 -48t149 -19q103 0 188 32t148.5 106t85.5 183l21 95q3 17 8.5 38t9.5 33l4 13h-4q-126 -191 -342 -191q-182 0 -286.5 111.5t-104.5 298.5q0 88 22 177.5t67.5 172.5t108.5 147.5t152 103t190 38.5q115 0 206 -44t122 -139h4q-2 23 2 46l23 112h135
l-199 -1018q-18 -95 -58.5 -171.5t-93.5 -126t-120 -83t-135.5 -47.5t-143.5 -14q-197 0 -348 86zM219 424q0 -137 71 -215t199 -78q78 0 145.5 34.5t113.5 90.5t78.5 128t47.5 146.5t15 147.5q0 252 -262 252q-76 0 -142.5 -29t-114.5 -79t-82.5 -114.5t-51.5 -137
t-17 -146.5zM651 1268l33 174h133l-33 -174h-133z" />
    <glyph glyph-name="Gcommaaccent" unicode="&#x122;" horiz-adv-x="1552" 
d="M610 -129h135v-29q0 -67 -21 -123.5t-69 -132.5h-114q39 67 57 119t18 109q0 27 -6 57zM121 578q0 176 71 340t188.5 283.5t276.5 191t328 71.5q141 0 273.5 -40.5t226.5 -125.5l-90 -100q-68 61 -181 97t-227 36q-192 0 -357.5 -103t-262.5 -275.5t-97 -368.5
q0 -214 128 -344.5t339 -130.5q134 0 263.5 60.5t234.5 162.5l45 229h-244l23 127h379l-133 -688h-129l20 111l14 61h-4q-8 -9 -30.5 -27.5t-70 -49t-101.5 -56.5t-130.5 -45t-152.5 -19q-264 0 -432 168t-168 435z" />
    <glyph glyph-name="gcommaaccent" unicode="&#x123;" horiz-adv-x="1189" 
d="M760 1157h-135v27q0 67 21 123.5t69 132.5h114q-39 -67 -57 -119t-18 -109q0 -28 6 -55zM78 -236q46 -29 121 -48t149 -19q103 0 188 32t148.5 106t85.5 183l21 95q3 17 8.5 38t9.5 33l4 13h-4q-126 -191 -342 -191q-182 0 -286.5 111.5t-104.5 298.5q0 88 22 177.5
t67.5 172.5t108.5 147.5t152 103t190 38.5q115 0 206 -44t122 -139h4q-2 23 2 46l23 112h135l-199 -1018q-18 -95 -58.5 -171.5t-93.5 -126t-120 -83t-135.5 -47.5t-143.5 -14q-197 0 -348 86zM219 424q0 -137 71 -215t199 -78q78 0 145.5 34.5t113.5 90.5t78.5 128
t47.5 146.5t15 147.5q0 252 -262 252q-76 0 -142.5 -29t-114.5 -79t-82.5 -114.5t-51.5 -137t-17 -146.5z" />
    <glyph glyph-name="Hcircumflex" unicode="&#x124;" horiz-adv-x="1529" 
d="M696 1540l219 244h154l123 -244h-129l-78 164h-4l-143 -164h-142zM88 0l281 1440h143l-129 -656h836l127 656h141l-281 -1440h-143l129 657h-834l-129 -657h-141z" />
    <glyph glyph-name="hcircumflex" unicode="&#x125;" horiz-adv-x="1214" 
d="M170 1540l219 244h154l123 -244h-129l-78 164h-4l-144 -164h-141zM49 0l281 1440h139l-107 -557l-26 -92h4q22 42 63 85.5t98 85t133.5 67.5t156.5 26q142 0 218 -68t76 -199q0 -57 -16 -135l-125 -653h-139l119 616q16 94 16 138q0 85 -47.5 127.5t-130.5 42.5
q-168 0 -306.5 -132.5t-174.5 -314.5l-93 -477h-139z" />
    <glyph glyph-name="Hbar" unicode="&#x126;" horiz-adv-x="1556" 
d="M104 0l205 1049h-131l21 108h131l55 283h141l-55 -283h836l53 283h143l-55 -283h131l-20 -108h-134l-204 -1049h-142l129 657h-835l-127 -657h-142zM399 784h834l51 265h-833z" />
    <glyph glyph-name="hbar" unicode="&#x127;" horiz-adv-x="1214" 
d="M49 0l225 1159h-155l20 105h156l35 176h139l-35 -176h275l-21 -105h-274l-52 -276l-26 -92h4q22 42 63 85.5t98 85t133.5 67.5t156.5 26q142 0 218 -68t76 -199q0 -57 -16 -135l-125 -653h-139l119 616q16 94 16 138q0 85 -47.5 127.5t-130.5 42.5q-168 0 -306.5 -132.5
t-174.5 -314.5l-93 -477h-139z" />
    <glyph glyph-name="Itilde" unicode="&#x128;" horiz-adv-x="552" 
d="M88 0l281 1440h143l-283 -1440h-141zM154 1546q44 238 217 238q36 0 65 -15t47 -36.5t34.5 -43t36 -36.5t42.5 -15q77 0 104 140h111q-24 -120 -76.5 -179t-142.5 -59q-43 0 -77 23t-52 50t-43.5 50t-54.5 23q-27 0 -49.5 -25t-34 -54.5t-17.5 -60.5h-110z" />
    <glyph glyph-name="itilde" unicode="&#x129;" horiz-adv-x="471" 
d="M49 0l201 1030h139l-201 -1030h-139zM47 1204q44 238 217 238q36 0 65 -15t47 -36.5t34.5 -43t36 -36.5t42.5 -15q31 0 55 26t34 53.5t16 60.5h111q-24 -120 -77 -179t-143 -59q-36 0 -64.5 15t-46.5 36t-34.5 42.5t-37 36.5t-44.5 15q-39 0 -64.5 -43.5t-35.5 -95.5
h-111z" />
    <glyph glyph-name="Imacron" unicode="&#x12a;" horiz-adv-x="552" 
d="M88 0l281 1440h143l-283 -1440h-141zM219 1608l21 112h503l-18 -112h-506z" />
    <glyph glyph-name="imacron" unicode="&#x12b;" horiz-adv-x="471" 
d="M49 0l201 1030h139l-201 -1030h-139zM113 1266l20 112h504l-19 -112h-505z" />
    <glyph glyph-name="Ibreve" unicode="&#x12c;" horiz-adv-x="552" 
d="M88 0l281 1440h143l-283 -1440h-141zM465 1534q-85 0 -147 46.5t-62 133.5q0 25 10 70h115q-10 -38 -10 -60q0 -49 29 -71.5t73 -22.5q55 0 99.5 37t54.5 117h114q-12 -89 -55.5 -147t-98.5 -80.5t-122 -22.5z" />
    <glyph glyph-name="ibreve" unicode="&#x12d;" horiz-adv-x="471" 
d="M49 0l201 1030h139l-201 -1030h-139zM358 1192q-85 0 -146.5 46.5t-61.5 133.5q0 25 10 70h114q-10 -38 -10 -60q0 -49 29.5 -71.5t73.5 -22.5q55 0 99 37t54 117h115q-12 -88 -55.5 -146.5t-99 -81t-122.5 -22.5z" />
    <glyph glyph-name="Iogonek" unicode="&#x12e;" horiz-adv-x="557" 
d="M-96 -256q0 77 50 139.5t134 122.5l281 1434h143l-283 -1438l2 -2q-194 -128 -194 -221q0 -34 27 -55t54 -25l27 -4l-53 -115q-4 0 -10.5 1t-26.5 5t-37.5 10.5t-39 19.5t-37.5 29t-26.5 42t-10.5 57z" />
    <glyph glyph-name="iogonek" unicode="&#x12f;" horiz-adv-x="471" 
d="M-139 -256q0 78 52 142t138 124l199 1020h141l-203 -1030q-194 -128 -194 -221q0 -34 27 -55t54 -25l27 -4l-53 -115q-4 0 -10.5 1t-26.5 5t-37.5 10.5t-39 19.5t-37.5 29t-26.5 42t-10.5 57zM291 1266l35 174h149l-35 -174h-149z" />
    <glyph glyph-name="Idotaccent" unicode="&#x130;" horiz-adv-x="552" 
d="M88 0l281 1440h143l-283 -1440h-141zM408 1610l32 174h133l-32 -174h-133z" />
    <glyph glyph-name="dotlessi" unicode="&#x131;" horiz-adv-x="471" 
d="M49 0l201 1030h139l-201 -1030h-139z" />
    <glyph glyph-name="IJ" unicode="&#x132;" horiz-adv-x="1189" 
d="M436 -10l25 131q299 0 368 346l189 973h141l-188 -973q-23 -117 -65 -204t-92 -138.5t-115.5 -82.5t-127 -41.5t-135.5 -10.5zM88 0l281 1440h143l-283 -1440h-141z" />
    <glyph glyph-name="ij" unicode="&#x133;" horiz-adv-x="944" 
d="M291 1266l35 174h149l-35 -174h-149zM49 0l201 1030h141l-203 -1030h-139zM760 1266l33 174h151l-35 -174h-149zM514 -33l207 1063h139l-207 -1067q-19 -98 -58.5 -171.5t-82.5 -113t-96.5 -63.5t-92.5 -30.5t-79 -6.5q-44 0 -84 6l24 123q16 -4 45 -4q28 0 55.5 4.5
t65 21t67.5 43.5t57 77.5t40 117.5z" />
    <glyph glyph-name="Jcircumflex" unicode="&#x134;" horiz-adv-x="1058" 
d="M543 1540l219 244h153l123 -244h-129l-78 164h-4l-143 -164h-141zM10 301q0 34 13 107l8 53h143l-10 -51q-8 -62 -8 -88q0 -213 211 -213q51 0 98.5 15.5t92.5 48t79 92t49 138.5l174 910h-348l25 127h491l-205 -1051q-21 -110 -69 -192.5t-111.5 -129.5t-133 -69.5
t-144.5 -22.5q-72 0 -134.5 19t-112.5 57t-79 102t-29 148z" />
    <glyph glyph-name="jcircumflex" unicode="&#x135;" horiz-adv-x="473" 
d="M92 1196l221 244h154l123 -244h-129l-78 166h-4l-143 -166h-144zM43 -33l207 1063h141l-209 -1067q-19 -98 -57.5 -171.5t-81.5 -113t-96.5 -63.5t-93 -30.5t-80.5 -6.5q-22 0 -42.5 1.5t-30.5 2.5l-9 2l24 123q16 -4 45 -4q28 0 55.5 4.5t64.5 21t67 43.5t56.5 77.5
t39.5 117.5z" />
    <glyph glyph-name="Kcommaaccent" unicode="&#x136;" horiz-adv-x="1208" 
d="M430 -129h135v-29q0 -67 -21 -123.5t-69 -132.5h-115q40 68 58 119.5t18 108.5q0 27 -6 57zM88 0l281 1440h143l-123 -625h234l518 625h168l-572 -686v-4l314 -750h-154l-281 688h-251l-136 -688h-141z" />
    <glyph glyph-name="kcommaaccent" unicode="&#x137;" horiz-adv-x="1013" 
d="M346 -129h135v-29q0 -67 -21 -123.5t-69 -132.5h-115q40 68 58 119.5t18 108.5q0 27 -6 57zM49 0l283 1440h139l-158 -803h158l387 393h176l-448 -452v-5l278 -573h-151l-246 514h-176l-103 -514h-139z" />
    <glyph glyph-name="kgreenlandic" unicode="&#x138;" horiz-adv-x="1015" 
d="M49 0l201 1030h139l-82 -422h162l408 422h178l-475 -485v-4l266 -541h-156l-229 487h-176l-97 -487h-139z" />
    <glyph glyph-name="Lacute" unicode="&#x139;" horiz-adv-x="1040" 
d="M393 1540l191 244h172l-228 -244h-135zM88 0l281 1440h143l-258 -1313h668l-27 -127h-807z" />
    <glyph glyph-name="lacute" unicode="&#x13a;" horiz-adv-x="514" 
d="M344 1540l191 244h172l-228 -244h-135zM90 182q0 35 8 74l230 1184h141l-227 -1166q-6 -35 -6 -63q0 -31 8.5 -50.5t24 -28t29.5 -11t34 -2.5q14 0 28 2l-26 -125q-16 -4 -47 -4q-34 0 -65 7.5t-62.5 26.5t-50.5 59t-19 97z" />
    <glyph glyph-name="Lcommaaccent" unicode="&#x13b;" horiz-adv-x="1040" 
d="M418 -129h135v-29q0 -67 -21 -123.5t-69 -132.5h-115q40 68 58 119.5t18 108.5q0 27 -6 57zM88 0l281 1440h143l-258 -1313h668l-27 -127h-807z" />
    <glyph glyph-name="lcommaaccent" unicode="&#x13c;" horiz-adv-x="514" 
d="M100 -129h136v-29q0 -66 -21.5 -122.5t-69.5 -133.5h-114q39 67 57 119t18 109q0 27 -6 57zM90 182q0 35 8 74l230 1184h141l-227 -1166q-6 -35 -6 -63q0 -31 8.5 -50.5t24 -28t29.5 -11t34 -2.5q14 0 28 2l-26 -125q-16 -4 -47 -4q-34 0 -65 7.5t-62.5 26.5t-50.5 59
t-19 97z" />
    <glyph glyph-name="Lcaron" unicode="&#x13d;" horiz-adv-x="1040" 
d="M700 1438h136v-29q0 -66 -21.5 -122.5t-69.5 -133.5h-114q40 68 58 119t18 108q0 23 -7 58zM88 0l281 1440h143l-258 -1313h668l-27 -127h-807z" />
    <glyph glyph-name="lcaron" unicode="&#x13e;" horiz-adv-x="522" 
d="M594 1438h135v-29q0 -67 -21 -123.5t-69 -132.5h-115q40 68 58 119t18 108q0 28 -6 58zM90 182q0 35 8 74l230 1184h141l-227 -1166q-6 -35 -6 -63q0 -31 8.5 -50.5t24 -28t29.5 -11t34 -2.5q14 0 28 2l-26 -125q-16 -4 -47 -4q-34 0 -65 7.5t-62.5 26.5t-50.5 59t-19 97
z" />
    <glyph glyph-name="Ldot" unicode="&#x13f;" horiz-adv-x="1042" 
d="M88 0l281 1440h143l-258 -1313h668l-27 -127h-807zM573 674l31 170h166l-33 -170h-164z" />
    <glyph glyph-name="ldot" unicode="&#x140;" horiz-adv-x="587" 
d="M90 182q0 35 8 74l230 1184h141l-227 -1166q-6 -35 -6 -63q0 -31 8.5 -50.5t24 -28t29.5 -11t34 -2.5q14 0 28 2l-26 -125q-16 -4 -47 -4q-34 0 -65 7.5t-62.5 26.5t-50.5 59t-19 97zM459 674l30 170h166l-32 -170h-164z" />
    <glyph glyph-name="Lslash" unicode="&#x141;" horiz-adv-x="1054" 
d="M102 0l136 690l-142 -72l27 144l143 76l119 602h141l-102 -520l254 131l-27 -146l-256 -133l-125 -645h666l-25 -127h-809z" />
    <glyph glyph-name="lslash" unicode="&#x142;" horiz-adv-x="540" 
d="M113 182q0 16 8 74l90 463l-180 -92l26 143l183 96l112 574h140l-97 -494l201 105l-31 -146l-198 -104l-101 -527q-8 -31 -8 -63q0 -31 8.5 -50.5t24 -28t29.5 -11t34 -2.5q17 0 31 2l-27 -125q-20 -4 -47 -4t-51.5 4t-52.5 17t-48 33t-33 55t-13 81z" />
    <glyph glyph-name="Nacute" unicode="&#x143;" horiz-adv-x="1523" 
d="M877 1540l190 244h172l-227 -244h-135zM88 0l281 1440h127l534 -1037q16 -32 36 -80.5t32 -80.5l12 -33h4q9 118 25 194l200 1037h144l-283 -1440h-125l-534 1036q-16 32 -36 81t-32 81l-12 33h-4q-11 -119 -25 -195l-203 -1036h-141z" />
    <glyph glyph-name="nacute" unicode="&#x144;" horiz-adv-x="1214" 
d="M680 1198l190 244h172l-227 -244h-135zM49 0l201 1030h137l-27 -147q-4 -21 -11 -45t-12 -38l-5 -14h4q21 42 62 86.5t98.5 86.5t135.5 69t159 27q142 0 218 -68t76 -199q0 -57 -16 -135l-125 -653h-139l119 616q16 94 16 138q0 85 -47.5 127.5t-130.5 42.5
q-84 0 -165.5 -36.5t-144.5 -97.5t-108.5 -142.5t-62.5 -170.5l-93 -477h-139z" />
    <glyph glyph-name="Ncommaaccent" unicode="&#x145;" horiz-adv-x="1523" 
d="M561 -129h135v-29q0 -67 -21 -123.5t-69 -132.5h-114q39 67 57 119t18 109q0 27 -6 57zM88 0l281 1440h127l534 -1037q16 -32 36 -80.5t32 -80.5l12 -33h4q9 118 25 194l200 1037h144l-283 -1440h-125l-534 1036q-16 32 -36 81t-32 81l-12 33h-4q-11 -119 -25 -195
l-203 -1036h-141z" />
    <glyph glyph-name="ncommaaccent" unicode="&#x146;" horiz-adv-x="1214" 
d="M422 -129h135v-29q0 -67 -21 -123.5t-69 -132.5h-115q40 68 58 119.5t18 108.5q0 27 -6 57zM49 0l201 1030h137l-27 -147q-4 -21 -11 -45t-12 -38l-5 -14h4q21 42 62 86.5t98.5 86.5t135.5 69t159 27q142 0 218 -68t76 -199q0 -57 -16 -135l-125 -653h-139l119 616
q16 94 16 138q0 85 -47.5 127.5t-130.5 42.5q-84 0 -165.5 -36.5t-144.5 -97.5t-108.5 -142.5t-62.5 -170.5l-93 -477h-139z" />
    <glyph glyph-name="Ncaron" unicode="&#x147;" horiz-adv-x="1523" 
d="M879 1540l-123 244h129l78 -164h4l143 164h141l-219 -244h-153zM88 0l281 1440h127l534 -1037q16 -32 36 -80.5t32 -80.5l12 -33h4q9 118 25 194l200 1037h144l-283 -1440h-125l-534 1036q-16 32 -36 81t-32 81l-12 33h-4q-11 -119 -25 -195l-203 -1036h-141z" />
    <glyph glyph-name="ncaron" unicode="&#x148;" horiz-adv-x="1214" 
d="M682 1198l-123 244h129l78 -164h4l143 164h142l-219 -244h-154zM49 0l201 1030h137l-27 -147q-4 -21 -11 -45t-12 -38l-5 -14h4q21 42 62 86.5t98.5 86.5t135.5 69t159 27q142 0 218 -68t76 -199q0 -57 -16 -135l-125 -653h-139l119 616q16 94 16 138q0 85 -47.5 127.5
t-130.5 42.5q-84 0 -165.5 -36.5t-144.5 -97.5t-108.5 -142.5t-62.5 -170.5l-93 -477h-139z" />
    <glyph glyph-name="napostrophe" unicode="&#x149;" horiz-adv-x="1214" 
d="M201 1438h135v-29q0 -67 -21 -123.5t-69 -132.5h-115q40 68 58 119t18 108q0 28 -6 58zM49 0l201 1030h137l-27 -147q-4 -21 -11 -45t-12 -38l-5 -14h4q21 42 62 86.5t98.5 86.5t135.5 69t159 27q142 0 218 -68t76 -199q0 -57 -16 -135l-125 -653h-139l119 616
q16 94 16 138q0 85 -47.5 127.5t-130.5 42.5q-84 0 -165.5 -36.5t-144.5 -97.5t-108.5 -142.5t-62.5 -170.5l-93 -477h-139z" />
    <glyph glyph-name="Eng" unicode="&#x14a;" horiz-adv-x="1523" 
d="M88 0l281 1440h127l534 -1037q16 -32 36 -80.5t32 -80.5l12 -33h4q9 118 25 194l200 1037h144l-273 -1383q-23 -119 -65.5 -207t-92 -139t-115.5 -81.5t-125.5 -40t-133.5 -9.5l24 131q284 0 361 312l-522 1013q-16 32 -36 81t-32 81l-12 33h-4q-11 -119 -25 -195
l-203 -1036h-141z" />
    <glyph glyph-name="eng" unicode="&#x14b;" horiz-adv-x="1214" 
d="M49 0l201 1030h137l-27 -147q-4 -21 -11 -45t-12 -38l-5 -14h4q21 42 62 86.5t98.5 86.5t135.5 69t159 27q142 0 218 -68t76 -199q0 -57 -16 -135l-135 -698q-19 -98 -58 -171.5t-82 -113t-96.5 -63.5t-93 -30.5t-80.5 -6.5q-22 0 -42.5 1.5t-29.5 2.5l-10 2l25 121
q18 -2 45 -2q28 0 55.5 4.5t65 21t67.5 43.5t57 77.5t40 117.5l127 657q16 94 16 138q0 85 -47.5 127.5t-130.5 42.5q-84 0 -165.5 -36.5t-144.5 -97.5t-108.5 -142.5t-62.5 -170.5l-93 -477h-139z" />
    <glyph glyph-name="Omacron" unicode="&#x14c;" horiz-adv-x="1689" 
d="M784 1608l21 112h504l-19 -112h-506zM123 598q0 171 74 332.5t193.5 277.5t277 186t319.5 70q279 0 453 -170t174 -436q0 -174 -74.5 -338.5t-194.5 -283t-277.5 -190t-317.5 -71.5q-279 0 -453 175t-174 448zM270 602q0 -217 133.5 -355t346.5 -138q132 0 262 59.5
t230 158.5t162 237.5t62 287.5q0 211 -133.5 345t-345.5 134q-134 0 -264.5 -58t-230 -155t-161 -233.5t-61.5 -282.5z" />
    <glyph glyph-name="omacron" unicode="&#x14d;" horiz-adv-x="1277" 
d="M514 1266l21 112h503l-18 -112h-506zM70 426q0 128 53.5 246t141.5 201t203 132.5t234 49.5q210 0 341 -124.5t131 -320.5q0 -130 -54.5 -249t-143 -202.5t-203 -133.5t-232.5 -50q-209 0 -340 126t-131 325zM213 430q0 -145 92 -236.5t238 -91.5q121 0 232.5 65.5
t183 182.5t71.5 254q0 143 -92 234.5t-238 91.5q-122 0 -234 -66t-182.5 -182.5t-70.5 -251.5z" />
    <glyph glyph-name="Obreve" unicode="&#x14e;" horiz-adv-x="1689" 
d="M123 598q0 171 74 332.5t193.5 277.5t277 186t319.5 70q279 0 453 -170t174 -436q0 -174 -74.5 -338.5t-194.5 -283t-277.5 -190t-317.5 -71.5q-279 0 -453 175t-174 448zM270 602q0 -217 133.5 -355t346.5 -138q132 0 262 59.5t230 158.5t162 237.5t62 287.5
q0 211 -133.5 345t-345.5 134q-134 0 -264.5 -58t-230 -155t-161 -233.5t-61.5 -282.5zM1032 1534q-85 0 -147 46.5t-62 133.5q0 20 11 70h114q-10 -38 -10 -60q0 -49 29 -71.5t73 -22.5q55 0 99.5 37t54.5 117h115q-12 -88 -55.5 -146.5t-99 -81t-122.5 -22.5z" />
    <glyph glyph-name="obreve" unicode="&#x14f;" horiz-adv-x="1277" 
d="M70 426q0 128 53.5 246t141.5 201t203 132.5t234 49.5q210 0 341 -124.5t131 -320.5q0 -130 -54.5 -249t-143 -202.5t-203 -133.5t-232.5 -50q-209 0 -340 126t-131 325zM213 430q0 -145 92 -236.5t238 -91.5q121 0 232.5 65.5t183 182.5t71.5 254q0 143 -92 234.5
t-238 91.5q-122 0 -234 -66t-182.5 -182.5t-70.5 -251.5zM760 1192q-85 0 -147 46.5t-62 133.5q0 25 10 70h115q-10 -38 -10 -60q0 -49 29 -71.5t73 -22.5q55 0 99.5 37t54.5 117h114q-12 -89 -55.5 -147t-98.5 -80.5t-122 -22.5z" />
    <glyph glyph-name="Ohungarumlaut" unicode="&#x150;" horiz-adv-x="1689" 
d="M1063 1540l190 244h168l-225 -244h-133zM788 1540l183 244h147l-186 -244h-144zM123 598q0 171 74 332.5t193.5 277.5t277 186t319.5 70q279 0 453 -170t174 -436q0 -174 -74.5 -338.5t-194.5 -283t-277.5 -190t-317.5 -71.5q-279 0 -453 175t-174 448zM270 602
q0 -217 133.5 -355t346.5 -138q132 0 262 59.5t230 158.5t162 237.5t62 287.5q0 211 -133.5 345t-345.5 134q-134 0 -264.5 -58t-230 -155t-161 -233.5t-61.5 -282.5z" />
    <glyph glyph-name="ohungarumlaut" unicode="&#x151;" horiz-adv-x="1277" 
d="M791 1198l190 244h168l-225 -244h-133zM516 1198l182 244h148l-187 -244h-143zM70 426q0 128 53.5 246t141.5 201t203 132.5t234 49.5q210 0 341 -124.5t131 -320.5q0 -130 -54.5 -249t-143 -202.5t-203 -133.5t-232.5 -50q-209 0 -340 126t-131 325zM213 430
q0 -145 92 -236.5t238 -91.5q121 0 232.5 65.5t183 182.5t71.5 254q0 143 -92 234.5t-238 91.5q-122 0 -234 -66t-182.5 -182.5t-70.5 -251.5z" />
    <glyph glyph-name="OE" unicode="&#x152;" horiz-adv-x="1927" 
d="M123 588q0 173 70.5 334t187.5 278t275.5 187.5t326.5 70.5q49 0 142.5 -9t129.5 -9h711l-27 -127h-667l-103 -525h547l-24 -126h-549l-103 -535h707l-25 -127h-725q-29 0 -115.5 -10t-131.5 -10q-141 0 -259 45.5t-198.5 125.5t-125 192.5t-44.5 244.5zM268 582
q0 -209 131 -340t353 -131q67 0 147 16l231 1186q-80 16 -143 16q-192 0 -358 -101t-263.5 -273.5t-97.5 -372.5z" />
    <glyph glyph-name="oe" unicode="&#x153;" horiz-adv-x="2072" 
d="M70 426q0 128 53.5 246t141.5 201t203 132.5t234 49.5q155 0 266 -75.5t158 -203.5h4q81 128 206.5 203.5t275.5 75.5q187 0 282 -101.5t95 -271.5q0 -90 -31 -172h-791q-8 -41 -8 -102q4 -145 95 -225.5t235 -80.5q169 0 336 123l43 -114q-67 -56 -176.5 -96t-208.5 -40
q-160 0 -274.5 75t-157.5 208h-4q-87 -130 -223 -206.5t-283 -76.5q-209 0 -340 126t-131 325zM1194 621h645q6 20 6 75q0 118 -64.5 180t-168.5 62q-134 0 -249 -83.5t-169 -233.5zM213 430q0 -145 92 -236.5t238 -91.5q121 0 232.5 65.5t183 182.5t71.5 254
q0 143 -92 234.5t-238 91.5q-122 0 -234 -66t-182.5 -182.5t-70.5 -251.5z" />
    <glyph glyph-name="Racute" unicode="&#x154;" horiz-adv-x="1257" 
d="M731 1540l191 244h172l-228 -244h-135zM90 0l279 1440h473q125 0 202 -39q79 -39 123.5 -115t44.5 -176q0 -170 -101 -301t-261 -168v-4q8 -18 22 -59l205 -578h-151l-209 606h-369l-117 -606h-141zM373 733h336q150 0 254 101t104 262q0 103 -64 160t-178 57h-340z" />
    <glyph glyph-name="racute" unicode="&#x155;" horiz-adv-x="731" 
d="M483 1198l191 244h172l-228 -244h-135zM49 0l201 1030h135l-35 -182l-24 -90h4q57 120 157 201t220 81q27 0 61 -6l-29 -137q-32 4 -49 4q-64 0 -125 -32.5t-108.5 -85t-87.5 -120.5t-66 -138.5t-39 -139.5l-76 -385h-139z" />
    <glyph glyph-name="Rcommaaccent" unicode="&#x156;" horiz-adv-x="1257" 
d="M469 -129h135v-29q0 -67 -21 -123.5t-69 -132.5h-115q40 68 58 119.5t18 108.5q0 27 -6 57zM90 0l279 1440h473q125 0 202 -39q79 -39 123.5 -115t44.5 -176q0 -170 -101 -301t-261 -168v-4q8 -18 22 -59l205 -578h-151l-209 606h-369l-117 -606h-141zM373 733h336
q150 0 254 101t104 262q0 103 -64 160t-178 57h-340z" />
    <glyph glyph-name="rcommaaccent" unicode="&#x157;" horiz-adv-x="731" 
d="M41 -129h135v-29q0 -67 -21 -123.5t-69 -132.5h-115q40 68 58 119.5t18 108.5q0 27 -6 57zM49 0l201 1030h135l-35 -182l-24 -90h4q57 120 157 201t220 81q27 0 61 -6l-29 -137q-32 4 -49 4q-64 0 -125 -32.5t-108.5 -85t-87.5 -120.5t-66 -138.5t-39 -139.5l-76 -385
h-139z" />
    <glyph glyph-name="Rcaron" unicode="&#x158;" horiz-adv-x="1257" 
d="M733 1540l-123 244h129l78 -164h4l144 164h141l-219 -244h-154zM90 0l279 1440h473q125 0 202 -39q79 -39 123.5 -115t44.5 -176q0 -170 -101 -301t-261 -168v-4q8 -18 22 -59l205 -578h-151l-209 606h-369l-117 -606h-141zM373 733h336q150 0 254 101t104 262
q0 103 -64 160t-178 57h-340z" />
    <glyph glyph-name="rcaron" unicode="&#x159;" horiz-adv-x="731" 
d="M485 1198l-123 244h130l77 -164h4l144 164h141l-219 -244h-154zM49 0l201 1030h135l-35 -182l-24 -90h4q57 120 157 201t220 81q27 0 61 -6l-29 -137q-32 4 -49 4q-64 0 -125 -32.5t-108.5 -85t-87.5 -120.5t-66 -138.5t-39 -139.5l-76 -385h-139z" />
    <glyph glyph-name="Sacute" unicode="&#x15a;" horiz-adv-x="1099" 
d="M659 1540l191 244h172l-227 -244h-136zM16 160l95 100q1 -1 11 -10.5l20 -19t29.5 -24t39 -26.5t48 -25.5t58 -22.5t66.5 -15t76 -6q91 0 169.5 31t129.5 96.5t51 152.5q0 66 -33 117.5t-85 86.5t-115.5 66.5t-127 66t-115.5 76t-85 106.5t-33 147q0 125 72.5 219.5
t184.5 141t241 46.5q231 0 385 -143l-84 -107q-1 0 -11.5 9t-23 18t-32.5 22t-44.5 24t-53 21t-64 15.5t-72.5 5.5q-63 0 -124.5 -17.5t-113 -50t-83.5 -85t-32 -115.5q0 -61 33 -109t85 -81.5t115.5 -64.5t127 -66.5t115.5 -79t85 -111t33 -152.5q0 -184 -140 -303
t-353 -119q-74 0 -145 17t-118 39t-90 52t-60.5 46t-31.5 31z" />
    <glyph glyph-name="sacute" unicode="&#x15b;" horiz-adv-x="897" 
d="M492 1198l190 244h172l-227 -244h-135zM-8 123l78 98q47 -55 125 -88t163 -33q102 0 175 46t73 130q0 45 -25.5 79t-66.5 57.5t-90 44.5t-98.5 46t-90.5 56.5t-66.5 81.5t-25.5 115q0 94 56 163.5t143 102.5t190 33q91 0 173.5 -29.5t138.5 -85.5l-74 -98q-88 88 -242 88
q-63 0 -117 -16.5t-92 -57t-38 -98.5q0 -45 25.5 -79t66 -57t90 -44t99 -46t90 -56t66 -81t25.5 -114q0 -135 -109.5 -220.5t-275.5 -85.5q-103 0 -201.5 38t-164.5 110z" />
    <glyph glyph-name="Scircumflex" unicode="&#x15c;" horiz-adv-x="1099" 
d="M475 1540l219 244h154l123 -244h-129l-78 164h-4l-144 -164h-141zM16 160l95 100q1 -1 11 -10.5l20 -19t29.5 -24t39 -26.5t48 -25.5t58 -22.5t66.5 -15t76 -6q91 0 169.5 31t129.5 96.5t51 152.5q0 66 -33 117.5t-85 86.5t-115.5 66.5t-127 66t-115.5 76t-85 106.5
t-33 147q0 125 72.5 219.5t184.5 141t241 46.5q231 0 385 -143l-84 -107q-1 0 -11.5 9t-23 18t-32.5 22t-44.5 24t-53 21t-64 15.5t-72.5 5.5q-63 0 -124.5 -17.5t-113 -50t-83.5 -85t-32 -115.5q0 -61 33 -109t85 -81.5t115.5 -64.5t127 -66.5t115.5 -79t85 -111t33 -152.5
q0 -184 -140 -303t-353 -119q-74 0 -145 17t-118 39t-90 52t-60.5 46t-31.5 31z" />
    <glyph glyph-name="scircumflex" unicode="&#x15d;" horiz-adv-x="897" 
d="M309 1198l219 244h154l123 -244h-129l-78 164h-4l-143 -164h-142zM-8 123l78 98q47 -55 125 -88t163 -33q102 0 175 46t73 130q0 45 -25.5 79t-66.5 57.5t-90 44.5t-98.5 46t-90.5 56.5t-66.5 81.5t-25.5 115q0 94 56 163.5t143 102.5t190 33q91 0 173.5 -29.5
t138.5 -85.5l-74 -98q-88 88 -242 88q-63 0 -117 -16.5t-92 -57t-38 -98.5q0 -45 25.5 -79t66 -57t90 -44t99 -46t90 -56t66 -81t25.5 -114q0 -135 -109.5 -220.5t-275.5 -85.5q-103 0 -201.5 38t-164.5 110z" />
    <glyph glyph-name="Scedilla" unicode="&#x15e;" horiz-adv-x="1101" 
d="M317 -186l72 166q-76 9 -145.5 34t-115.5 56.5t-71.5 52.5t-38.5 37l95 100q1 -1 11 -10.5l20 -19t29.5 -24t39 -26.5t48 -25.5t58 -22.5t66.5 -15t76 -6q91 0 169.5 31t129.5 96.5t51 152.5q0 66 -33 117.5t-85 86.5t-115.5 66.5t-127 66t-115.5 76t-85 106.5t-33 147
q0 125 72.5 219.5t184.5 141t241 46.5q231 0 385 -143l-84 -107q-1 0 -11.5 9t-23 18t-32.5 22t-44.5 24t-53 21t-64 15.5t-72.5 5.5q-63 0 -124.5 -17.5t-113 -50t-83.5 -85t-32 -115.5q0 -61 33 -109t85 -81.5t115.5 -64.5t127 -66.5t115.5 -79t85 -111t33 -152.5
q0 -181 -135.5 -299t-343.5 -123l-35 -88q50 -8 85.5 -42.5t35.5 -90.5q0 -86 -68 -130t-153 -44q-67 0 -111 12l21 95q29 -11 82 -11q47 0 83 18.5t36 61.5q0 28 -28 44t-77 16q-19 0 -31 -2z" />
    <glyph glyph-name="scedilla" unicode="&#x15f;" horiz-adv-x="899" 
d="M215 -186l72 166q-184 23 -295 143l78 98q47 -55 125 -88t163 -33q102 0 175 46t73 130q0 45 -25.5 79t-66.5 57.5t-90 44.5t-98.5 46t-90.5 56.5t-66.5 81.5t-25.5 115q0 94 56 163.5t143 102.5t190 33q91 0 173.5 -29.5t138.5 -85.5l-74 -98q-88 88 -242 88
q-63 0 -117 -16.5t-92 -57t-38 -98.5q0 -45 25.5 -79t66 -57t90 -44t99 -46t90 -56t66 -81t25.5 -114q0 -132 -104 -216.5t-264 -89.5l-35 -88q50 -8 85.5 -42.5t35.5 -90.5q0 -86 -68 -130t-153 -44q-67 0 -111 12l21 95q29 -11 81 -11q47 0 83 18.5t36 61.5q0 28 -27.5 44
t-76.5 16q-19 0 -31 -2z" />
    <glyph glyph-name="Scaron" unicode="&#x160;" horiz-adv-x="1099" 
d="M659 1540l-122 244h129l77 -164h5l143 164h141l-219 -244h-154zM16 160l95 100q1 -1 11 -10.5l20 -19t29.5 -24t39 -26.5t48 -25.5t58 -22.5t66.5 -15t76 -6q91 0 169.5 31t129.5 96.5t51 152.5q0 66 -33 117.5t-85 86.5t-115.5 66.5t-127 66t-115.5 76t-85 106.5
t-33 147q0 125 72.5 219.5t184.5 141t241 46.5q231 0 385 -143l-84 -107q-1 0 -11.5 9t-23 18t-32.5 22t-44.5 24t-53 21t-64 15.5t-72.5 5.5q-63 0 -124.5 -17.5t-113 -50t-83.5 -85t-32 -115.5q0 -61 33 -109t85 -81.5t115.5 -64.5t127 -66.5t115.5 -79t85 -111t33 -152.5
q0 -184 -140 -303t-353 -119q-74 0 -145 17t-118 39t-90 52t-60.5 46t-31.5 31z" />
    <glyph glyph-name="scaron" unicode="&#x161;" horiz-adv-x="897" 
d="M494 1198l-123 244h129l78 -164h4l143 164h141l-219 -244h-153zM-8 123l78 98q47 -55 125 -88t163 -33q102 0 175 46t73 130q0 45 -25.5 79t-66.5 57.5t-90 44.5t-98.5 46t-90.5 56.5t-66.5 81.5t-25.5 115q0 94 56 163.5t143 102.5t190 33q91 0 173.5 -29.5t138.5 -85.5
l-74 -98q-88 88 -242 88q-63 0 -117 -16.5t-92 -57t-38 -98.5q0 -45 25.5 -79t66 -57t90 -44t99 -46t90 -56t66 -81t25.5 -114q0 -135 -109.5 -220.5t-275.5 -85.5q-103 0 -201.5 38t-164.5 110z" />
    <glyph glyph-name="Tcommaaccent" unicode="&#x162;" horiz-adv-x="1234" 
d="M426 0l256 1313h-516l24 127h1174l-23 -127h-518l-254 -1313h-28l-45 -113q50 -8 85 -42.5t35 -90.5q0 -86 -68 -130t-153 -44q-66 0 -110 12l20 95q29 -11 82 -11q47 0 83 18.5t36 61.5q0 28 -28 44t-77 16q-18 0 -30 -2l80 186h-25z" />
    <glyph glyph-name="tcommaaccent" unicode="&#x163;" horiz-adv-x="653" 
d="M176 -186l92 215q-125 68 -125 254q0 42 13 112l98 510h-135l22 117h138l57 293h137l-59 -293h260l-23 -117h-258l-98 -512q-10 -44 -10 -92q0 -47 11.5 -81.5t28.5 -53.5t41.5 -30.5t46.5 -15t48 -3.5q23 0 59 4l-24 -125q-20 -4 -54 -4q-52 0 -96 8l-45 -113
q50 -8 85.5 -42.5t35.5 -90.5q0 -86 -68 -130t-153 -44q-67 0 -111 12l21 95q29 -11 82 -11q47 0 82.5 18.5t35.5 61.5q0 28 -27.5 44t-76.5 16q-19 0 -31 -2z" />
    <glyph glyph-name="Tcaron" unicode="&#x164;" horiz-adv-x="1234" 
d="M723 1540l-123 244h129l78 -164h4l143 164h142l-219 -244h-154zM426 0l256 1313h-516l24 127h1174l-23 -127h-518l-254 -1313h-143z" />
    <glyph glyph-name="tcaron" unicode="&#x165;" horiz-adv-x="653" 
d="M651 1438h135v-29q0 -65 -21 -121.5t-69 -132.5h-114q39 67 57 118t18 107q0 28 -6 58zM143 283q0 42 13 112l98 510h-135l22 117h138l57 293h137l-59 -293h260l-23 -117h-258l-98 -512q-10 -44 -10 -92q0 -47 11.5 -81.5t28.5 -53.5t41.5 -30.5t46.5 -15t48 -3.5
q23 0 59 4l-24 -125q-20 -4 -54 -4q-57 0 -104 11.5t-94 41t-74 90t-27 148.5z" />
    <glyph glyph-name="Tbar" unicode="&#x166;" horiz-adv-x="1257" 
d="M438 0l129 664h-331l24 116h330l104 533h-516l25 127h1173l-22 -127h-518l-105 -533h340l-22 -116h-340l-129 -664h-142z" />
    <glyph glyph-name="tbar" unicode="&#x167;" horiz-adv-x="661" 
d="M147 283q0 42 13 112l33 174h-134l19 109h135l45 227h-135l22 117h138l57 293h137l-59 -293h260l-23 -117h-258l-45 -227h260l-20 -109h-260q-43 -219 -43 -270q0 -182 176 -182l59 4l-24 -125q-25 -4 -54 -4q-57 0 -104 11.5t-94 41t-74 90t-27 148.5z" />
    <glyph glyph-name="Utilde" unicode="&#x168;" horiz-adv-x="1480" 
d="M160 393q0 55 12 117l182 930h142l-181 -934q-10 -41 -10 -96q0 -143 89.5 -222t252.5 -79q186 0 317 106t169 295l182 930h141l-186 -948q-47 -239 -216 -378t-411 -139q-220 0 -351.5 111t-131.5 307zM616 1546q44 238 218 238q36 0 65 -15t47 -36.5t34.5 -43t36 -36.5
t42.5 -15q77 0 104 140h111q-24 -120 -76.5 -179t-142.5 -59q-36 0 -64.5 15t-47 36.5t-35 43t-37 36.5t-44.5 15q-39 0 -64.5 -44t-35.5 -96h-111z" />
    <glyph glyph-name="utilde" unicode="&#x169;" horiz-adv-x="1204" 
d="M96 242q0 41 15 137l127 651h139l-119 -612q-16 -85 -16 -142q0 -80 41.5 -125t140.5 -45q111 0 212.5 66.5t166.5 169t86 215.5l92 473h139l-198 -1030h-138l29 147q4 21 10.5 45t11.5 38l5 14h-4q-24 -42 -63 -85.5t-95 -86.5t-133 -70t-160 -27q-61 0 -111.5 14.5
t-91 45t-63.5 83.5t-23 124zM406 1204q44 238 217 238q36 0 65 -15t47 -36.5t34.5 -43t36 -36.5t42.5 -15q77 0 104 140h111q-24 -120 -76.5 -179t-142.5 -59q-36 0 -64.5 15t-47 36t-35 42.5t-37 36.5t-44.5 15q-39 0 -64.5 -43.5t-35.5 -95.5h-110z" />
    <glyph glyph-name="Umacron" unicode="&#x16a;" horiz-adv-x="1480" 
d="M160 393q0 55 12 117l182 930h142l-181 -934q-10 -41 -10 -96q0 -143 89.5 -222t252.5 -79q186 0 317 106t169 295l182 930h141l-186 -948q-47 -239 -216 -378t-411 -139q-220 0 -351.5 111t-131.5 307zM682 1608l20 112h504l-18 -112h-506z" />
    <glyph glyph-name="umacron" unicode="&#x16b;" horiz-adv-x="1204" 
d="M96 242q0 41 15 137l127 651h139l-119 -612q-16 -85 -16 -142q0 -80 41.5 -125t140.5 -45q111 0 212.5 66.5t166.5 169t86 215.5l92 473h139l-198 -1030h-138l29 147q4 21 10.5 45t11.5 38l5 14h-4q-24 -42 -63 -85.5t-95 -86.5t-133 -70t-160 -27q-61 0 -111.5 14.5
t-91 45t-63.5 83.5t-23 124zM471 1266l21 112h503l-18 -112h-506z" />
    <glyph glyph-name="Ubreve" unicode="&#x16c;" horiz-adv-x="1480" 
d="M160 393q0 55 12 117l182 930h142l-181 -934q-10 -41 -10 -96q0 -143 89.5 -222t252.5 -79q186 0 317 106t169 295l182 930h141l-186 -948q-47 -239 -216 -378t-411 -139q-220 0 -351.5 111t-131.5 307zM930 1534q-85 0 -147 46.5t-62 133.5q0 25 10 70h115
q-10 -38 -10 -60q0 -49 29 -71.5t73 -22.5q55 0 99.5 37t54.5 117h114q-12 -89 -55.5 -147t-98.5 -80.5t-122 -22.5z" />
    <glyph glyph-name="ubreve" unicode="&#x16d;" horiz-adv-x="1204" 
d="M96 242q0 41 15 137l127 651h139l-119 -612q-16 -85 -16 -142q0 -80 41.5 -125t140.5 -45q111 0 212.5 66.5t166.5 169t86 215.5l92 473h139l-198 -1030h-138l29 147q4 21 10.5 45t11.5 38l5 14h-4q-24 -42 -63 -85.5t-95 -86.5t-133 -70t-160 -27q-61 0 -111.5 14.5
t-91 45t-63.5 83.5t-23 124zM717 1192q-85 0 -147 46.5t-62 133.5q0 25 10 70h115q-10 -38 -10 -60q0 -49 29 -71.5t73 -22.5q55 0 99.5 37t54.5 117h114q-12 -89 -55.5 -147t-98.5 -80.5t-122 -22.5z" />
    <glyph glyph-name="Uring" unicode="&#x16e;" horiz-adv-x="1480" 
d="M930 1520q-65 0 -103.5 33t-38.5 92q0 67 52 115t118 48q67 0 105.5 -34t38.5 -95q0 -66 -53 -112.5t-119 -46.5zM934 1595q33 0 56.5 24.5t23.5 59.5q0 23 -15.5 38.5t-40.5 15.5q-33 0 -57 -25t-24 -61q0 -24 15 -38t42 -14zM160 393q0 55 12 117l182 930h142
l-181 -934q-10 -41 -10 -96q0 -143 89.5 -222t252.5 -79q186 0 317 106t169 295l182 930h141l-186 -948q-47 -239 -216 -378t-411 -139q-220 0 -351.5 111t-131.5 307z" />
    <glyph glyph-name="uring" unicode="&#x16f;" horiz-adv-x="1204" 
d="M717 1178q-65 0 -103.5 33t-38.5 92q0 67 52 115t118 48q67 0 105.5 -34t38.5 -95q0 -66 -53 -112.5t-119 -46.5zM721 1253q33 0 56.5 24.5t23.5 59.5q0 23 -15.5 38.5t-40.5 15.5q-33 0 -57 -25t-24 -61q0 -24 15 -38t42 -14zM96 242q0 41 15 137l127 651h139l-119 -612
q-16 -85 -16 -142q0 -80 41.5 -125t140.5 -45q111 0 212.5 66.5t166.5 169t86 215.5l92 473h139l-198 -1030h-138l29 147q4 21 10.5 45t11.5 38l5 14h-4q-24 -42 -63 -85.5t-95 -86.5t-133 -70t-160 -27q-61 0 -111.5 14.5t-91 45t-63.5 83.5t-23 124z" />
    <glyph glyph-name="Uhungarumlaut" unicode="&#x170;" horiz-adv-x="1480" 
d="M160 393q0 55 12 117l182 930h142l-181 -934q-10 -41 -10 -96q0 -143 89.5 -222t252.5 -79q186 0 317 106t169 295l182 930h141l-186 -948q-47 -239 -216 -378t-411 -139q-220 0 -351.5 111t-131.5 307zM961 1540l190 244h168l-225 -244h-133zM686 1540l182 244h148
l-187 -244h-143z" />
    <glyph glyph-name="uhungarumlaut" unicode="&#x171;" horiz-adv-x="1204" 
d="M96 242q0 41 15 137l127 651h139l-119 -612q-16 -85 -16 -142q0 -80 41.5 -125t140.5 -45q111 0 212.5 66.5t166.5 169t86 215.5l92 473h139l-198 -1030h-138l29 147q4 21 10.5 45t11.5 38l5 14h-4q-24 -42 -63 -85.5t-95 -86.5t-133 -70t-160 -27q-61 0 -111.5 14.5
t-91 45t-63.5 83.5t-23 124zM748 1198l190 244h168l-225 -244h-133zM473 1198l182 244h148l-187 -244h-143z" />
    <glyph glyph-name="Uogonek" unicode="&#x172;" horiz-adv-x="1480" 
d="M160 393q0 55 12 117l182 930h142l-183 -934q-8 -44 -8 -96q0 -143 89.5 -222t250.5 -79q188 0 319 106t169 295l182 930h141l-188 -948q-58 -306 -342 -457q-256 -138 -256 -256q0 -34 27.5 -55t54.5 -25l28 -4l-51 -115q-4 0 -11 1t-26.5 5t-37.5 10.5t-40 19.5
t-37.5 29t-26.5 42t-11 57q0 116 141 229v4q-99 -6 -190 15.5t-165.5 70t-119.5 134t-45 196.5z" />
    <glyph glyph-name="uogonek" unicode="&#x173;" horiz-adv-x="1204" 
d="M96 242q0 41 15 137l127 651h139l-119 -612q-16 -85 -16 -142q0 -80 41.5 -125t140.5 -45q111 0 212.5 66.5t166.5 169t86 215.5l92 473h139l-198 -1030q-195 -129 -195 -221q0 -34 27.5 -55t54.5 -25l27 -4l-54 -115q-4 0 -11 1t-26.5 5t-37.5 10.5t-40 19.5t-37.5 29
t-26.5 42t-11 57q0 79 53 143t141 125l27 135q4 21 10.5 45t11.5 38l5 14h-4q-24 -42 -63 -85.5t-95 -86.5t-133 -70t-160 -27q-61 0 -111.5 14.5t-91 45t-63.5 83.5t-23 124z" />
    <glyph glyph-name="Wcircumflex" unicode="&#x174;" horiz-adv-x="1892" 
d="M881 1540l219 244h153l123 -244h-129l-78 164h-4l-143 -164h-141zM324 0l-99 1440h146l63 -1118l2 -154h4q33 78 68 154l536 1118h142l74 -1118l2 -154h4q30 82 61 154l498 1118h155l-653 -1440h-172l-70 1014q-4 57 -5 135.5t1 79.5h-4q-51 -121 -94 -213l-491 -1016
h-168z" />
    <glyph glyph-name="wcircumflex" unicode="&#x175;" horiz-adv-x="1685" 
d="M692 1198l219 244h154l123 -244h-129l-78 164h-4l-143 -164h-142zM285 0l-148 1030h142l98 -772q4 -23 6.5 -50.5t2.5 -43.5l1 -17h4q26 60 53 111l402 768h139l102 -768l11 -111h4q24 60 51 111l401 772h152l-549 -1030h-151l-111 739l-8 111h-4q-29 -60 -56 -111
l-389 -739h-153z" />
    <glyph glyph-name="Ycircumflex" unicode="&#x176;" horiz-adv-x="1185" 
d="M393 0l121 618l-324 822h154l201 -522l57 -173h4q64 92 121 170l403 525h173l-648 -826l-120 -614h-142zM508 1540l219 244h154l123 -244h-130l-77 164h-4l-144 -164h-141z" />
    <glyph glyph-name="ycircumflex" unicode="&#x177;" horiz-adv-x="1083" 
d="M-80 -264q44 -41 115 -41q125 0 229 166l92 149l-231 1020h145l160 -770l16 -108h3q28 57 57 106l446 772h158l-754 -1249q-60 -101 -142.5 -156t-174.5 -55q-105 0 -191 61zM397 1198l219 244h154l123 -244h-129l-78 164h-4l-143 -164h-142z" />
    <glyph glyph-name="Ydieresis" unicode="&#x178;" horiz-adv-x="1185" 
d="M393 0l121 618l-324 822h154l201 -522l57 -173h4q64 92 121 170l403 525h173l-648 -826l-120 -614h-142zM868 1608l35 176h127l-35 -176h-127zM559 1608l33 176h127l-33 -176h-127z" />
    <glyph glyph-name="Zacute" unicode="&#x179;" horiz-adv-x="1177" 
d="M723 1540l190 244h172l-227 -244h-135zM-47 0l20 100l940 1082q30 35 62 67.5t49 48.5l16 15v4q-32 -4 -102 -4h-692l26 127h979l-18 -101l-944 -1081q-30 -35 -62.5 -67.5t-49.5 -48.5l-17 -15v-4q34 4 104 4h737l-24 -127h-1024z" />
    <glyph glyph-name="zacute" unicode="&#x17a;" horiz-adv-x="1011" 
d="M547 1198l190 244h172l-227 -244h-135zM-41 0l16 90l707 723q22 23 45.5 45.5t37.5 35.5t15 13v4q-32 -4 -100 -4h-522l22 123h821l-18 -92l-709 -721q-24 -24 -48.5 -47t-39 -35.5t-14.5 -11.5v-4q36 4 104 4h568l-23 -123h-862z" />
    <glyph glyph-name="Zdotaccent" unicode="&#x17b;" horiz-adv-x="1177" 
d="M-47 0l20 100l940 1082q30 35 62 67.5t49 48.5l16 15v4q-32 -4 -102 -4h-692l26 127h979l-18 -101l-944 -1081q-30 -35 -62.5 -67.5t-49.5 -48.5l-17 -15v-4q34 4 104 4h737l-24 -127h-1024zM743 1610l33 174h133l-32 -174h-134z" />
    <glyph glyph-name="zdotaccent" unicode="&#x17c;" horiz-adv-x="1011" 
d="M-41 0l16 90l707 723q22 23 45.5 45.5t37.5 35.5t15 13v4q-32 -4 -100 -4h-522l22 123h821l-18 -92l-709 -721q-24 -24 -48.5 -47t-39 -35.5t-14.5 -11.5v-4q36 4 104 4h568l-23 -123h-862zM567 1268l33 174h133l-33 -174h-133z" />
    <glyph glyph-name="Zcaron" unicode="&#x17d;" horiz-adv-x="1177" 
d="M723 1540l-123 244h129l78 -164h4l143 164h142l-219 -244h-154zM-47 0l20 100l940 1082q30 35 62 67.5t49 48.5l16 15v4q-32 -4 -102 -4h-692l26 127h979l-18 -101l-944 -1081q-30 -35 -62.5 -67.5t-49.5 -48.5l-17 -15v-4q34 4 104 4h737l-24 -127h-1024z" />
    <glyph glyph-name="zcaron" unicode="&#x17e;" horiz-adv-x="1011" 
d="M547 1198l-123 244h129l78 -164h4l143 164h142l-220 -244h-153zM-41 0l16 90l707 723q22 23 45.5 45.5t37.5 35.5t15 13v4q-32 -4 -100 -4h-522l22 123h821l-18 -92l-709 -721q-24 -24 -48.5 -47t-39 -35.5t-14.5 -11.5v-4q36 4 104 4h568l-23 -123h-862z" />
    <glyph glyph-name="longs" unicode="&#x17f;" horiz-adv-x="552" 
d="M88 0l176 905h-129l23 117h129l10 49q14 70 38.5 127.5t54 96t66 67.5t70 45.5t70.5 26.5t64 13t53 3q21 0 39.5 -1.5t27.5 -2.5l8 -2l-26 -123q-16 4 -47 4q-28 0 -55 -4.5t-64 -20.5t-66 -42.5t-55.5 -76t-38.5 -114.5l-207 -1067h-141z" />
    <glyph glyph-name="florin" unicode="&#x192;" horiz-adv-x="1163" 
d="M-61 -82q49 -10 124 -10q29 0 56.5 4.5t65.5 21t70 43.5t62.5 77t49.5 116l163 578h-182l23 116h192l68 234q26 94 70.5 164t90 107t100.5 60t94.5 29t80.5 6q90 0 188 -16l-24 -121q-82 14 -162 14q-30 0 -58 -5t-65 -21.5t-68.5 -43.5t-62 -77t-49.5 -117l-61 -213h256
l-23 -116h-266l-172 -605q-19 -67 -48 -122t-59.5 -91.5t-68 -64t-70.5 -43t-70 -24.5t-64 -12t-54 -3q-70 0 -152 14z" />
    <glyph glyph-name="Scommaaccent" unicode="&#x218;" horiz-adv-x="1099" 
d="M334 -129h135v-29q0 -67 -21 -123.5t-69 -132.5h-115q40 68 58 119.5t18 108.5q0 27 -6 57zM16 160l95 100q1 -1 11 -10.5l20 -19t29.5 -24t39 -26.5t48 -25.5t58 -22.5t66.5 -15t76 -6q91 0 169.5 31t129.5 96.5t51 152.5q0 66 -33 117.5t-85 86.5t-115.5 66.5t-127 66
t-115.5 76t-85 106.5t-33 147q0 125 72.5 219.5t184.5 141t241 46.5q231 0 385 -143l-84 -107q-1 0 -11.5 9t-23 18t-32.5 22t-44.5 24t-53 21t-64 15.5t-72.5 5.5q-63 0 -124.5 -17.5t-113 -50t-83.5 -85t-32 -115.5q0 -61 33 -109t85 -81.5t115.5 -64.5t127 -66.5
t115.5 -79t85 -111t33 -152.5q0 -184 -140 -303t-353 -119q-74 0 -145 17t-118 39t-90 52t-60.5 46t-31.5 31z" />
    <glyph glyph-name="scommaaccent" unicode="&#x219;" horiz-adv-x="897" 
d="M252 -129h135v-29q0 -67 -21 -123.5t-69 -132.5h-115q40 68 58 119.5t18 108.5q0 27 -6 57zM-8 123l78 98q47 -55 125 -88t163 -33q102 0 175 46t73 130q0 45 -25.5 79t-66.5 57.5t-90 44.5t-98.5 46t-90.5 56.5t-66.5 81.5t-25.5 115q0 94 56 163.5t143 102.5t190 33
q91 0 173.5 -29.5t138.5 -85.5l-74 -98q-88 88 -242 88q-63 0 -117 -16.5t-92 -57t-38 -98.5q0 -45 25.5 -79t66 -57t90 -44t99 -46t90 -56t66 -81t25.5 -114q0 -135 -109.5 -220.5t-275.5 -85.5q-103 0 -201.5 38t-164.5 110z" />
    <glyph glyph-name="uni021A" unicode="&#x21a;" horiz-adv-x="1234" 
d="M401 -129h136v-29q0 -66 -21.5 -122.5t-69.5 -133.5h-114q40 68 58 119.5t18 108.5q0 22 -7 57zM426 0l256 1313h-516l24 127h1174l-23 -127h-518l-254 -1313h-143z" />
    <glyph glyph-name="uni021B" unicode="&#x21b;" horiz-adv-x="653" 
d="M240 -129h135v-29q0 -67 -21 -123.5t-69 -132.5h-115q40 68 58 119.5t18 108.5q0 27 -6 57zM143 283q0 42 13 112l98 510h-135l22 117h138l57 293h137l-59 -293h260l-23 -117h-258l-98 -512q-10 -44 -10 -92q0 -47 11.5 -81.5t28.5 -53.5t41.5 -30.5t46.5 -15t48 -3.5
q23 0 59 4l-24 -125q-20 -4 -54 -4q-57 0 -104 11.5t-94 41t-74 90t-27 148.5z" />
    <glyph glyph-name="circumflex" unicode="&#x2c6;" horiz-adv-x="1032" 
d="M125 1540l219 244h154l123 -244h-129l-78 164h-4l-144 -164h-141z" />
    <glyph glyph-name="caron" unicode="&#x2c7;" horiz-adv-x="1032" 
d="M309 1540l-123 244h129l78 -164h4l144 164h141l-219 -244h-154z" />
    <glyph glyph-name="breve" unicode="&#x2d8;" horiz-adv-x="1034" 
d="M385 1534q-85 0 -147 46.5t-62 133.5q0 25 10 70h115q-10 -38 -10 -60q0 -49 29 -71.5t73 -22.5q55 0 99.5 37t54.5 117h115q-12 -88 -55.5 -146.5t-99 -81t-122.5 -22.5z" />
    <glyph glyph-name="dotaccent" unicode="&#x2d9;" horiz-adv-x="1034" 
d="M330 1610l32 174h134l-33 -174h-133z" />
    <glyph glyph-name="ring" unicode="&#x2da;" horiz-adv-x="1034" 
d="M387 1520q-65 0 -103 33t-38 92q0 67 52 115t118 48q67 0 105 -34t38 -95q0 -66 -53 -112.5t-119 -46.5zM391 1595q33 0 56.5 24.5t23.5 59.5q0 23 -15.5 38.5t-39.5 15.5q-33 0 -57.5 -25t-24.5 -61q0 -24 15 -38t42 -14z" />
    <glyph glyph-name="ogonek" unicode="&#x2db;" horiz-adv-x="1032" 
d="M238 -256q0 48 21 92.5t61 83.5t75.5 66t85.5 59l107 -27q-9 -5 -23.5 -14.5t-52 -37.5t-66 -55.5t-52 -64t-23.5 -67.5q0 -34 27 -55t54 -25l27 -4l-53 -115q-4 0 -10.5 1t-26.5 5t-37.5 10.5t-39 19.5t-37.5 29t-26.5 42t-10.5 57z" />
    <glyph glyph-name="tilde" unicode="&#x2dc;" horiz-adv-x="1032" 
d="M74 1546q44 238 217 238q36 0 65 -15t47 -36.5t34.5 -43t36 -36.5t42.5 -15q31 0 55 26t34 53.5t16 60.5h110q-24 -120 -76.5 -179t-142.5 -59q-43 0 -77 23t-52 50t-43.5 50t-54.5 23q-27 0 -49.5 -25t-34 -54.5t-17.5 -60.5h-110z" />
    <glyph glyph-name="hungarumlaut" unicode="&#x2dd;" horiz-adv-x="1032" 
d="M362 1540l191 244h168l-225 -244h-134zM88 1540l182 244h148l-187 -244h-143z" />
    <glyph glyph-name="uni0400" unicode="&#x400;" horiz-adv-x="1142" 
d="M88 0l281 1440h811l-27 -127h-668l-102 -525h547l-25 -126h-545l-106 -535h704l-22 -127h-848zM784 1540l-129 244h152l96 -244h-119z" />
    <glyph glyph-name="uni0401" unicode="&#x401;" horiz-adv-x="1142" 
d="M920 1608l34 176h127l-34 -176h-127zM610 1608l33 176h127l-33 -176h-127zM88 0l281 1440h811l-27 -127h-668l-102 -525h547l-25 -126h-545l-106 -535h704l-22 -127h-848z" />
    <glyph glyph-name="uni0402" unicode="&#x402;" horiz-adv-x="1476" 
d="M317 0l256 1313h-411l26 127h1039l-25 -127h-487l-92 -469l-15 -62h4q196 88 385 88q185 0 284 -96.5t99 -265.5q0 -101 -37 -196.5t-104.5 -170.5t-170.5 -120.5t-226 -45.5q-18 0 -58 3.5t-49 3.5l23 122q33 -6 82 -6q173 0 284 117t111 281q0 243 -274 243
q-194 0 -379 -100l-123 -639h-142z" />
    <glyph glyph-name="uni0403" unicode="&#x403;" horiz-adv-x="999" 
d="M670 1540l190 244h172l-227 -244h-135zM88 0l281 1440h757l-24 -127h-617l-256 -1313h-141z" />
    <glyph glyph-name="uni0404" unicode="&#x404;" horiz-adv-x="1466" 
d="M123 590q0 165 68.5 324t183.5 280t277.5 195.5t340.5 74.5q144 0 275 -46.5t215 -137.5l-84 -104q-74 74 -183.5 115.5t-232.5 41.5q-119 0 -232 -43.5t-202 -118.5t-155 -175.5t-97 -213.5h817l-24 -123h-816q-4 -25 -4 -73q0 -220 132.5 -350t347.5 -130
q133 0 265.5 52.5t237.5 142.5l66 -108q-111 -97 -270.5 -157.5t-317.5 -60.5q-183 0 -322.5 81.5t-212.5 220.5t-73 313z" />
    <glyph glyph-name="uni0405" unicode="&#x405;" horiz-adv-x="1099" 
d="M16 160l95 100q1 -1 11 -10.5l20 -19t29.5 -24t39 -26.5t48 -25.5t58 -22.5t66.5 -15t76 -6q91 0 169.5 31t129.5 96.5t51 152.5q0 66 -33 117.5t-85 86.5t-115.5 66.5t-127 66t-115.5 76t-85 106.5t-33 147q0 125 72.5 219.5t184.5 141t241 46.5q231 0 385 -143
l-84 -107q-1 0 -11.5 9t-23 18t-32.5 22t-44.5 24t-53 21t-64 15.5t-72.5 5.5q-63 0 -124.5 -17.5t-113 -50t-83.5 -85t-32 -115.5q0 -61 33 -109t85 -81.5t115.5 -64.5t127 -66.5t115.5 -79t85 -111t33 -152.5q0 -184 -140 -303t-353 -119q-74 0 -145 17t-118 39t-90 52
t-60.5 46t-31.5 31z" />
    <glyph glyph-name="uni0406" unicode="&#x406;" horiz-adv-x="552" 
d="M88 0l281 1440h143l-283 -1440h-141z" />
    <glyph glyph-name="uni0407" unicode="&#x407;" horiz-adv-x="552" 
d="M88 0l281 1440h143l-283 -1440h-141zM565 1608l35 176h127l-35 -176h-127zM256 1608l33 176h127l-33 -176h-127z" />
    <glyph glyph-name="uni0408" unicode="&#x408;" horiz-adv-x="1058" 
d="M10 301q0 34 13 107l8 53h143l-10 -51q-8 -62 -8 -88q0 -213 211 -213q51 0 98.5 15.5t92.5 48t79 92t49 138.5l174 910h-348l25 127h491l-205 -1051q-21 -110 -69 -192.5t-111.5 -129.5t-133 -69.5t-144.5 -22.5q-72 0 -134.5 19t-112.5 57t-79 102t-29 148z" />
    <glyph glyph-name="uni0409" unicode="&#x409;" horiz-adv-x="1923" 
d="M-70 -14l27 133q97 12 176 82t142.5 200t114 301.5t97.5 407.5l64 330h735l-121 -615h275q177 0 283 -93t106 -255q0 -94 -38.5 -181.5t-105 -152.5t-162 -104t-204.5 -39h-457l256 1313h-448l-39 -199q-30 -148 -58 -265t-65.5 -236.5t-77.5 -209t-92.5 -169.5
t-112 -131.5t-134.5 -82.5t-161 -34zM1028 127h283q155 0 263.5 98.5t108.5 243.5q0 112 -70.5 170.5t-189.5 58.5h-282z" />
    <glyph glyph-name="uni040A" unicode="&#x40a;" horiz-adv-x="2035" 
d="M88 0l281 1440h143l-123 -619h746l120 619h142l-121 -617h276q175 0 282.5 -93t107.5 -255q0 -94 -38.5 -180.5t-105.5 -151.5t-163 -104t-205 -39h-455l135 694h-745l-136 -694h-141zM1141 127h282q154 0 262.5 98t108.5 242q0 112 -70.5 170.5t-189.5 58.5h-281z" />
    <glyph glyph-name="uni040B" unicode="&#x40b;" horiz-adv-x="1464" 
d="M315 0l258 1313h-411l26 127h1037l-25 -127h-485l-94 -475l-19 -70h4q74 39 183.5 70.5t222.5 31.5q166 0 251 -78t85 -214q0 -54 -13 -127l-88 -451h-143l86 432q12 74 12 107q0 100 -55.5 150t-173.5 50q-109 0 -219 -35t-174 -77l-123 -627h-142z" />
    <glyph glyph-name="uni040C" unicode="&#x40c;" horiz-adv-x="1210" 
d="M737 1540l191 244h172l-228 -244h-135zM88 0l281 1440h143l-123 -625h234l518 625h168l-572 -686v-4l314 -750h-154l-281 688h-251l-136 -688h-141z" />
    <glyph glyph-name="uni040D" unicode="&#x40d;" horiz-adv-x="1538" 
d="M88 0l281 1440h143l-201 -1030q-7 -34 -19.5 -81.5t-21.5 -78.5l-8 -31h4q101 127 164 199l928 1022h137l-283 -1440h-141l201 1030q6 34 18 81.5t20 78.5l9 31h-4q-95 -123 -158 -195l-932 -1026h-137zM907 1540l-129 244h152l96 -244h-119z" />
    <glyph glyph-name="uni040E" unicode="&#x40e;" horiz-adv-x="1204" 
d="M59 66l78 106q75 -70 160 -70q65 0 111.5 47t107.5 150l-350 1141h147l242 -803l47 -191h4q54 103 103 189l454 805h160l-705 -1213q-70 -120 -149 -186t-180 -66q-112 0 -230 91zM776 1507q-103 0 -173.5 55t-70.5 144q0 27 13 78h119q-9 -35 -9 -60q0 -53 35.5 -82.5
t91.5 -29.5q68 0 121 42t64 130h118q-11 -77 -42 -133.5t-75 -86.5t-91.5 -43.5t-100.5 -13.5z" />
    <glyph glyph-name="uni040F" unicode="&#x40f;" horiz-adv-x="1480" 
d="M90 0l279 1440h143l-256 -1313h784l256 1313h142l-279 -1440h-469l-55 -287h-133l55 287h-467z" />
    <glyph glyph-name="uni0410" unicode="&#x410;" horiz-adv-x="1298" 
d="M-63 0l802 1440h156l248 -1440h-144l-75 459h-580l-254 -459h-153zM408 582h495l-86 522l-22 188h-4q-54 -120 -91 -188z" />
    <glyph glyph-name="uni0411" unicode="&#x411;" horiz-adv-x="1216" 
d="M88 0l281 1440h817l-27 -127h-674l-92 -471h318q174 0 278.5 -89t104.5 -253q0 -143 -68.5 -259t-180 -178.5t-239.5 -62.5h-518zM254 127h338q147 0 250.5 99.5t103.5 265.5q0 105 -66 164t-178 59h-333z" />
    <glyph glyph-name="uni0412" unicode="&#x412;" horiz-adv-x="1261" 
d="M88 0l281 1440h462q100 0 173 -27q87 -32 134.5 -103.5t47.5 -172.5q0 -131 -69 -231t-181 -146v-4q81 -28 129.5 -103.5t48.5 -179.5q0 -153 -78.5 -267t-206.5 -167q-91 -39 -202 -39h-539zM389 815h348q124 0 213.5 88.5t89.5 220.5q0 88 -53 138.5t-153 50.5h-349z
M254 127h369q84 0 149 29q89 41 142 124t53 193q0 101 -63.5 160t-172.5 59h-366z" />
    <glyph glyph-name="uni0413" unicode="&#x413;" horiz-adv-x="999" 
d="M88 0l281 1440h757l-24 -127h-617l-256 -1313h-141z" />
    <glyph glyph-name="uni0414" unicode="&#x414;" horiz-adv-x="1441" 
d="M240 127h721l229 1186h-514l-31 -158q-41 -258 -148 -545.5t-257 -482.5zM-156 -287l82 414h150q117 140 210.5 332t144.5 362.5t79 337.5l53 281h793l-254 -1313h160l-80 -414h-133l57 287h-1069l-57 -287h-136z" />
    <glyph glyph-name="uni0415" unicode="&#x415;" horiz-adv-x="1142" 
d="M88 0l281 1440h811l-27 -127h-668l-102 -525h547l-25 -126h-545l-106 -535h704l-22 -127h-848z" />
    <glyph glyph-name="uni0416" unicode="&#x416;" horiz-adv-x="1773" 
d="M-72 0l602 762v4l-301 674h154l272 -625h203l123 625h141l-123 -625h193l500 625h176l-559 -686v-4l305 -750h-154l-276 688h-209l-135 -688h-142l136 688h-193l-543 -688h-170z" />
    <glyph glyph-name="uni0417" unicode="&#x417;" horiz-adv-x="1093" 
d="M-14 164l88 96q48 -66 128.5 -110t192.5 -44q168 0 287 98t119 247q0 114 -73 170.5t-193 56.5h-189l25 123h151q87 0 168 38t134 111t53 162q0 97 -63.5 159t-188.5 62q-172 0 -330 -116l-59 106q190 141 393 141q188 0 292.5 -87.5t104.5 -243.5q0 -139 -79.5 -237.5
t-209.5 -143.5v-4q98 -31 154.5 -104t56.5 -189q0 -137 -75.5 -248.5t-198.5 -171.5t-266 -60q-124 0 -238.5 48t-183.5 141z" />
    <glyph glyph-name="uni0418" unicode="&#x418;" horiz-adv-x="1538" 
d="M88 0l281 1440h143l-201 -1030q-7 -34 -19.5 -81.5t-21.5 -78.5l-8 -31h4q101 127 164 199l928 1022h137l-283 -1440h-141l201 1030q6 34 18 81.5t20 78.5l9 31h-4q-95 -123 -158 -195l-932 -1026h-137z" />
    <glyph glyph-name="uni0419" unicode="&#x419;" horiz-adv-x="1538" 
d="M954 1507q-102 0 -172.5 55t-70.5 144q0 31 12 78h119q-8 -31 -8 -60q0 -53 35.5 -82.5t91.5 -29.5q68 0 120.5 42t63.5 130h119q-11 -77 -42 -133.5t-75.5 -86.5t-92 -43.5t-100.5 -13.5zM88 0l281 1440h143l-201 -1030q-7 -34 -19.5 -81.5t-21.5 -78.5l-8 -31h4
q101 127 164 199l928 1022h137l-283 -1440h-141l201 1030q6 34 18 81.5t20 78.5l9 31h-4q-95 -123 -158 -195l-932 -1026h-137z" />
    <glyph glyph-name="uni041A" unicode="&#x41a;" horiz-adv-x="1210" 
d="M88 0l281 1440h143l-123 -625h234l518 625h168l-572 -686v-4l314 -750h-154l-281 688h-251l-136 -688h-141z" />
    <glyph glyph-name="uni041B" unicode="&#x41b;" horiz-adv-x="1357" 
d="M1034 0h-143l258 1313h-512l-41 -209q-34 -173 -70 -311t-81.5 -266.5t-99.5 -222t-119.5 -165.5t-147.5 -110.5t-178 -44.5l26 133q94 13 173.5 83.5t144 198.5t116.5 301t97 404l67 336h791z" />
    <glyph glyph-name="uni041C" unicode="&#x41c;" horiz-adv-x="1728" 
d="M33 0l397 1440h141l213 -846l35 -176h4q58 100 105 176l542 846h152l-166 -1440h-141l119 1008l34 200h-4q-67 -126 -114 -200l-484 -740h-133l-194 740q-8 32 -17.5 83t-15.5 86l-6 35h-4q-21 -126 -41 -204l-279 -1008h-143z" />
    <glyph glyph-name="uni041D" unicode="&#x41d;" horiz-adv-x="1529" 
d="M88 0l281 1440h143l-129 -656h836l127 656h141l-281 -1440h-143l129 657h-834l-129 -657h-141z" />
    <glyph glyph-name="uni041E" unicode="&#x41e;" horiz-adv-x="1689" 
d="M123 598q0 171 74 332.5t193.5 277.5t277 186t319.5 70q279 0 453 -170t174 -436q0 -174 -74.5 -338.5t-194.5 -283t-277.5 -190t-317.5 -71.5q-279 0 -453 175t-174 448zM270 602q0 -217 133.5 -355t346.5 -138q132 0 262 59.5t230 158.5t162 237.5t62 287.5
q0 211 -133.5 345t-345.5 134q-134 0 -264.5 -58t-230 -155t-161 -233.5t-61.5 -282.5z" />
    <glyph glyph-name="uni041F" unicode="&#x41f;" horiz-adv-x="1511" 
d="M88 0l281 1440h1099l-282 -1440h-142l259 1313h-818l-256 -1313h-141z" />
    <glyph glyph-name="uni0420" unicode="&#x420;" horiz-adv-x="1224" 
d="M88 0l281 1440h471q142 0 227 -49q80 -43 125 -122.5t45 -181.5q0 -165 -86 -293.5t-223 -187.5q-100 -41 -209 -41h-379l-111 -565h-141zM365 692h340q94 0 167 33q98 43 158 136.5t60 219.5q0 110 -70.5 171t-196.5 61h-338z" />
    <glyph glyph-name="uni0421" unicode="&#x421;" horiz-adv-x="1472" 
d="M125 594q0 175 71.5 336.5t189.5 278t274.5 186t320.5 69.5q144 0 282 -45.5t224 -140.5l-90 -100q-74 72 -183.5 112.5t-230.5 40.5q-140 0 -271.5 -59t-227.5 -158t-154 -234.5t-58 -281.5q0 -215 130 -352t348 -137q133 0 266 51t237 139l70 -111q-102 -93 -263 -153
t-315 -60q-190 0 -331.5 80t-215 220t-73.5 319z" />
    <glyph glyph-name="uni0422" unicode="&#x422;" horiz-adv-x="1234" 
d="M426 0l256 1313h-516l24 127h1174l-23 -127h-518l-254 -1313h-143z" />
    <glyph glyph-name="uni0423" unicode="&#x423;" horiz-adv-x="1204" 
d="M59 66l78 106q75 -70 160 -70q65 0 111.5 47t107.5 150l-350 1141h147l242 -803l47 -191h4q54 103 103 189l454 805h160l-705 -1213q-70 -120 -149 -186t-180 -66q-112 0 -230 91z" />
    <glyph glyph-name="uni0424" unicode="&#x424;" horiz-adv-x="1681" 
d="M113 651q0 212 108.5 375.5t291.5 250t409 87.5l32 172h142l-33 -172q261 0 417 -132t156 -358q0 -158 -64 -292.5t-174 -226t-257.5 -142.5t-313.5 -51l-36 -187h-142l37 187q-263 0 -418 131t-155 358zM852 287q129 2 244 43t203.5 114t140 184.5t51.5 245.5
q0 175 -120.5 270t-334.5 95zM258 651q0 -175 120 -269.5t333 -94.5l184 952q-129 -2 -244 -43t-202.5 -113.5t-139 -184.5t-51.5 -247z" />
    <glyph glyph-name="uni0425" unicode="&#x425;" horiz-adv-x="1169" 
d="M-78 0l604 760l-284 680h151l172 -422l64 -164h4q51 76 117 162l337 424h173l-562 -697l320 -743h-152l-207 492l-61 157h-4q-43 -67 -113 -153l-395 -496h-164z" />
    <glyph glyph-name="uni0426" unicode="&#x426;" horiz-adv-x="1525" 
d="M90 0l279 1440h143l-256 -1313h784l256 1313h142l-254 -1313h162l-80 -414h-133l55 287h-1098z" />
    <glyph glyph-name="uni0427" unicode="&#x427;" horiz-adv-x="1257" 
d="M524 567q-176 0 -266 81t-90 224q0 50 12 109l90 459h144l-86 -436q-11 -51 -11 -99q0 -207 236 -207q111 0 219 38t180 83l121 621h144l-281 -1440h-143l116 602l17 68h-4q-212 -103 -398 -103z" />
    <glyph glyph-name="uni0428" unicode="&#x428;" horiz-adv-x="2033" 
d="M88 0l281 1440h143l-258 -1313h598l258 1313h141l-256 -1313h598l256 1313h142l-281 -1440h-1622z" />
    <glyph glyph-name="uni0429" unicode="&#x429;" horiz-adv-x="2086" 
d="M90 0l279 1440h143l-256 -1313h598l256 1313h141l-256 -1313h600l254 1313h142l-254 -1313h176l-80 -414h-133l55 287h-1665z" />
    <glyph glyph-name="uni042A" unicode="&#x42a;" horiz-adv-x="1353" 
d="M268 0l256 1313h-377l25 127h520l-114 -582h317q166 0 265.5 -90t99.5 -256q0 -109 -40.5 -205.5t-108.5 -163t-159 -105t-190 -38.5h-494zM436 127h320q151 0 254.5 103.5t103.5 273.5q0 106 -66.5 166.5t-177.5 60.5h-317z" />
    <glyph glyph-name="uni042B" unicode="&#x42b;" horiz-adv-x="1665" 
d="M1198 0l283 1440h141l-283 -1440h-141zM88 0l281 1440h143l-115 -582h314q166 0 265 -90t99 -256q0 -109 -40.5 -205.5t-109 -163t-159.5 -105t-191 -38.5h-487zM254 127h317q150 0 253.5 103.5t103.5 273.5q0 106 -66.5 166.5t-177.5 60.5h-313z" />
    <glyph glyph-name="uni042C" unicode="&#x42c;" horiz-adv-x="1173" 
d="M88 0l281 1440h143l-115 -582h318q165 0 264.5 -90t99.5 -256q0 -109 -40.5 -205.5t-109 -163t-159.5 -105t-190 -38.5h-492zM254 127h321q151 0 254 103.5t103 273.5q0 106 -66.5 166.5t-177.5 60.5h-317z" />
    <glyph glyph-name="uni042D" unicode="&#x42d;" horiz-adv-x="1466" 
d="M399 659l25 123h813q4 50 4 74q0 210 -125.5 343.5t-345.5 133.5q-125 0 -246.5 -42t-222.5 -120l-70 105q104 87 246.5 137.5t302.5 50.5q184 0 323.5 -78t213.5 -214.5t74 -311.5q0 -172 -72 -335.5t-190.5 -283.5t-280 -193t-332.5 -73q-148 0 -290 56t-228 164l88 96
q67 -83 185.5 -134t250.5 -51q234 0 428.5 158t261.5 395h-813z" />
    <glyph glyph-name="uni042E" unicode="&#x42e;" horiz-adv-x="2152" 
d="M88 0l281 1440h143l-129 -656h258q45 188 170.5 344.5t299.5 246t357 89.5q178 0 317 -78t214.5 -215.5t75.5 -312.5q0 -140 -46.5 -274.5t-128.5 -243t-187 -191.5t-230 -128.5t-250 -45.5q-270 0 -441 175t-171 448q0 39 2 59h-265l-129 -657h-141zM768 602
q0 -217 128.5 -355t332.5 -138q130 0 256.5 59.5t224 158.5t157.5 237.5t60 287.5q0 211 -128 344t-333 133q-130 0 -256.5 -58t-224 -154.5t-157.5 -232.5t-60 -282z" />
    <glyph glyph-name="uni042F" unicode="&#x42f;" horiz-adv-x="1257" 
d="M-55 0l452 565q13 17 26.5 33t20.5 24l7 7l2 4q-104 35 -165 117.5t-61 199.5q0 139 68 256.5t192 177.5q109 56 291 56h436l-280 -1440h-143l120 606h-313l-483 -606h-170zM608 731h328l113 582h-271q-142 0 -207 -33q-90 -40 -144 -127.5t-54 -194.5q0 -105 62.5 -166
t172.5 -61z" />
    <glyph glyph-name="uni0430" unicode="&#x430;" horiz-adv-x="1056" 
d="M8 236q0 80 31 144.5t86 107t121.5 72.5t148 45.5t154.5 22.5t151 7h68q10 55 10 110q0 88 -48.5 136.5t-160.5 48.5q-78 0 -161 -27t-150 -72l-43 117q64 44 165 75.5t202 31.5q159 0 249.5 -72t90.5 -219q0 -48 -13 -115l-125 -649h-135l25 119l22 88h-4
q-19 -36 -52 -73.5t-80 -74.5t-111.5 -60.5t-133.5 -23.5q-129 0 -218 71t-89 190zM150 254q0 -69 50 -115.5t148 -46.5q90 0 175 61t140 149t76 181l9 41h-60q-45 0 -84.5 -1.5t-96.5 -8t-103.5 -17.5t-95.5 -31.5t-82 -48t-54.5 -69.5t-21.5 -94z" />
    <glyph glyph-name="uni0431" unicode="&#x431;" horiz-adv-x="1177" 
d="M94 430q0 148 43.5 307t130.5 277q68 101 167.5 172t240.5 127l418 178l32 -117l-436 -182q-188 -82 -280 -189t-138 -278h4q159 209 402 209q173 0 275 -100.5t102 -274.5q0 -148 -68.5 -280.5t-201 -218t-298.5 -85.5q-198 0 -295.5 120.5t-97.5 334.5zM236 375
q0 -131 74 -204t194 -73q112 0 206.5 63.5t147.5 164.5t53 213q0 131 -73.5 203.5t-188.5 72.5q-106 0 -201 -58.5t-153.5 -160.5t-58.5 -221z" />
    <glyph glyph-name="uni0432" unicode="&#x432;" horiz-adv-x="1030" 
d="M49 0l201 1030h360q144 0 224.5 -56t80.5 -161q0 -93 -53 -167t-151 -107v-2q77 -20 121.5 -76.5t44.5 -134.5q0 -100 -62 -176t-155.5 -113t-198.5 -37h-412zM301 584h219q102 0 177 57.5t75 157.5q0 125 -192 125h-211zM209 109h233q52 0 102 13t93 38t69.5 69
t26.5 101q0 147 -219 147h-233z" />
    <glyph glyph-name="uni0433" unicode="&#x433;" horiz-adv-x="831" 
d="M49 0l201 1030h612l-22 -121h-473l-179 -909h-139z" />
    <glyph glyph-name="uni0434" unicode="&#x434;" horiz-adv-x="1183" 
d="M209 119h526l154 792h-361l-12 -61q-100 -497 -307 -731zM-139 -246l71 365h115q233 231 336 737l33 174h637l-179 -911h146l-72 -365h-131l49 246h-823l-47 -246h-135z" />
    <glyph glyph-name="uni0435" unicode="&#x435;" horiz-adv-x="1128" 
d="M72 410q0 125 45.5 242.5t123.5 206.5t190.5 142.5t238.5 53.5q185 0 279.5 -101.5t94.5 -271.5q0 -79 -28 -172h-791q-10 -55 -10 -92q0 -136 87 -226t243 -90q178 0 338 123l43 -114q-66 -55 -172 -95.5t-213 -40.5q-211 0 -340 120t-129 315zM252 621h645q6 30 6 73
q0 120 -64.5 183t-168.5 63q-134 0 -249 -84t-169 -235z" />
    <glyph glyph-name="uni0436" unicode="&#x436;" horiz-adv-x="1468" 
d="M-72 0l447 539v4l-219 487h143l199 -442h166l86 442h135l-86 -442h162l356 442h164l-416 -512v-4l246 -514h-152l-219 465h-166l-90 -465h-135l90 465h-166l-381 -465h-164z" />
    <glyph glyph-name="uni0437" unicode="&#x437;" horiz-adv-x="897" 
d="M-31 121l78 96q40 -46 112 -84.5t158 -38.5q111 0 196 64.5t85 175.5q0 143 -209 143h-133l20 111h119q107 0 184.5 54t77.5 157q0 69 -50.5 103t-139.5 34q-137 0 -260 -92l-53 98q148 113 340 113q139 0 223 -63t84 -177q0 -97 -54 -169.5t-149 -104.5v-4
q65 -22 105 -73.5t40 -133.5q0 -105 -58 -187.5t-151.5 -125t-203.5 -42.5q-113 0 -207.5 42.5t-153.5 103.5z" />
    <glyph glyph-name="uni0438" unicode="&#x438;" horiz-adv-x="1210" 
d="M49 0l201 1030h133l-131 -672l-33 -149h4q76 95 133 156l637 665h133l-200 -1030h-133l129 674l34 145h-4q-76 -92 -133 -151l-637 -668h-133z" />
    <glyph glyph-name="uni0439" unicode="&#x439;" horiz-adv-x="1210" 
d="M735 1163q-102 0 -172.5 55t-70.5 144q0 31 12 78h119q-9 -35 -9 -60q0 -53 35.5 -82.5t91.5 -29.5q68 0 121 42t64 130h118q-11 -77 -42 -133.5t-75 -86.5t-91.5 -43.5t-100.5 -13.5zM49 0l201 1030h133l-131 -672l-33 -149h4q76 95 133 156l637 665h133l-200 -1030
h-133l129 674l34 145h-4q-76 -92 -133 -151l-637 -668h-133z" />
    <glyph glyph-name="uni043A" unicode="&#x43a;" horiz-adv-x="1009" 
d="M49 0l201 1030h139l-86 -436h162l389 436h172l-457 -508v-4l297 -518h-161l-259 471h-165l-93 -471h-139z" />
    <glyph glyph-name="uni043B" unicode="&#x43b;" horiz-adv-x="1081" 
d="M-78 -8l23 125q129 23 218 170.5t144 431.5l60 311h630l-198 -1030h-140l177 909h-357l-37 -190q-71 -366 -196 -541.5t-324 -185.5z" />
    <glyph glyph-name="uni043C" unicode="&#x43c;" horiz-adv-x="1468" 
d="M10 0l285 1030h141l189 -635l34 -145h5q45 79 90 145l434 635h151l-116 -1030h-136l78 666l33 178h-4q-33 -66 -92 -150l-397 -575h-127l-175 571q-12 36 -21 74.5t-12 59.5l-3 20h-5q-22 -123 -36 -178l-181 -666h-135z" />
    <glyph glyph-name="uni043D" unicode="&#x43d;" horiz-adv-x="1212" 
d="M49 0l201 1030h139l-86 -440h602l84 440h141l-200 -1030h-139l90 467h-602l-91 -467h-139z" />
    <glyph glyph-name="uni043E" unicode="&#x43e;" horiz-adv-x="1277" 
d="M70 426q0 128 53.5 246t141.5 201t203 132.5t234 49.5q210 0 341 -124.5t131 -320.5q0 -130 -54.5 -249t-143 -202.5t-203 -133.5t-232.5 -50q-209 0 -340 126t-131 325zM213 430q0 -145 92 -236.5t238 -91.5q121 0 232.5 65.5t183 182.5t71.5 254q0 143 -92 234.5
t-238 91.5q-122 0 -234 -66t-182.5 -182.5t-70.5 -251.5z" />
    <glyph glyph-name="uni043F" unicode="&#x43f;" horiz-adv-x="1193" 
d="M49 0l201 1030h860l-199 -1030h-141l178 907h-581l-179 -907h-139z" />
    <glyph glyph-name="uni0440" unicode="&#x440;" horiz-adv-x="1206" 
d="M205 84l-96 -494h-140l281 1440h131l-19 -100l-22 -88h4q57 93 155 153t222 60q181 0 281 -110.5t100 -303.5q0 -143 -47.5 -269t-125 -212t-178 -135.5t-206.5 -49.5q-116 0 -203 53t-121 154h-4q-2 -45 -12 -98zM274 397q0 -129 66 -213t192 -84q76 0 151 37t136.5 103
t100 168.5t38.5 222.5q0 138 -69.5 217.5t-190.5 79.5q-91 0 -172 -47t-135 -123t-85.5 -171t-31.5 -190z" />
    <glyph glyph-name="uni0441" unicode="&#x441;" horiz-adv-x="1112" 
d="M70 414q0 136 53.5 257t141.5 204t202.5 131.5t234.5 48.5q108 0 209 -37.5t164 -110.5l-84 -94q-47 53 -124.5 85t-157.5 32q-92 0 -182 -38.5t-159.5 -104t-112 -161t-42.5 -202.5q0 -145 93.5 -233.5t242.5 -88.5q96 0 190 38t168 104l45 -115q-75 -69 -186 -111.5
t-223 -42.5q-211 0 -342 121t-131 318z" />
    <glyph glyph-name="uni0442" unicode="&#x442;" horiz-adv-x="978" 
d="M301 0l176 907h-375l23 123h891l-23 -123h-377l-176 -907h-139z" />
    <glyph glyph-name="uni0443" unicode="&#x443;" horiz-adv-x="1079" 
d="M-78 -264q44 -41 115 -41q125 0 229 166l92 149l-231 1020h145l160 -770l17 -108h2q28 57 57 106l446 772h158l-754 -1249q-60 -101 -142.5 -156t-174.5 -55q-105 0 -191 61z" />
    <glyph glyph-name="uni0444" unicode="&#x444;" horiz-adv-x="1445" 
d="M74 432q0 168 86 306t239 221t344 94l74 381h135l-73 -381q207 -9 334.5 -130t127.5 -321q0 -164 -85.5 -304t-240 -226.5t-345.5 -94.5l-76 -387h-135l76 387q-206 9 -333.5 132.5t-127.5 322.5zM694 100q132 4 247.5 71t186 182t70.5 249q0 148 -89.5 232.5
t-254.5 95.5zM215 434q0 -152 90 -237.5t254 -96.5l160 830q-134 -6 -249.5 -71t-185 -178t-69.5 -247z" />
    <glyph glyph-name="uni0445" unicode="&#x445;" horiz-adv-x="978" 
d="M-76 0l469 541l-246 489h154l162 -338l26 -61h3q20 28 40 55l291 344h168l-432 -502l268 -528h-149l-189 379l-24 61h-4q-18 -30 -43 -57l-328 -383h-166z" />
    <glyph glyph-name="uni0446" unicode="&#x446;" horiz-adv-x="1230" 
d="M49 0l201 1030h139l-176 -907h569l176 907h140l-176 -907h143l-72 -369h-131l49 246h-862z" />
    <glyph glyph-name="uni0447" unicode="&#x447;" horiz-adv-x="1024" 
d="M397 377q-149 0 -222 64.5t-73 174.5q0 40 9 86l63 328h139l-59 -305q-10 -68 -10 -76q0 -147 180 -147q84 0 164 26.5t127 59.5l86 442h141l-201 -1030h-139l76 389l16 66h-4q-60 -32 -146 -55t-147 -23z" />
    <glyph glyph-name="uni0448" unicode="&#x448;" horiz-adv-x="1622" 
d="M49 0l201 1030h135l-178 -907h442l176 907h136l-177 -907h441l178 907h135l-201 -1030h-1288z" />
    <glyph glyph-name="uni0449" unicode="&#x449;" horiz-adv-x="1669" 
d="M49 0l201 1030h135l-178 -907h442l176 907h136l-177 -907h441l178 907h135l-178 -907h145l-71 -369h-131l47 246h-1301z" />
    <glyph glyph-name="uni044A" unicode="&#x44a;" horiz-adv-x="1089" 
d="M182 0l178 909h-284l22 121h424l-78 -393h215q66 0 120 -13.5t99.5 -42.5t71 -82t25.5 -126q0 -164 -114.5 -268.5t-305.5 -104.5h-373zM342 111h207q123 0 201.5 68.5t78.5 182.5q0 80 -46.5 122t-149.5 42h-209z" />
    <glyph glyph-name="uni044B" unicode="&#x44b;" horiz-adv-x="1368" 
d="M944 0l201 1030h139l-201 -1030h-139zM49 0l201 1030h139l-78 -393h213q66 0 120 -13.5t99.5 -42.5t71 -82t25.5 -126q0 -164 -114.5 -268.5t-305.5 -104.5h-371zM209 111h205q123 0 201.5 68.5t78.5 182.5q0 80 -46.5 122t-149.5 42h-207z" />
    <glyph glyph-name="uni044C" unicode="&#x44c;" horiz-adv-x="956" 
d="M49 0l201 1030h139l-78 -393h213q66 0 121 -13.5t100.5 -42.5t71 -82t25.5 -126q0 -164 -114.5 -268.5t-305.5 -104.5h-373zM209 111h207q123 0 201.5 68.5t78.5 182.5q0 164 -196 164h-209z" />
    <glyph glyph-name="uni044D" unicode="&#x44d;" horiz-adv-x="1105" 
d="M309 459l21 110h532q0 7 1 21.5t1 21.5q0 153 -95.5 237.5t-238.5 84.5q-179 0 -323 -125l-66 98q74 68 183 108t219 40q205 0 331.5 -124.5t126.5 -324.5q0 -120 -49 -234.5t-133.5 -202t-205.5 -141t-255 -53.5q-107 0 -209.5 41t-162.5 117l67 103q48 -64 132 -102
t180 -38q166 0 296.5 102.5t178.5 260.5h-531z" />
    <glyph glyph-name="uni044E" unicode="&#x44e;" horiz-adv-x="1652" 
d="M49 0l201 1030h139l-90 -455h203q34 136 125 246t216 172t257 62q197 0 322.5 -125t125.5 -324q0 -128 -52.5 -246.5t-137.5 -202t-197 -133t-227 -49.5q-198 0 -324.5 126.5t-126.5 326.5v27h-204l-91 -455h-139zM627 432q0 -147 86 -238.5t223 -91.5q86 0 171 39.5
t151 105.5t106.5 159.5t40.5 195.5q0 145 -86.5 236.5t-224.5 91.5q-88 0 -173 -39.5t-150 -105.5t-104.5 -159t-39.5 -194z" />
    <glyph glyph-name="uni044F" unicode="&#x44f;" horiz-adv-x="1019" 
d="M-49 0l309 356l55 62v4q-73 19 -124.5 86t-51.5 166q0 160 109 258t289 98h399l-201 -1030h-139l76 395h-215l-338 -395h-168zM285 674q0 -81 46.5 -125.5t137.5 -44.5h225l82 420h-219q-124 0 -198 -64.5t-74 -185.5z" />
    <glyph glyph-name="uni0450" unicode="&#x450;" horiz-adv-x="1128" 
d="M72 410q0 125 45.5 242.5t123.5 206.5t190.5 142.5t238.5 53.5q185 0 279.5 -101.5t94.5 -271.5q0 -79 -28 -172h-791q-10 -55 -10 -92q0 -136 87 -226t243 -90q178 0 338 123l43 -114q-66 -55 -172 -95.5t-213 -40.5q-211 0 -340 120t-129 315zM252 621h645q6 30 6 73
q0 120 -64.5 183t-168.5 63q-134 0 -249 -84t-169 -235zM686 1198l-129 244h152l96 -244h-119z" />
    <glyph glyph-name="uni0451" unicode="&#x451;" horiz-adv-x="1128" 
d="M813 1266l35 176h127l-35 -176h-127zM504 1266l33 176h127l-33 -176h-127zM72 410q0 125 45.5 242.5t123.5 206.5t190.5 142.5t238.5 53.5q185 0 279.5 -101.5t94.5 -271.5q0 -79 -28 -172h-791q-10 -55 -10 -92q0 -136 87 -226t243 -90q178 0 338 123l43 -114
q-66 -55 -172 -95.5t-213 -40.5q-211 0 -340 120t-129 315zM252 621h645q6 30 6 73q0 120 -64.5 183t-168.5 63q-134 0 -249 -84t-169 -235z" />
    <glyph glyph-name="uni0452" unicode="&#x452;" horiz-adv-x="1216" 
d="M143 1157l21 111h131l35 172h139l-35 -172h459l-23 -111h-456l-74 -383q-4 -22 -11 -45t-11 -35l-5 -12h4q22 41 63 84.5t98 85t134 68t158 26.5q141 0 217 -67.5t76 -198.5q0 -59 -16 -137l-111 -584q-19 -99 -59.5 -173t-85.5 -114t-101 -64.5t-97 -31t-83 -6.5
q-18 0 -35.5 1.5t-26.5 2.5l-8 2l27 123q20 -4 49 -4t56 4.5t64 21.5t66.5 45t56.5 80.5t40 122.5l102 537q17 83 17 137q0 86 -47 129t-130 43q-170 0 -308.5 -132t-172.5 -316l-72 -367h-139l225 1157h-131z" />
    <glyph glyph-name="uni0453" unicode="&#x453;" horiz-adv-x="831" 
d="M481 1198l191 244h172l-228 -244h-135zM49 0l201 1030h612l-22 -121h-473l-179 -909h-139z" />
    <glyph glyph-name="uni0454" unicode="&#x454;" horiz-adv-x="1110" 
d="M68 422q0 120 51 235.5t137 203t207 141t252 53.5q104 0 200 -36.5t156 -109.5l-78 -98q-46 57 -125.5 89t-165.5 32q-160 0 -291.5 -100t-183.5 -252h537l-21 -111h-538q-2 -14 -2 -45q0 -159 97.5 -243.5t246.5 -84.5q94 0 189 39t167 105l53 -109
q-76 -69 -194.5 -112.5t-233.5 -43.5q-206 0 -333 123t-127 324z" />
    <glyph glyph-name="uni0455" unicode="&#x455;" horiz-adv-x="897" 
d="M-8 123l78 98q47 -55 125 -88t163 -33q102 0 175 46t73 130q0 45 -25.5 79t-66.5 57.5t-90 44.5t-98.5 46t-90.5 56.5t-66.5 81.5t-25.5 115q0 94 56 163.5t143 102.5t190 33q91 0 173.5 -29.5t138.5 -85.5l-74 -98q-88 88 -242 88q-63 0 -117 -16.5t-92 -57t-38 -98.5
q0 -45 25.5 -79t66 -57t90 -44t99 -46t90 -56t66 -81t25.5 -114q0 -135 -109.5 -220.5t-275.5 -85.5q-103 0 -201.5 38t-164.5 110z" />
    <glyph glyph-name="uni0456" unicode="&#x456;" horiz-adv-x="471" 
d="M291 1266l35 174h149l-35 -174h-149zM49 0l201 1030h141l-203 -1030h-139z" />
    <glyph glyph-name="uni0457" unicode="&#x457;" horiz-adv-x="471" 
d="M457 1266l35 176h126l-34 -176h-127zM147 1266l33 176h127l-33 -176h-127zM49 0l201 1030h139l-201 -1030h-139z" />
    <glyph glyph-name="uni0458" unicode="&#x458;" horiz-adv-x="473" 
d="M289 1266l33 174h151l-35 -174h-149zM43 -33l207 1063h139l-207 -1067q-19 -98 -58.5 -171.5t-82.5 -113t-96.5 -63.5t-92.5 -30.5t-79 -6.5q-43 0 -84 6l24 123q16 -4 45 -4q28 0 55.5 4.5t65 21t67.5 43.5t57 77.5t40 117.5z" />
    <glyph glyph-name="uni0459" unicode="&#x459;" horiz-adv-x="1490" 
d="M-55 -8l22 125q261 46 363 598l61 315h533l-78 -399h211q67 0 121 -13t100 -42t71 -82.5t25 -128.5q0 -167 -119 -266t-303 -99h-366l176 909h-260l-37 -192q-72 -370 -196 -543t-324 -182zM743 111h209q118 0 199.5 63t81.5 180q0 166 -197 166h-211z" />
    <glyph glyph-name="uni045A" unicode="&#x45a;" horiz-adv-x="1630" 
d="M49 0l201 1030h139l-80 -409h539l80 409h139l-80 -409h201q66 0 122.5 -13.5t104 -42.5t74.5 -79.5t27 -118.5q0 -165 -116 -266t-304 -101h-369l96 502h-538l-97 -502h-139zM887 111h209q123 0 200.5 64t77.5 185q0 150 -209 150h-200z" />
    <glyph glyph-name="uni045B" unicode="&#x45b;" horiz-adv-x="1216" 
d="M143 1157l21 111h131l35 172h139l-35 -172h459l-23 -111h-456l-74 -383l-25 -92h4q21 41 61.5 84.5t97.5 85t134 68t158 26.5q141 0 217 -67.5t76 -198.5q0 -48 -14 -137l-105 -543h-139l96 508q17 80 17 137q0 85 -47 127.5t-130 42.5q-170 0 -308.5 -131t-174.5 -315
l-70 -369h-139l225 1157h-131z" />
    <glyph glyph-name="uni045C" unicode="&#x45c;" horiz-adv-x="1009" 
d="M547 1198l190 244h172l-227 -244h-135zM49 0l201 1030h139l-86 -436h162l389 436h172l-457 -508v-4l297 -518h-161l-259 471h-165l-93 -471h-139z" />
    <glyph glyph-name="uni045D" unicode="&#x45d;" horiz-adv-x="1210" 
d="M49 0l201 1030h133l-131 -672l-33 -149h4q76 95 133 156l637 665h133l-200 -1030h-133l129 674l34 145h-4q-76 -92 -133 -151l-637 -668h-133zM713 1198l-129 244h151l96 -244h-118z" />
    <glyph glyph-name="uni045E" unicode="&#x45e;" horiz-adv-x="1079" 
d="M-78 -264q44 -41 115 -41q125 0 229 166l92 149l-231 1020h145l160 -770l17 -108h2q28 57 57 106l446 772h158l-754 -1249q-60 -101 -142.5 -156t-174.5 -55q-105 0 -191 61zM664 1165q-103 0 -173.5 55t-70.5 144q0 31 12 78h119q-8 -31 -8 -60q0 -53 35.5 -82.5
t91.5 -29.5q68 0 120.5 42t63.5 130h119q-11 -77 -42 -133.5t-75 -86.5t-91.5 -43.5t-100.5 -13.5z" />
    <glyph glyph-name="uni045F" unicode="&#x45f;" horiz-adv-x="1150" 
d="M49 0l201 1030h139l-176 -907h537l178 907h139l-201 -1030h-342l-49 -246h-131l49 246h-344z" />
    <glyph glyph-name="uni0462" unicode="&#x462;" horiz-adv-x="1378" 
d="M281 0l215 1106h-377l24 119h377l47 229h140l-45 -229h415l-24 -119h-416l-49 -264h319q168 0 272.5 -92.5t104.5 -251.5q0 -128 -66.5 -242.5t-186 -185t-261.5 -70.5h-489zM449 127h313q155 0 265 105t110 260q0 105 -71 164t-189 59h-316z" />
    <glyph glyph-name="uni0463" unicode="&#x463;" horiz-adv-x="1030" 
d="M119 0l184 944h-250l23 111h248l75 385h140l-74 -385h344l-23 -111h-346l-57 -307h215q65 0 119 -13.5t99.5 -43t71 -83t25.5 -126.5q0 -161 -114.5 -266t-304.5 -105h-375zM281 111h208q124 0 201.5 69.5t77.5 184.5q0 161 -197 161h-211z" />
    <glyph glyph-name="uni0472" unicode="&#x472;" horiz-adv-x="1689" 
d="M123 598q0 171 74 332.5t193.5 277.5t277 186t319.5 70q279 0 453 -170t174 -436q0 -174 -74.5 -338.5t-194.5 -283t-277.5 -190t-317.5 -71.5q-279 0 -453 175t-174 448zM268 602q0 -219 134.5 -357.5t347.5 -138.5q227 0 426.5 161t265.5 401h-1170q-4 -46 -4 -66z
M987 1333q-230 0 -429 -156t-265 -389h1171q4 40 4 64q0 213 -134 347t-347 134z" />
    <glyph glyph-name="uni0473" unicode="&#x473;" horiz-adv-x="1277" 
d="M70 428q0 128 54 245t142 200t204 132.5t237 49.5q205 0 336 -125t131 -324q0 -128 -54 -246.5t-142.5 -202t-204 -133t-234.5 -49.5q-206 0 -337.5 126.5t-131.5 326.5zM205 432q0 -151 93.5 -244.5t242.5 -93.5q156 0 294 106.5t185 268.5h-815v-37zM702 938
q-158 0 -294 -104t-183 -263h811q2 10 2 31q0 149 -93.5 242.5t-242.5 93.5z" />
    <glyph glyph-name="uni0474" unicode="&#x474;" horiz-adv-x="1396" 
d="M449 0l-252 1440h147l182 -1094l19 -184h4q53 110 92 184l489 914q29 52 52 83.5t45.5 52.5t55 29.5t65.5 11.5t92 3h94l-25 -129h-45h-20q-42 0 -60.5 -1.5t-44 -13t-45.5 -37t-45 -71.5l-649 -1188h-151z" />
    <glyph glyph-name="uni0475" unicode="&#x475;" horiz-adv-x="1120" 
d="M326 0l-197 1030h139l140 -756q4 -23 6.5 -54t3.5 -50v-20h4q32 73 61 124l308 574q57 106 115.5 144t174.5 38h82l-24 -127h-45q-71 0 -108 -23t-79 -96l-430 -784h-151z" />
    <glyph glyph-name="uni048A" unicode="&#x48a;" horiz-adv-x="1601" 
d="M88 0l281 1440h143l-201 -1030q-7 -34 -19.5 -81.5t-21.5 -78.5l-8 -31h4q101 127 164 199l928 1022h137l-258 -1313h205l-19 -92l-198 -322h-121l153 287h-186l201 1030q6 34 18 81.5t20 78.5l9 31h-4q-95 -123 -158 -195l-932 -1026h-137zM944 1507q-103 0 -173.5 55
t-70.5 144q0 27 13 78h118q-8 -31 -8 -60q0 -53 35.5 -82.5t91.5 -29.5q68 0 121 42t64 130h118q-11 -77 -42 -133.5t-75 -86.5t-91.5 -43.5t-100.5 -13.5z" />
    <glyph glyph-name="uni048B" unicode="&#x48b;" horiz-adv-x="1267" 
d="M49 0l201 1030h133l-131 -672l-33 -149h4q76 95 133 156l637 665h133l-178 -909h168l-16 -88l-168 -279h-113l129 246h-155l129 674l34 145h-4q-76 -92 -133 -151l-637 -668h-133zM719 1165q-103 0 -173.5 55t-70.5 144q0 31 12 78h119q-8 -31 -8 -60q0 -53 35.5 -82.5
t91.5 -29.5q68 0 120.5 42t63.5 130h119q-11 -77 -42 -133.5t-75 -86.5t-91.5 -43.5t-100.5 -13.5z" />
    <glyph glyph-name="uni048C" unicode="&#x48c;" horiz-adv-x="1345" 
d="M236 0l229 1184h-334l21 119h335l45 233h142l-45 -233h362l-22 -119h-363l-65 -326h340q166 0 269 -96.5t103 -259.5q0 -130 -66 -245t-185 -186t-261 -71h-505zM399 127h332q152 0 263.5 107.5t111.5 259.5q0 116 -69.5 176.5t-188.5 60.5h-332z" />
    <glyph glyph-name="uni048D" unicode="&#x48d;" horiz-adv-x="1052" 
d="M139 0l185 944h-250l22 111h248l76 385h139l-74 -385h344l-22 -111h-346l-58 -307h215q65 0 119 -13.5t100 -43t71.5 -83t25.5 -126.5q0 -161 -115 -266t-305 -105h-375zM301 111h209q124 0 201 69.5t77 184.5q0 79 -46.5 120t-149.5 41h-211z" />
    <glyph glyph-name="uni048E" unicode="&#x48e;" horiz-adv-x="1269" 
d="M88 0l281 1440h471q142 0 227 -49q80 -43 125 -122.5t45 -181.5q0 -129 -54 -237.5t-147 -179.5l115 -160l-88 -66l-123 168l-12 -6q-100 -41 -209 -41h-379l-111 -565h-141zM733 899l88 68l142 -197q135 115 135 311q0 110 -70.5 171t-196.5 61h-346l-120 -629h346
q89 0 157 29z" />
    <glyph glyph-name="uni048F" unicode="&#x48f;" horiz-adv-x="1236" 
d="M205 84l-96 -494h-140l281 1440h131l-19 -100l-22 -88h4q59 94 156 153.5t221 59.5q181 0 281 -110.5t100 -303.5q0 -158 -55.5 -290.5t-151.5 -225.5l111 -135l-86 -74l-113 139q-121 -80 -262 -80q-116 0 -203 53t-121 154h-4q-2 -45 -12 -98zM598 317l86 74l131 -166
q70 70 111 173.5t41 228.5q0 140 -70.5 220.5t-194.5 80.5t-224.5 -81t-152 -201.5t-51.5 -248.5q0 -130 67.5 -215.5t193.5 -85.5q96 0 192 58z" />
    <glyph glyph-name="uni0490" unicode="&#x490;" horiz-adv-x="1007" 
d="M90 0l279 1440h641l32 180h127l-59 -307h-625l-254 -1313h-141z" />
    <glyph glyph-name="uni0491" unicode="&#x491;" horiz-adv-x="821" 
d="M49 0l201 1030h485l31 164h119l-54 -285h-464l-179 -909h-139z" />
    <glyph glyph-name="uni0492" unicode="&#x492;" horiz-adv-x="1028" 
d="M102 0l127 653h-129l23 113h129l133 674h756l-25 -127h-616l-105 -547h330l-23 -113h-331l-127 -653h-142z" />
    <glyph glyph-name="uni0493" unicode="&#x493;" horiz-adv-x="845" 
d="M53 0l88 451h-129l21 110h129l92 469h614l-22 -121h-475l-70 -348h272l-20 -110h-272l-88 -451h-140z" />
    <glyph glyph-name="uni0494" unicode="&#x494;" horiz-adv-x="1220" 
d="M90 0l279 1440h757l-24 -127h-617l-102 -527q146 72 317 72q187 0 285 -99.5t98 -316.5q0 -107 -23 -217t-74.5 -216t-124 -188t-181 -131t-236.5 -46l23 125q80 1 149 32t119 83.5t89 119t62.5 141.5t35.5 148.5t12 142.5q0 67 -12.5 117t-42 91.5t-85 63t-135.5 21.5
q-145 0 -301 -76l-127 -653h-141z" />
    <glyph glyph-name="uni0495" unicode="&#x495;" horiz-adv-x="995" 
d="M49 0l201 1030h618l-22 -119h-481l-74 -389q120 60 248 60q158 0 232.5 -91.5t74.5 -242.5q0 -126 -47.5 -253t-140.5 -238t-218 -179l-65 105q102 54 180 152.5t116 205t38 203.5q0 215 -209 215q-107 0 -236 -66l-76 -393h-139z" />
    <glyph glyph-name="uni0496" unicode="&#x496;" horiz-adv-x="1865" 
d="M-72 0l602 762v4l-301 674h154l272 -625h203l123 625h141l-123 -625h193l500 625h176l-559 -686v-4l254 -623h188l-80 -414h-131l55 287h-135l-276 688h-209l-135 -688h-142l136 688h-193l-543 -688h-170z" />
    <glyph glyph-name="uni0497" unicode="&#x497;" horiz-adv-x="1554" 
d="M-72 0l447 539v4l-219 487h143l199 -442h166l86 442h135l-86 -442h162l356 442h164l-416 -512v-4l186 -391h174l-71 -369h-129l47 246h-113l-219 465h-166l-90 -465h-135l90 465h-166l-381 -465h-164z" />
    <glyph glyph-name="uni0498" unicode="&#x498;" horiz-adv-x="1095" 
d="M-14 164l88 96q48 -66 128.5 -110t192.5 -44q168 0 287 98t119 247q0 114 -73 170.5t-193 56.5h-189l25 123h151q87 0 168 38t134 111t53 162q0 97 -63.5 159t-188.5 62q-172 0 -330 -116l-59 106q190 141 393 141q188 0 292.5 -87.5t104.5 -243.5q0 -139 -79.5 -237.5
t-209.5 -143.5v-4q98 -31 154.5 -104t56.5 -189q0 -124 -63.5 -228t-167.5 -166.5t-230 -78.5l-53 -269h-131l49 267q-111 10 -208.5 56t-157.5 128z" />
    <glyph glyph-name="uni0499" unicode="&#x499;" horiz-adv-x="901" 
d="M-31 121l78 96q40 -46 112 -84.5t158 -38.5q111 0 196 64.5t85 175.5q0 143 -209 143h-133l20 111h119q107 0 184.5 54t77.5 157q0 69 -50.5 103t-139.5 34q-137 0 -260 -92l-53 98q148 113 340 113q139 0 223 -63t84 -177q0 -97 -54 -169.5t-149 -104.5v-4
q65 -22 105 -73.5t40 -133.5q0 -146 -104.5 -242.5t-259.5 -110.5l-43 -223h-129l43 228q-170 25 -281 139z" />
    <glyph glyph-name="uni049A" unicode="&#x49a;" horiz-adv-x="1296" 
d="M88 0l281 1440h143l-123 -625h234l518 625h168l-572 -686v-4l260 -623h183l-80 -414h-131l55 287h-127l-281 688h-251l-136 -688h-141z" />
    <glyph glyph-name="uni049B" unicode="&#x49b;" horiz-adv-x="1081" 
d="M49 0l201 1030h139l-86 -436h162l389 436h172l-457 -508v-4l226 -395h159l-71 -369h-131l47 246h-94l-259 471h-165l-93 -471h-139z" />
    <glyph glyph-name="uni049C" unicode="&#x49c;" horiz-adv-x="1353" 
d="M88 0l281 1440h143l-123 -625h162l49 256h117l-49 -256h112l494 625h176l-567 -705v-4l315 -731h-151l-293 688h-113l-49 -256h-115l49 256h-161l-136 -688h-141z" />
    <glyph glyph-name="uni049D" unicode="&#x49d;" horiz-adv-x="1148" 
d="M49 0l201 1030h139l-86 -436h127l43 217h111l-43 -217h67l383 436h174l-454 -506v-4l295 -520h-160l-258 471h-70l-43 -221h-110l43 221h-127l-93 -471h-139z" />
    <glyph glyph-name="uni049E" unicode="&#x49e;" horiz-adv-x="1220" 
d="M113 1083l18 113h199l49 244h143l-49 -244h213l-20 -113h-213l-54 -268h234l518 625h168l-571 -686v-4l313 -750h-154l-280 688h-252l-135 -688h-142l211 1083h-196z" />
    <glyph glyph-name="uni049F" unicode="&#x49f;" horiz-adv-x="1013" 
d="M129 1083l23 109h131l49 248h139l-49 -248h256l-23 -109h-254l-88 -446h158l387 393h176l-448 -452v-5l278 -573h-151l-246 514h-176l-103 -514h-139l213 1083h-133z" />
    <glyph glyph-name="uni04A0" unicode="&#x4a0;" horiz-adv-x="1490" 
d="M367 0l258 1313h-455l25 127h596l-123 -625h241l504 625h176l-571 -695v-4l313 -741h-153l-287 688h-248l-133 -688h-143z" />
    <glyph glyph-name="uni04A1" unicode="&#x4a1;" horiz-adv-x="1142" 
d="M182 0l178 909h-284l22 121h424l-86 -436h162l387 436h174l-454 -508v-4l294 -518h-161l-260 471h-164l-92 -471h-140z" />
    <glyph glyph-name="uni04A2" unicode="&#x4a2;" horiz-adv-x="1583" 
d="M90 0l279 1440h143l-129 -656h836l127 656h141l-254 -1313h186l-80 -414h-133l58 287h-199l127 657h-834l-127 -657h-141z" />
    <glyph glyph-name="uni04A3" unicode="&#x4a3;" horiz-adv-x="1261" 
d="M49 0l201 1030h139l-88 -440h602l86 440h141l-178 -907h164l-72 -369h-131l48 246h-170l90 467h-602l-91 -467h-139z" />
    <glyph glyph-name="uni04A4" unicode="&#x4a4;" horiz-adv-x="1894" 
d="M88 0l281 1440h143l-129 -656h752l129 656h757l-26 -127h-615l-256 -1313h-141l127 657h-752l-129 -657h-141z" />
    <glyph glyph-name="uni04A5" unicode="&#x4a5;" horiz-adv-x="1470" 
d="M49 0l201 1030h139l-86 -440h537l84 440h579l-24 -121h-439l-176 -909h-139l90 467h-536l-91 -467h-139z" />
    <glyph glyph-name="uni04A6" unicode="&#x4a6;" horiz-adv-x="2031" 
d="M90 0l279 1440h968l-125 -633q146 72 316 72q381 0 381 -424q0 -90 -17 -182.5t-50 -185t-86.5 -172.5t-122 -141.5t-162.5 -96.5t-201 -33l22 125q80 1 149.5 32.5t119.5 84.5t89 120.5t62 144t35 151t12 144.5t-12 121.5t-41 95t-84 65.5t-135 22q-132 0 -301 -76
l-129 -674h-142l254 1315h-682l-256 -1315h-141z" />
    <glyph glyph-name="uni04A7" unicode="&#x4a7;" horiz-adv-x="1630" 
d="M49 0l201 1030h751l-88 -459q132 62 258 62q161 0 238.5 -99t77.5 -264q0 -211 -116 -400.5t-306 -291.5l-51 107q147 86 239.5 244.5t92.5 334.5q0 242 -220 242q-121 0 -239 -68l-84 -438h-139l174 907h-473l-177 -907h-139z" />
    <glyph glyph-name="uni04A8" unicode="&#x4a8;" horiz-adv-x="1886" 
d="M129 594q0 146 42 276.5t108.5 224t155 170t175 122.5t174.5 73l52 -127q-77 -22 -152.5 -62t-150.5 -105.5t-131.5 -146t-92 -190.5t-35.5 -233q0 -101 32.5 -188.5t93.5 -154.5t155.5 -105.5t210.5 -38.5t238 38q-120 89 -186 225.5t-66 307.5q0 158 56 301t147 242.5
t209 158t239 58.5q190 0 304 -123.5t114 -335.5q0 -251 -144 -472.5t-372 -363.5q93 -22 194 -22h148l-23 -123h-137q-192 0 -336 63q-199 -88 -389 -88q-287 0 -460 173t-173 446zM897 680q0 -155 65 -278.5t189 -194.5q108 54 202 134t165.5 178t113 216.5t41.5 241.5
q0 159 -79 244.5t-199 85.5q-83 0 -169.5 -43t-160.5 -120t-121 -199t-47 -265z" />
    <glyph glyph-name="uni04A9" unicode="&#x4a9;" horiz-adv-x="1605" 
d="M80 483q0 106 38.5 202t103 167.5t144.5 122.5t169 78l40 -121q-52 -16 -100.5 -42t-96 -66t-83 -88.5t-57 -114t-21.5 -138.5q0 -168 110 -277.5t287 -109.5q120 0 248 41q-107 76 -169 190.5t-62 262.5q0 191 137.5 328t337.5 137q88 0 159.5 -31t117 -83t70 -120
t24.5 -143q0 -162 -91 -302t-243 -239q81 -20 184 -20h111l-23 -117h-104q-166 0 -312 61q-199 -86 -393 -86q-234 0 -380 143.5t-146 364.5zM768 592q0 -136 61 -237t170 -162q152 78 246 203t94 280q0 48 -13.5 92t-41.5 83t-78 62t-116 23q-81 0 -154 -41t-120.5 -121.5
t-47.5 -181.5z" />
    <glyph glyph-name="uni04AA" unicode="&#x4aa;" horiz-adv-x="1472" 
d="M125 594q0 175 71.5 336.5t189.5 278t274.5 186t320.5 69.5q144 0 282 -45.5t224 -140.5l-90 -100q-74 72 -183.5 112.5t-230.5 40.5q-140 0 -271.5 -59t-227.5 -158t-154 -234.5t-58 -281.5q0 -215 130 -352t348 -137q133 0 266 51t237 139l70 -111q-95 -88 -244 -145.5
t-297 -65.5l-51 -264h-131l51 269q-163 18 -283 101t-181.5 214.5t-61.5 296.5z" />
    <glyph glyph-name="uni04AB" unicode="&#x4ab;" horiz-adv-x="1114" 
d="M72 414q0 136 53.5 257t142 204t203 131.5t234.5 48.5q108 0 208.5 -37.5t163.5 -110.5l-84 -94q-47 53 -124.5 85t-157.5 32q-92 0 -182 -38.5t-159.5 -104t-112 -161t-42.5 -202.5q0 -145 93.5 -233.5t242.5 -88.5q96 0 190 38t168 104l45 -115q-73 -67 -179 -109
t-214 -45l-41 -221h-131l45 232q-166 29 -264 144t-98 284z" />
    <glyph glyph-name="uni04AC" unicode="&#x4ac;" horiz-adv-x="1232" 
d="M424 0l256 1313h-516l24 127h1174l-25 -127h-516l-229 -1186h186l-80 -414h-131l56 287h-199z" />
    <glyph glyph-name="uni04AD" unicode="&#x4ad;" horiz-adv-x="987" 
d="M301 0l176 907h-375l25 123h891l-25 -123h-377l-151 -784h162l-72 -369h-131l49 246h-172z" />
    <glyph glyph-name="uni04AE" unicode="&#x4ae;" horiz-adv-x="1153" 
d="M387 0l121 618l-324 822h154l201 -522l57 -173h4q64 92 121 170l403 525h172l-647 -826l-121 -614h-141z" />
    <glyph glyph-name="uni04AF" unicode="&#x4af;" horiz-adv-x="1038" 
d="M346 63l-217 967h139l152 -692q4 -24 7.5 -54t4.5 -48l2 -17h4q29 64 64 119l420 692h153l-592 -967l-94 -473h-135z" />
    <glyph glyph-name="uni04B0" unicode="&#x4b0;" horiz-adv-x="1150" 
d="M229 512l23 113h256l-326 815h154l203 -522l55 -173h4q62 97 121 173l407 522h170l-641 -815h263l-23 -113h-264l-101 -512h-143l100 512h-258z" />
    <glyph glyph-name="uni04B1" unicode="&#x4b1;" horiz-adv-x="1036" 
d="M98 0l23 111h217l-205 919h139l150 -692l16 -119h4q29 64 62 119l414 692h155l-561 -919h217l-22 -111h-236l-80 -410h-137l82 410h-238z" />
    <glyph glyph-name="uni04B2" unicode="&#x4b2;" horiz-adv-x="1257" 
d="M-78 0l604 760l-284 680h151l172 -422l64 -164h4q51 76 117 162l337 424h173l-562 -697l265 -616h180l-80 -414h-131l55 287h-121l-207 492l-61 157h-4q-43 -67 -113 -153l-395 -496h-164z" />
    <glyph glyph-name="uni04B3" unicode="&#x4b3;" horiz-adv-x="1046" 
d="M-76 0l469 541l-246 489h154l162 -338l26 -61h3q20 28 40 55l291 344h168l-432 -502l205 -405h149l-71 -369h-131l49 246h-82l-189 379l-24 61h-4q-18 -30 -43 -57l-328 -383h-166z" />
    <glyph glyph-name="uni04B4" unicode="&#x4b4;" horiz-adv-x="1818" 
d="M369 0l256 1313h-455l25 127h1050l-24 -127h-455l-229 -1186h790l256 1313h141l-254 -1313h181l-82 -414h-131l55 287h-1124z" />
    <glyph glyph-name="uni04B5" unicode="&#x4b5;" horiz-adv-x="1476" 
d="M281 0l174 907h-353l25 123h844l-25 -123h-352l-152 -784h586l176 907h139l-176 -907h148l-72 -369h-131l49 246h-880z" />
    <glyph glyph-name="uni04B6" unicode="&#x4b6;" horiz-adv-x="1312" 
d="M524 567q-176 0 -266 81t-90 224q0 50 12 109l90 459h144l-86 -436q-11 -51 -11 -99q0 -207 236 -207q111 0 219 38t180 83l121 621h144l-256 -1313h188l-80 -414h-133l57 287h-200l116 602l17 68h-4q-212 -103 -398 -103z" />
    <glyph glyph-name="uni04B7" unicode="&#x4b7;" horiz-adv-x="1073" 
d="M397 377q-149 0 -222 64.5t-73 174.5q0 40 9 86l63 328h139l-59 -305q-10 -68 -10 -76q0 -147 180 -147q84 0 164 26.5t127 59.5l86 442h141l-178 -907h176l-72 -369h-131l49 246h-184l76 389l16 66h-4q-60 -32 -146 -55t-147 -23z" />
    <glyph glyph-name="uni04B8" unicode="&#x4b8;" horiz-adv-x="1271" 
d="M463 346l43 223q-167 4 -253.5 84t-86.5 219q0 50 12 109l90 459h144l-86 -436q-11 -51 -11 -99q0 -99 51.5 -150t163.5 -57l58 295h117l-58 -288q169 23 320 114l120 621h144l-283 -1440h-143l121 606l16 68h-4q-161 -80 -315 -99l-45 -229h-115z" />
    <glyph glyph-name="uni04B9" unicode="&#x4b9;" horiz-adv-x="1048" 
d="M346 213l31 164q-138 7 -206.5 72.5t-68.5 173.5q0 31 11 92l61 315h139l-59 -303q-8 -50 -8 -74q0 -66 35 -105t120 -46l52 256h110l-49 -250q130 19 225 80l86 442h140l-199 -1030h-139l75 389l17 66h-4q-100 -53 -226 -72l-32 -170h-111z" />
    <glyph glyph-name="uni04BA" unicode="&#x4ba;" horiz-adv-x="1253" 
d="M88 0l281 1440h143l-102 -529l-21 -69h4q201 98 404 98q169 0 253.5 -79t84.5 -214q0 -50 -13 -123l-102 -524h-143l100 506q12 74 12 104q0 100 -55.5 149.5t-175.5 49.5q-108 0 -216.5 -35t-174.5 -76l-138 -698h-141z" />
    <glyph glyph-name="uni04BB" unicode="&#x4bb;" horiz-adv-x="1214" 
d="M49 0l281 1440h139l-107 -557l-26 -92h4q22 42 63 85.5t98 85t133.5 67.5t156.5 26q142 0 218 -68t76 -199q0 -57 -16 -135l-125 -653h-139l119 616q16 94 16 138q0 85 -47.5 127.5t-130.5 42.5q-168 0 -306.5 -132.5t-174.5 -314.5l-93 -477h-139z" />
    <glyph glyph-name="uni04BC" unicode="&#x4bc;" horiz-adv-x="1751" 
d="M162 979q0 111 86 313h141q-92 -192 -92 -303q0 -141 139 -141h8q39 127 110.5 237.5t168 195.5t223 134t264.5 49q226 0 355 -128t129 -359q0 -90 -35 -248h-1092q-12 -64 -13.5 -127t8.5 -124.5t31.5 -116t58 -101t85.5 -80t117.5 -52.5t149.5 -19q127 0 256.5 45.5
t224.5 130.5l67 -115q-86 -79 -233.5 -137t-319.5 -58q-279 0 -437.5 162t-158.5 434q0 79 15 158h-10q-112 0 -179 66t-67 184zM596 848h942q12 86 12 129q0 75 -20.5 138t-61 113t-109.5 78.5t-159 28.5q-207 0 -373 -138.5t-231 -348.5z" />
    <glyph glyph-name="uni04BD" unicode="&#x4bd;" horiz-adv-x="1355" 
d="M102 711q0 106 68 229h127q-74 -112 -74 -217q0 -54 26 -77t79 -23h2q63 188 216 310t353 122q183 0 278 -102t95 -271q0 -69 -31 -172h-788q-11 -43 -11 -90q0 -140 86 -229t244 -89q180 0 336 123l45 -114q-69 -54 -174.5 -95t-214.5 -41q-205 0 -336 118.5t-131 320.5
q0 46 6 96q-98 2 -149.5 53t-51.5 148zM477 621h645q6 30 6 73q0 121 -64 183.5t-171 62.5q-131 0 -246 -84t-170 -235z" />
    <glyph glyph-name="uni04BE" unicode="&#x4be;" horiz-adv-x="1751" 
d="M162 979q0 111 86 313h141q-92 -192 -92 -303q0 -141 139 -141h8q39 127 110.5 237.5t168 195.5t223 134t264.5 49q226 0 355 -128t129 -359q0 -90 -35 -248h-1092q-12 -64 -13.5 -127t8.5 -124.5t31.5 -116t58 -101t85.5 -80t117.5 -52.5t149.5 -19q127 0 256.5 45.5
t224.5 130.5l67 -115q-85 -78 -232.5 -136t-318.5 -59l-49 -262h-133l53 273q-223 35 -346 190.5t-123 394.5q0 79 15 158h-10q-112 0 -179 66t-67 184zM596 848h942q12 86 12 129q0 75 -20.5 138t-61 113t-109.5 78.5t-159 28.5q-207 0 -373 -138.5t-231 -348.5z" />
    <glyph glyph-name="uni04BF" unicode="&#x4bf;" horiz-adv-x="1355" 
d="M102 711q0 106 68 229h127q-74 -112 -74 -217q0 -54 26 -77t79 -23h2q63 188 216 310t353 122q183 0 278 -102t95 -271q0 -69 -31 -172h-788q-11 -43 -11 -90q0 -140 86 -229t244 -89q180 0 336 123l45 -114q-69 -54 -174.5 -95t-214.5 -41h-4l-43 -221h-129l45 236
q-154 33 -245 145t-91 279q0 46 6 96q-98 2 -149.5 53t-51.5 148zM477 621h645q6 30 6 73q0 121 -64 183.5t-171 62.5q-131 0 -246 -84t-170 -235z" />
    <glyph glyph-name="uni04C0" unicode="&#x4c0;" horiz-adv-x="552" 
d="M88 0l281 1440h143l-283 -1440h-141z" />
    <glyph glyph-name="uni04C1" unicode="&#x4c1;" horiz-adv-x="1773" 
d="M-72 0l602 762v4l-301 674h154l272 -625h203l123 625h141l-123 -625h193l500 625h176l-559 -686v-4l305 -750h-154l-276 688h-209l-135 -688h-142l136 688h-193l-543 -688h-170zM1075 1507q-103 0 -173.5 55t-70.5 144q0 27 13 78h119q-9 -35 -9 -60q0 -53 35.5 -82.5
t91.5 -29.5q68 0 121 42t64 130h118q-11 -77 -42 -133.5t-75 -86.5t-91.5 -43.5t-100.5 -13.5z" />
    <glyph glyph-name="uni04C2" unicode="&#x4c2;" horiz-adv-x="1468" 
d="M-72 0l447 539v4l-219 487h143l199 -442h166l86 442h135l-86 -442h162l356 442h164l-416 -512v-4l246 -514h-152l-219 465h-166l-90 -465h-135l90 465h-166l-381 -465h-164zM854 1165q-103 0 -173.5 55t-70.5 144q0 27 13 78h118q-8 -31 -8 -60q0 -53 35.5 -82.5
t91.5 -29.5q68 0 120.5 42t63.5 130h119q-11 -77 -42 -133.5t-75 -86.5t-91.5 -43.5t-100.5 -13.5z" />
    <glyph glyph-name="uni04C3" unicode="&#x4c3;" horiz-adv-x="1261" 
d="M90 0l279 1440h143l-123 -625q173 0 234 -4l510 629h172l-537 -660q154 -46 238 -164t84 -288q0 -98 -26.5 -197t-79 -187.5t-124.5 -156t-171 -106.5t-210 -37l25 127q78 0 148.5 32.5t122.5 88t91 127t58.5 151t19.5 158.5q0 180 -108.5 271t-305.5 91h-163l-136 -690
h-141z" />
    <glyph glyph-name="uni04C4" unicode="&#x4c4;" horiz-adv-x="1032" 
d="M49 0l201 1030h139l-86 -440q108 0 158 -4l393 444h176l-434 -477q254 -77 254 -360q0 -189 -109 -355.5t-292 -259.5l-62 109q144 67 235 207.5t91 293.5q0 279 -334 279h-100l-91 -467h-139z" />
    <glyph glyph-name="uni04C5" unicode="&#x4c5;" horiz-adv-x="1421" 
d="M1077 0h-186l258 1313h-512l-41 -209q-34 -173 -70 -311t-81.5 -266.5t-99.5 -222t-119.5 -165.5t-147.5 -110.5t-178 -44.5l26 133q94 13 173.5 83.5t144 198.5t116.5 301t97 404l67 336h791l-256 -1313h203l-19 -92l-199 -322h-120z" />
    <glyph glyph-name="uni04C6" unicode="&#x4c6;" horiz-adv-x="1142" 
d="M-78 -8l23 125q129 23 218 170.5t144 431.5l60 311h630l-176 -909h160l-16 -88l-168 -279h-113l127 246h-154l2 4l177 905h-357l-37 -190q-71 -366 -196 -541.5t-324 -185.5z" />
    <glyph glyph-name="uni04C7" unicode="&#x4c7;" horiz-adv-x="1531" 
d="M90 0l279 1440h143l-129 -656h836l127 656h141l-266 -1381q-16 -80 -41.5 -144.5t-55.5 -107.5t-67.5 -74.5t-72.5 -49t-76.5 -27t-74 -11.5t-69.5 -1l24 125q31 0 60 5.5t65.5 24.5t66 50t56 87.5t41.5 131.5l115 589h-834l-127 -657h-141z" />
    <glyph glyph-name="uni04C8" unicode="&#x4c8;" horiz-adv-x="1214" 
d="M49 0l201 1030h139l-86 -440h602l84 440h141l-184 -954q-16 -86 -45.5 -157t-64.5 -120.5t-83.5 -93t-92.5 -71t-101 -56.5l-61 109q58 28 101.5 59t87 76.5t73 111t45.5 148.5l76 385h-602l-91 -467h-139z" />
    <glyph glyph-name="uni04C9" unicode="&#x4c9;" horiz-adv-x="1587" 
d="M88 0l281 1440h143l-129 -656h836l127 656h141l-256 -1313h213l-17 -92l-200 -322h-119l152 287h-197l129 657h-834l-129 -657h-141z" />
    <glyph glyph-name="uni04CA" unicode="&#x4ca;" horiz-adv-x="1269" 
d="M49 0l201 1030h139l-86 -440h602l84 440h141l-178 -909h178l-16 -88l-168 -279h-112l127 246h-170l90 467h-602l-91 -467h-139z" />
    <glyph glyph-name="uni04CB" unicode="&#x4cb;" horiz-adv-x="1257" 
d="M524 567q-176 0 -266 81t-90 224q0 50 12 109l90 459h144l-86 -436q-11 -51 -11 -99q0 -207 236 -207q111 0 219 38t180 83l121 621h144l-281 -1440h-201l-55 -287h-131l80 414h188l92 475l17 68h-4q-212 -103 -398 -103z" />
    <glyph glyph-name="uni04CC" unicode="&#x4cc;" horiz-adv-x="1024" 
d="M403 -246l70 352h148l57 291l16 66h-4q-60 -32 -145.5 -55t-145.5 -23q-149 0 -223 65t-74 175q0 29 11 86l61 319h137l-57 -297q-1 -11 -4.5 -37t-3.5 -39q0 -149 178 -149q84 0 163.5 27t129.5 61l84 434h139l-201 -1030h-155l-49 -246h-132z" />
    <glyph glyph-name="uni04CD" unicode="&#x4cd;" horiz-adv-x="1777" 
d="M33 0l397 1440h141l213 -846l35 -176h4q58 100 105 176l542 846h152l-152 -1313h205l-16 -92l-201 -322h-119l154 287h-178l119 1008l34 200h-4q-67 -126 -114 -200l-484 -740h-133l-194 740q-8 32 -17.5 83t-15.5 86l-6 35h-4q-21 -126 -41 -204l-279 -1008h-143z" />
    <glyph glyph-name="uni04CE" unicode="&#x4ce;" horiz-adv-x="1529" 
d="M10 0l285 1030h141l189 -635l34 -145h5q45 79 90 145l434 635h151l-104 -909h180l-16 -88l-168 -279h-113l127 246h-158l78 666l33 178h-4q-33 -66 -92 -150l-397 -575h-127l-175 571q-12 36 -21 74.5t-12 59.5l-3 20h-5q-22 -123 -36 -178l-181 -666h-135z" />
    <glyph glyph-name="uni04CF" unicode="&#x4cf;" horiz-adv-x="475" 
d="M51 0l281 1440h143l-282 -1440h-142z" />
    <glyph glyph-name="uni04D0" unicode="&#x4d0;" horiz-adv-x="1298" 
d="M-63 0l802 1440h156l248 -1440h-144l-75 459h-580l-254 -459h-153zM408 582h495l-86 522l-22 188h-4q-54 -120 -91 -188zM842 1507q-103 0 -173.5 55t-70.5 144q0 31 12 78h119q-8 -31 -8 -60q0 -53 35.5 -82.5t91.5 -29.5q68 0 120.5 42t63.5 130h119
q-11 -77 -42 -133.5t-75 -86.5t-91.5 -43.5t-100.5 -13.5z" />
    <glyph glyph-name="uni04D1" unicode="&#x4d1;" horiz-adv-x="1058" 
d="M8 236q0 80 31 144.5t86 107t121.5 72.5t148 45.5t154.5 22.5t151 7h68q10 55 10 110q0 88 -48.5 136.5t-160.5 48.5q-78 0 -161 -27t-150 -72l-43 117q64 44 165 75.5t202 31.5q159 0 249.5 -72t90.5 -219q0 -48 -13 -115l-125 -649h-135l25 119l22 88h-4
q-19 -36 -52 -73.5t-80 -74.5t-111.5 -60.5t-133.5 -23.5q-129 0 -218 71t-89 190zM150 254q0 -69 50 -115.5t148 -46.5q90 0 175 61t140 149t76 181l9 41h-60q-45 0 -84.5 -1.5t-96.5 -8t-103.5 -17.5t-95.5 -31.5t-82 -48t-54.5 -69.5t-21.5 -94zM662 1165
q-103 0 -173.5 55t-70.5 144q0 31 12 78h119q-8 -31 -8 -60q0 -53 35.5 -82.5t91.5 -29.5q68 0 120.5 42t63.5 130h119q-11 -77 -42 -133.5t-75 -86.5t-91.5 -43.5t-100.5 -13.5z" />
    <glyph glyph-name="uni04D2" unicode="&#x4d2;" horiz-adv-x="1298" 
d="M-63 0l802 1440h156l248 -1440h-144l-75 459h-580l-254 -459h-153zM408 582h495l-86 522l-22 188h-4q-54 -120 -91 -188zM938 1608l35 176h127l-35 -176h-127zM629 1608l33 176h126l-32 -176h-127z" />
    <glyph glyph-name="uni04D3" unicode="&#x4d3;" horiz-adv-x="1058" 
d="M8 236q0 80 31 144.5t86 107t121.5 72.5t148 45.5t154.5 22.5t151 7h68q10 55 10 110q0 88 -48.5 136.5t-160.5 48.5q-78 0 -161 -27t-150 -72l-43 117q64 44 165 75.5t202 31.5q159 0 249.5 -72t90.5 -219q0 -48 -13 -115l-125 -649h-135l25 119l22 88h-4
q-19 -36 -52 -73.5t-80 -74.5t-111.5 -60.5t-133.5 -23.5q-129 0 -218 71t-89 190zM150 254q0 -69 50 -115.5t148 -46.5q90 0 175 61t140 149t76 181l9 41h-60q-45 0 -84.5 -1.5t-96.5 -8t-103.5 -17.5t-95.5 -31.5t-82 -48t-54.5 -69.5t-21.5 -94zM741 1266l35 176h127
l-35 -176h-127zM432 1266l33 176h127l-33 -176h-127z" />
    <glyph glyph-name="uni04D4" unicode="&#x4d4;" horiz-adv-x="1744" 
d="M-82 0l868 1440h998l-27 -127h-667l-103 -525h547l-25 -126h-546l-105 -535h705l-25 -127h-846l129 664h-348l-397 -664h-158zM547 786h297l104 527h-84z" />
    <glyph glyph-name="uni04D5" unicode="&#x4d5;" horiz-adv-x="1773" 
d="M10 236q0 81 29.5 145t83 105.5t118 70t145.5 43.5t154.5 21t155.5 6h70q14 77 14 118q0 92 -52.5 138.5t-164.5 46.5q-74 0 -157 -27.5t-146 -71.5l-43 117q71 46 169.5 76.5t191.5 30.5q275 0 315 -199h4q81 98 187 148.5t225 50.5q185 0 281 -101t96 -274
q0 -70 -27 -164h-776q-12 -62 -9 -115q3 -144 88 -221.5t224 -77.5q87 0 176 33.5t162 89.5l43 -114q-68 -56 -178 -96t-205 -40q-164 0 -276.5 76t-149.5 205h-4q-10 -21 -27.5 -49.5t-56.5 -71t-85 -76.5t-117 -59t-149 -25q-132 0 -220.5 69t-88.5 192zM911 627h627
q6 35 6 69q0 120 -66 181t-169 61q-132 0 -238.5 -81t-159.5 -230zM154 252q0 -69 50.5 -114.5t145.5 -45.5q93 0 177.5 60.5t137 146.5t72.5 178l8 39h-118q-50 0 -95 -3.5t-102.5 -12t-103.5 -27.5t-86.5 -46.5t-63 -72.5t-22.5 -102z" />
    <glyph glyph-name="uni04D6" unicode="&#x4d6;" horiz-adv-x="1142" 
d="M88 0l281 1440h811l-27 -127h-668l-102 -525h547l-25 -126h-545l-106 -535h704l-22 -127h-848zM811 1507q-103 0 -173.5 55t-70.5 144q0 27 13 78h118q-8 -31 -8 -60q0 -53 35.5 -82.5t91.5 -29.5q68 0 120.5 42t63.5 130h119q-11 -77 -42 -133.5t-75 -86.5t-91.5 -43.5
t-100.5 -13.5z" />
    <glyph glyph-name="uni04D7" unicode="&#x4d7;" horiz-adv-x="1128" 
d="M72 410q0 125 45.5 242.5t123.5 206.5t190.5 142.5t238.5 53.5q185 0 279.5 -101.5t94.5 -271.5q0 -79 -28 -172h-791q-10 -55 -10 -92q0 -136 87 -226t243 -90q178 0 338 123l43 -114q-66 -55 -172 -95.5t-213 -40.5q-211 0 -340 120t-129 315zM252 621h645q6 30 6 73
q0 120 -64.5 183t-168.5 63q-134 0 -249 -84t-169 -235zM719 1165q-103 0 -173.5 55t-70.5 144q0 31 12 78h119q-8 -31 -8 -60q0 -53 35.5 -82.5t91.5 -29.5q68 0 120.5 42t63.5 130h119q-11 -77 -42 -133.5t-75 -86.5t-91.5 -43.5t-100.5 -13.5z" />
    <glyph glyph-name="uni04D8" unicode="&#x4d8;" horiz-adv-x="1472" 
d="M102 477q0 130 41 301h1092q10 56 10 121q0 197 -113 314.5t-319 117.5q-72 0 -147.5 -16.5t-128 -36.5t-103 -47t-69 -40t-31.5 -22l-66 111q6 6 29.5 22.5t77 45.5t116 54t152.5 43.5t180 18.5q269 0 419.5 -156.5t150.5 -428.5q0 -104 -23 -210t-66.5 -207
t-111.5 -189.5t-152 -154.5t-194 -104.5t-232 -38.5q-111 0 -203 31t-161.5 92t-108.5 158t-39 221zM246 475q0 -179 91 -274t271 -95q232 0 391 150t211 401h-946q-18 -87 -18 -182z" />
    <glyph glyph-name="uni04D9" unicode="&#x4d9;" horiz-adv-x="1134" 
d="M53 346q0 82 39 205h787q4 16 4 67q0 135 -87.5 224.5t-242.5 89.5q-92 0 -183.5 -35.5t-152.5 -85.5l-47 113q62 48 171 89.5t222 41.5q208 0 336.5 -121t128.5 -326q0 -121 -45 -235.5t-123 -202.5t-190.5 -141.5t-239.5 -53.5q-184 0 -280.5 102t-96.5 269zM190 336
q0 -121 66 -182.5t174 -61.5q88 0 172.5 38.5t155 119.5t102.5 190h-655q-15 -54 -15 -104z" />
    <glyph glyph-name="uni04DA" unicode="&#x4da;" horiz-adv-x="1470" 
d="M98 485q0 97 39 260h1094q15 68 12 140q-2 89 -30.5 167.5t-81 141.5t-136 100t-188.5 37q-126 0 -253.5 -45t-219.5 -119l-66 115q92 73 240.5 127.5t312.5 54.5q172 0 303 -79t200 -215t69 -308q0 -123 -35 -249t-103.5 -240t-160.5 -203t-216 -142t-260 -53
q-238 0 -379 135t-141 375zM242 481q0 -82 22.5 -149t67.5 -118t120.5 -79.5t174.5 -28.5q201 0 356.5 146.5t220.5 372.5h-946q-16 -78 -16 -144zM1006 1608l34 176h127l-34 -176h-127zM696 1608l33 176h127l-33 -176h-127z" />
    <glyph glyph-name="uni04DB" unicode="&#x4db;" horiz-adv-x="1132" 
d="M764 1266l35 176h127l-35 -176h-127zM455 1266l32 176h127l-32 -176h-127zM53 346q0 82 39 205h787q4 16 4 67q0 135 -87.5 224.5t-242.5 89.5q-92 0 -183.5 -35.5t-152.5 -85.5l-47 113q62 48 171 89.5t222 41.5q208 0 336.5 -121t128.5 -326q0 -121 -45 -235.5
t-123 -202.5t-190.5 -141.5t-239.5 -53.5q-184 0 -280.5 102t-96.5 269zM190 336q0 -121 66 -182.5t174 -61.5q88 0 172.5 38.5t155 119.5t102.5 190h-655q-15 -54 -15 -104z" />
    <glyph glyph-name="uni04DC" unicode="&#x4dc;" horiz-adv-x="1773" 
d="M1174 1608l34 176h127l-35 -176h-126zM864 1608l33 176h127l-33 -176h-127zM-72 0l602 762v4l-301 674h154l272 -625h203l123 625h141l-123 -625h193l500 625h176l-559 -686v-4l305 -750h-154l-276 688h-209l-135 -688h-142l136 688h-193l-543 -688h-170z" />
    <glyph glyph-name="uni04DD" unicode="&#x4dd;" horiz-adv-x="1468" 
d="M954 1266l35 176h127l-35 -176h-127zM645 1266l33 176h127l-33 -176h-127zM-72 0l447 539v4l-219 487h143l199 -442h166l86 442h135l-86 -442h162l356 442h164l-416 -512v-4l246 -514h-152l-219 465h-166l-90 -465h-135l90 465h-166l-381 -465h-164z" />
    <glyph glyph-name="uni04DE" unicode="&#x4de;" horiz-adv-x="1093" 
d="M817 1608l35 176h127l-35 -176h-127zM508 1608l33 176h127l-33 -176h-127zM-14 164l88 96q48 -66 128.5 -110t192.5 -44q168 0 287 98t119 247q0 114 -73 170.5t-193 56.5h-189l25 123h151q87 0 168 38t134 111t53 162q0 97 -63.5 159t-188.5 62q-172 0 -330 -116
l-59 106q190 141 393 141q188 0 292.5 -87.5t104.5 -243.5q0 -139 -79.5 -237.5t-209.5 -143.5v-4q98 -31 154.5 -104t56.5 -189q0 -137 -75.5 -248.5t-198.5 -171.5t-266 -60q-124 0 -238.5 48t-183.5 141z" />
    <glyph glyph-name="uni04DF" unicode="&#x4df;" horiz-adv-x="897" 
d="M659 1266l35 176h127l-35 -176h-127zM350 1266l33 176h127l-33 -176h-127zM-31 121l78 96q40 -46 112 -84.5t158 -38.5q111 0 196 64.5t85 175.5q0 143 -209 143h-133l20 111h119q107 0 184.5 54t77.5 157q0 69 -50.5 103t-139.5 34q-137 0 -260 -92l-53 98
q148 113 340 113q139 0 223 -63t84 -177q0 -97 -54 -169.5t-149 -104.5v-4q65 -22 105 -73.5t40 -133.5q0 -105 -58 -187.5t-151.5 -125t-203.5 -42.5q-113 0 -207.5 42.5t-153.5 103.5z" />
    <glyph glyph-name="uni04E0" unicode="&#x4e0;" horiz-adv-x="1064" 
d="M45 215q42 -43 128.5 -77t178.5 -34q174 0 302 101t128 256q0 112 -81 165.5t-267 53.5h-172l19 100l485 453q29 25 55 46t37 29l12 9l-2 4q-50 -4 -120 -4h-506l24 123h813l-20 -105l-520 -479q-12 -11 -30 -24.5t-30 -21.5l-12 -7v-4q459 10 459 -332q0 -137 -77 -249
t-208 -175t-287 -63q-115 0 -218 40.5t-156 83.5z" />
    <glyph glyph-name="uni04E1" unicode="&#x4e1;" horiz-adv-x="968" 
d="M-88 -195q42 -43 128 -76.5t179 -33.5q113 0 211 44t158.5 126.5t60.5 185.5q0 112 -81 165.5t-267 53.5h-172l18 101l486 452q29 25 55 46t38 29l11 9l-2 4q-51 -4 -121 -4h-505l24 123h813l-20 -104l-520 -480q-12 -11 -30 -24.5t-30 -21.5l-12 -7v-4q459 10 459 -332
q0 -137 -77 -249t-208 -175t-287 -63q-115 0 -218.5 41t-156.5 84z" />
    <glyph glyph-name="uni04E2" unicode="&#x4e2;" horiz-adv-x="1538" 
d="M721 1610l20 112h504l-18 -112h-506zM88 0l281 1440h143l-201 -1030q-7 -34 -19.5 -81.5t-21.5 -78.5l-8 -31h4q101 127 164 199l928 1022h137l-283 -1440h-141l201 1030q6 34 18 81.5t20 78.5l9 31h-4q-95 -123 -158 -195l-932 -1026h-137z" />
    <glyph glyph-name="uni04E3" unicode="&#x4e3;" horiz-adv-x="1210" 
d="M487 1266l21 112h504l-19 -112h-506zM49 0l201 1030h133l-131 -672l-33 -149h4q76 95 133 156l637 665h133l-200 -1030h-133l129 674l34 145h-4q-76 -92 -133 -151l-637 -668h-133z" />
    <glyph glyph-name="uni04E4" unicode="&#x4e4;" horiz-adv-x="1538" 
d="M1053 1608l34 176h127l-34 -176h-127zM743 1608l33 176h127l-33 -176h-127zM88 0l281 1440h143l-201 -1030q-7 -34 -19.5 -81.5t-21.5 -78.5l-8 -31h4q101 127 164 199l928 1022h137l-283 -1440h-141l201 1030q6 34 18 81.5t20 78.5l9 31h-4q-95 -123 -158 -195
l-932 -1026h-137z" />
    <glyph glyph-name="uni04E5" unicode="&#x4e5;" horiz-adv-x="1210" 
d="M834 1266l34 176h127l-34 -176h-127zM524 1266l33 176h127l-33 -176h-127zM49 0l201 1030h133l-131 -672l-33 -149h4q76 95 133 156l637 665h133l-200 -1030h-133l129 674l34 145h-4q-76 -92 -133 -151l-637 -668h-133z" />
    <glyph glyph-name="uni04E6" unicode="&#x4e6;" horiz-adv-x="1689" 
d="M1126 1608l35 176h127l-35 -176h-127zM817 1608l33 176h127l-33 -176h-127zM123 598q0 171 74 332.5t193.5 277.5t277 186t319.5 70q279 0 453 -170t174 -436q0 -174 -74.5 -338.5t-194.5 -283t-277.5 -190t-317.5 -71.5q-279 0 -453 175t-174 448zM270 602
q0 -217 133.5 -355t346.5 -138q132 0 262 59.5t230 158.5t162 237.5t62 287.5q0 211 -133.5 345t-345.5 134q-134 0 -264.5 -58t-230 -155t-161 -233.5t-61.5 -282.5z" />
    <glyph glyph-name="uni04E7" unicode="&#x4e7;" horiz-adv-x="1277" 
d="M856 1266l35 176h127l-35 -176h-127zM547 1266l33 176h127l-33 -176h-127zM70 426q0 128 53.5 246t141.5 201t203 132.5t234 49.5q210 0 341 -124.5t131 -320.5q0 -130 -54.5 -249t-143 -202.5t-203 -133.5t-232.5 -50q-209 0 -340 126t-131 325zM213 430
q0 -145 92 -236.5t238 -91.5q121 0 232.5 65.5t183 182.5t71.5 254q0 143 -92 234.5t-238 91.5q-122 0 -234 -66t-182.5 -182.5t-70.5 -251.5z" />
    <glyph glyph-name="uni04E8" unicode="&#x4e8;" horiz-adv-x="1689" 
d="M123 598q0 171 74 332.5t193.5 277.5t277 186t319.5 70q279 0 453 -170t174 -436q0 -174 -74.5 -338.5t-194.5 -283t-277.5 -190t-317.5 -71.5q-279 0 -453 175t-174 448zM268 602q0 -219 134.5 -357.5t347.5 -138.5q227 0 426.5 161t265.5 401h-1170q-4 -46 -4 -66z
M987 1333q-230 0 -429 -156t-265 -389h1171q4 40 4 64q0 213 -134 347t-347 134z" />
    <glyph glyph-name="uni04E9" unicode="&#x4e9;" horiz-adv-x="1277" 
d="M70 428q0 128 54 245t142 200t204 132.5t237 49.5q205 0 336 -125t131 -324q0 -128 -54 -246.5t-142.5 -202t-204 -133t-234.5 -49.5q-206 0 -337.5 126.5t-131.5 326.5zM205 432q0 -151 93.5 -244.5t242.5 -93.5q156 0 294 106.5t185 268.5h-815v-37zM702 938
q-158 0 -294 -104t-183 -263h811q2 10 2 31q0 149 -93.5 242.5t-242.5 93.5z" />
    <glyph glyph-name="uni04EA" unicode="&#x4ea;" horiz-adv-x="1689" 
d="M123 598q0 171 74 332.5t193.5 277.5t277 186t319.5 70q279 0 453 -170t174 -436q0 -174 -74.5 -338.5t-194.5 -283t-277.5 -190t-317.5 -71.5q-279 0 -453 175t-174 448zM268 602q0 -219 134.5 -357.5t347.5 -138.5q227 0 426.5 161t265.5 401h-1170q-4 -46 -4 -66z
M987 1333q-230 0 -429 -156t-265 -389h1171q4 40 4 64q0 213 -134 347t-347 134zM819 1608l33 176h127l-33 -176h-127zM1128 1608l35 176h127l-35 -176h-127z" />
    <glyph glyph-name="uni04EB" unicode="&#x4eb;" horiz-adv-x="1277" 
d="M70 428q0 128 54 245t142 200t204 132.5t237 49.5q205 0 336 -125t131 -324q0 -128 -54 -246.5t-142.5 -202t-204 -133t-234.5 -49.5q-206 0 -337.5 126.5t-131.5 326.5zM205 432q0 -151 93.5 -244.5t242.5 -93.5q156 0 294 106.5t185 268.5h-815v-37zM702 938
q-158 0 -294 -104t-183 -263h811q2 10 2 31q0 149 -93.5 242.5t-242.5 93.5zM549 1266l33 176h127l-33 -176h-127zM858 1266l35 176h127l-35 -176h-127z" />
    <glyph glyph-name="uni04EC" unicode="&#x4ec;" horiz-adv-x="1466" 
d="M399 659l25 123h813q4 50 4 74q0 210 -125.5 343.5t-345.5 133.5q-125 0 -246.5 -42t-222.5 -120l-70 105q104 87 246.5 137.5t302.5 50.5q184 0 323.5 -78t213.5 -214.5t74 -311.5q0 -172 -72 -335.5t-190.5 -283.5t-280 -193t-332.5 -73q-148 0 -290 56t-228 164l88 96
q67 -83 185.5 -134t250.5 -51q234 0 428.5 158t261.5 395h-813zM639 1608l33 176h127l-33 -176h-127zM948 1608l35 176h127l-35 -176h-127z" />
    <glyph glyph-name="uni04ED" unicode="&#x4ed;" horiz-adv-x="1105" 
d="M309 459l21 110h532q0 7 1 21.5t1 21.5q0 153 -95.5 237.5t-238.5 84.5q-179 0 -323 -125l-66 98q74 68 183 108t219 40q205 0 331.5 -124.5t126.5 -324.5q0 -120 -49 -234.5t-133.5 -202t-205.5 -141t-255 -53.5q-107 0 -209.5 41t-162.5 117l67 103q48 -64 132 -102
t180 -38q166 0 296.5 102.5t178.5 260.5h-531zM422 1266l33 176h127l-33 -176h-127zM731 1266l35 176h127l-35 -176h-127z" />
    <glyph glyph-name="uni04EE" unicode="&#x4ee;" horiz-adv-x="1204" 
d="M539 1610l20 112h504l-19 -112h-505zM59 66l78 106q75 -70 160 -70q65 0 111.5 47t107.5 150l-350 1141h147l242 -803l47 -191h4q54 103 103 189l454 805h160l-705 -1213q-70 -120 -149 -186t-180 -66q-112 0 -230 91z" />
    <glyph glyph-name="uni04EF" unicode="&#x4ef;" horiz-adv-x="1079" 
d="M-78 -264q44 -41 115 -41q125 0 229 166l92 149l-231 1020h145l160 -770l17 -108h2q28 57 57 106l446 772h158l-754 -1249q-60 -101 -142.5 -156t-174.5 -55q-105 0 -191 61zM420 1266l20 112h504l-18 -112h-506z" />
    <glyph glyph-name="uni04F0" unicode="&#x4f0;" horiz-adv-x="1204" 
d="M879 1608l34 176h127l-34 -176h-127zM569 1608l33 176h127l-33 -176h-127zM59 66l78 106q75 -70 160 -70q65 0 111.5 47t107.5 150l-350 1141h147l242 -803l47 -191h4q54 103 103 189l454 805h160l-705 -1213q-70 -120 -149 -186t-180 -66q-112 0 -230 91z" />
    <glyph glyph-name="uni04F1" unicode="&#x4f1;" horiz-adv-x="1079" 
d="M-78 -264q44 -41 115 -41q125 0 229 166l92 149l-231 1020h145l160 -770l17 -108h2q28 57 57 106l446 772h158l-754 -1249q-60 -101 -142.5 -156t-174.5 -55q-105 0 -191 61zM756 1266l35 176h127l-35 -176h-127zM446 1266l33 176h127l-33 -176h-127z" />
    <glyph glyph-name="uni04F2" unicode="&#x4f2;" horiz-adv-x="1204" 
d="M59 66l78 106q75 -70 160 -70q65 0 111.5 47t107.5 150l-350 1141h147l242 -803l47 -191h4q54 103 103 189l454 805h160l-705 -1213q-70 -120 -149 -186t-180 -66q-112 0 -230 91zM838 1540l190 244h168l-225 -244h-133zM563 1540l182 244h148l-186 -244h-144z" />
    <glyph glyph-name="uni04F3" unicode="&#x4f3;" horiz-adv-x="1079" 
d="M-78 -264q44 -41 115 -41q125 0 229 166l92 149l-231 1020h145l160 -770l17 -108h2q28 57 57 106l446 772h158l-754 -1249q-60 -101 -142.5 -156t-174.5 -55q-105 0 -191 61zM700 1198l191 244h168l-225 -244h-134zM426 1198l182 244h148l-187 -244h-143z" />
    <glyph glyph-name="uni04F4" unicode="&#x4f4;" horiz-adv-x="1257" 
d="M881 1608l34 176h127l-34 -176h-127zM571 1608l33 176h127l-33 -176h-127zM524 567q-176 0 -266 81t-90 224q0 50 12 109l90 459h144l-86 -436q-11 -51 -11 -99q0 -207 236 -207q111 0 219 38t180 83l121 621h144l-281 -1440h-143l116 602l17 68h-4q-212 -103 -398 -103z
" />
    <glyph glyph-name="uni04F5" unicode="&#x4f5;" horiz-adv-x="1024" 
d="M707 1266l34 176h127l-34 -176h-127zM397 1266l33 176h127l-33 -176h-127zM397 377q-149 0 -222 64.5t-73 174.5q0 40 9 86l63 328h139l-59 -305q-10 -68 -10 -76q0 -147 180 -147q84 0 164 26.5t127 59.5l86 442h141l-201 -1030h-139l76 389l16 66h-4q-60 -32 -146 -55
t-147 -23z" />
    <glyph glyph-name="uni04F6" unicode="&#x4f6;" horiz-adv-x="1003" 
d="M90 0l279 1440h757l-24 -127h-617l-229 -1186h188l-82 -414h-131l56 287h-197z" />
    <glyph glyph-name="uni04F7" unicode="&#x4f7;" horiz-adv-x="835" 
d="M49 0l201 1030h612l-24 -121h-473l-154 -786h164l-72 -369h-131l49 246h-172z" />
    <glyph glyph-name="uni04F8" unicode="&#x4f8;" horiz-adv-x="1665" 
d="M1118 1608l35 176h127l-35 -176h-127zM809 1608l33 176h127l-33 -176h-127zM1198 0l283 1440h141l-283 -1440h-141zM88 0l281 1440h143l-115 -582h314q166 0 265 -90t99 -256q0 -109 -40.5 -205.5t-109 -163t-159.5 -105t-191 -38.5h-487zM254 127h317q150 0 253.5 103.5
t103.5 273.5q0 106 -66.5 166.5t-177.5 60.5h-313z" />
    <glyph glyph-name="uni04F9" unicode="&#x4f9;" horiz-adv-x="1368" 
d="M901 1266l35 176h127l-35 -176h-127zM592 1266l33 176h127l-33 -176h-127zM944 0l201 1030h139l-201 -1030h-139zM49 0l201 1030h139l-78 -393h213q66 0 120 -13.5t99.5 -42.5t71 -82t25.5 -126q0 -164 -114.5 -268.5t-305.5 -104.5h-371zM209 111h205q123 0 201.5 68.5
t78.5 182.5q0 80 -46.5 122t-149.5 42h-207z" />
    <glyph glyph-name="uni0524" unicode="&#x524;" horiz-adv-x="1564" 
d="M90 0l279 1440h1099l-256 -1313h189l-80 -414h-133l57 287h-198l256 1313h-818l-254 -1313h-141z" />
    <glyph glyph-name="uni0525" unicode="&#x525;" horiz-adv-x="1243" 
d="M49 0l201 1030h860l-176 -907h162l-72 -369h-131l49 246h-170l174 907h-581l-177 -907h-139z" />
    <glyph glyph-name="uni1E9E" unicode="&#x1e9e;" horiz-adv-x="1366" 
d="M78 0l207 1069q33 163 154.5 267t285.5 104h641l-18 -99l-410 -456l-68 -72v-4q74 -3 136 -22t114 -57t81.5 -103.5t29.5 -153.5q0 -142 -91 -267t-229 -175q-88 -31 -256 -31h-249l24 127h236q137 0 192 20q97 35 162 126.5t65 195.5q0 108 -67.5 164.5t-222.5 56.5
h-123l20 101l352 401q36 41 64.5 71t39.5 40l11 10v4q-12 -4 -86 -4h-344q-111 0 -196 -73t-107 -181l-207 -1059h-141z" />
    <glyph glyph-name="thinspace" unicode="&#x2009;" horiz-adv-x="24" 
 />
    <glyph glyph-name="endash" unicode="&#x2013;" horiz-adv-x="1329" 
d="M137 522l21 119h1024l-21 -119h-1024z" />
    <glyph glyph-name="emdash" unicode="&#x2014;" horiz-adv-x="1736" 
d="M135 522l23 119h1433l-22 -119h-1434z" />
    <glyph glyph-name="quoteleft" unicode="&#x2018;" horiz-adv-x="495" 
d="M236 1108l182 350h117l-146 -350h-153z" />
    <glyph glyph-name="quoteright" unicode="&#x2019;" horiz-adv-x="487" 
d="M242 1108l145 350h154l-183 -350h-116z" />
    <glyph glyph-name="quotesinglbase" unicode="&#x201a;" horiz-adv-x="524" 
d="M121 168h151l-182 -352h-117z" />
    <glyph glyph-name="quotedblleft" unicode="&#x201c;" horiz-adv-x="739" 
d="M481 1108l183 350h116l-147 -350h-152zM236 1108l182 350h117l-146 -350h-153z" />
    <glyph glyph-name="quotedblright" unicode="&#x201d;" horiz-adv-x="731" 
d="M485 1108l148 350h153l-182 -350h-119zM242 1108l145 350h154l-183 -350h-116z" />
    <glyph glyph-name="quotedblbase" unicode="&#x201e;" horiz-adv-x="768" 
d="M217 -184l148 352h153l-182 -352h-119zM-27 -184l148 352h151l-182 -352h-117z" />
    <glyph glyph-name="dagger" unicode="&#x2020;" horiz-adv-x="829" 
d="M205 -102l196 1013h-239l24 119h240l78 410h137l-80 -410h250l-25 -119h-247l-197 -1013h-137z" />
    <glyph glyph-name="daggerdbl" unicode="&#x2021;" horiz-adv-x="868" 
d="M225 -102l90 469h-239l22 118h240l84 426h-240l25 119h239l78 410h135l-77 -410h247l-22 -119h-248l-84 -426h248l-25 -118h-247l-89 -469h-137z" />
    <glyph glyph-name="bullet" unicode="&#x2022;" horiz-adv-x="942" 
d="M467 303q-121 0 -206 85.5t-85 207.5t85 207.5t206 85.5t207 -85.5t86 -207.5t-86 -207.5t-207 -85.5z" />
    <glyph glyph-name="ellipsis" unicode="&#x2026;" horiz-adv-x="1433" 
d="M999 0l35 170h164l-33 -170h-166zM518 0l35 170h164l-35 -170h-164zM37 0l35 170h164l-35 -170h-164z" />
    <glyph glyph-name="perthousand" unicode="&#x2030;" horiz-adv-x="2162" 
d="M479 895q-115 0 -184.5 69t-69.5 183q0 121 103 219t231 98q114 0 183 -70t69 -180q0 -124 -102 -221.5t-230 -97.5zM23 0l1361 1440h158l-1362 -1440h-157zM487 1010q80 0 141.5 61t61.5 143q0 59 -38.5 97.5t-100.5 38.5q-78 0 -140.5 -62t-62.5 -143q0 -58 38.5 -96.5
t100.5 -38.5zM1438 227q0 121 103 219.5t231 98.5q113 0 182 -70t69 -180q0 -125 -101.5 -222.5t-229.5 -97.5q-115 0 -184.5 69t-69.5 183zM745 227q0 121 103 219.5t231 98.5q114 0 184 -70t70 -180q0 -125 -102.5 -222.5t-229.5 -97.5q-117 0 -186.5 69t-69.5 183z
M1561 225q0 -59 38.5 -97t100.5 -38q79 0 140 60.5t61 142.5q0 59 -38.5 98t-99.5 39q-77 0 -139.5 -62t-62.5 -143zM868 225q0 -59 39 -97t103 -38q79 0 139.5 60.5t60.5 142.5q0 59 -38.5 98t-100.5 39q-78 0 -140.5 -62t-62.5 -143z" />
    <glyph glyph-name="guilsinglleft" unicode="&#x2039;" horiz-adv-x="696" 
d="M358 158l-264 424l393 417h162l-409 -428l260 -413h-142z" />
    <glyph glyph-name="guilsinglright" unicode="&#x203a;" horiz-adv-x="692" 
d="M35 158l407 428l-260 413h142l264 -424l-393 -417h-160z" />
    <glyph glyph-name="fraction" unicode="&#x2044;" horiz-adv-x="325" 
d="M-231 0h-129l968 1440h127z" />
    <glyph glyph-name="zerosuperior" unicode="&#x2070;" 
d="M457 846q-262 0 -262 291q0 73 12 153.5t41.5 169.5t74 159t116.5 115.5t161 45.5q260 0 260 -297q0 -72 -12 -152t-42 -168t-74 -157.5t-115.5 -114.5t-159.5 -45zM457 952q75 0 133.5 54t90 138t47 170t15.5 165q0 194 -145 194q-62 0 -112.5 -37t-82 -94.5t-53 -130.5
t-30.5 -140.5t-9 -129.5q0 -189 146 -189z" />
    <glyph glyph-name="foursuperior" unicode="&#x2074;" 
d="M530 866l45 234h-436l15 78l544 581h119l-108 -557h133l-19 -102h-133l-47 -234h-113zM305 1202h291l53 279l33 127h-4q-43 -56 -86 -101l-287 -301v-4z" />
    <glyph glyph-name="fivesuperior" unicode="&#x2075;" 
d="M438 846q-83 0 -158 36.5t-118 104.5l86 68q23 -44 74 -73.5t116 -29.5q91 0 166.5 69t75.5 163q0 69 -50 114t-126 45q-91 0 -168 -49l-66 27l136 438h448l-20 -104h-353l-49 -160q-5 -21 -11.5 -40t-10.5 -27l-4 -9h4q59 25 112 25q121 0 198 -72.5t77 -185.5
q0 -87 -50 -166t-133.5 -126.5t-175.5 -47.5z" />
    <glyph glyph-name="sixsuperior" unicode="&#x2076;" 
d="M475 846q-129 0 -200.5 86t-71.5 231q0 68 20.5 149t62.5 163.5t98.5 150.5t136.5 111t169 43q114 0 187 -47l-58 -91q-67 31 -129 31q-110 0 -199 -91t-133 -224h4q39 37 96 59.5t115 22.5q108 0 175 -65t67 -173q0 -107 -51 -190t-127.5 -124.5t-161.5 -41.5zM477 952
q97 0 159 73t62 173q0 67 -41 106t-112 39q-83 0 -155.5 -56t-72.5 -130q0 -81 43 -143t117 -62z" />
    <glyph glyph-name="sevensuperior" unicode="&#x2077;" 
d="M182 866l488 672l92 117v4q-42 -4 -105 -4h-350l21 104h594l-17 -78l-590 -815h-133z" />
    <glyph glyph-name="eightsuperior" unicode="&#x2078;" 
d="M457 846q-120 0 -202.5 61.5t-82.5 173.5q0 52 23 102t59.5 87.5t64.5 59.5t54 38q-76 62 -76 148q0 63 28.5 114.5t74 83.5t99.5 49t109 17q110 0 183 -54.5t73 -148.5q0 -38 -15 -78t-34.5 -70t-46.5 -60.5t-41 -44t-29 -26.5q101 -72 101 -168q0 -116 -103.5 -200
t-238.5 -84zM614 1343q136 110 136 222q0 54 -43 82t-105 28q-72 0 -132 -40.5t-60 -112.5q0 -22 9.5 -41.5t20.5 -33t36.5 -30.5t40 -24.5t50 -25.5t47.5 -24zM459 948q81 0 152 52t71 126q0 27 -12.5 50t-39.5 43t-50 33t-63.5 33t-61.5 32q-166 -98 -166 -227
q0 -65 50 -103.5t120 -38.5z" />
    <glyph glyph-name="ninesuperior" unicode="&#x2079;" 
d="M176 891l57 90q21 -13 60 -21t72 -8q109 0 196.5 90.5t132.5 223.5h-4q-39 -36 -96.5 -59t-114.5 -23q-108 0 -173.5 65.5t-65.5 173.5q0 158 103 257.5t235 99.5q130 0 202 -87.5t72 -232.5q0 -56 -15 -122t-42.5 -134.5t-71 -132.5t-96 -114.5t-121.5 -80.5t-144 -30
q-111 0 -186 45zM508 1280q82 0 154.5 57t72.5 131q0 81 -42.5 143t-117.5 62q-96 0 -158.5 -74t-62.5 -174q0 -66 42 -105.5t112 -39.5z" />
    <glyph glyph-name="zeroinferior" unicode="&#x2080;" 
d="M225 -342q-262 0 -262 291q0 73 12 153.5t42 169.5t74.5 159t116.5 115.5t161 45.5q260 0 260 -297q0 -72 -12 -152t-42 -168t-74.5 -157.5t-116 -114.5t-159.5 -45zM225 -236q61 0 111.5 36.5t82 93t53.5 128.5t31 139.5t9 129.5q0 194 -145 194q-62 0 -112.5 -37
t-82 -94.5t-53 -130.5t-30.5 -140.5t-9 -129.5q0 -189 145 -189z" />
    <glyph glyph-name="oneinferior" unicode="&#x2081;" 
d="M-16 -322l20 103h193l112 584l15 49h-5q-10 -16 -51 -49l-94 -78l-59 82l243 202h107l-154 -790h189l-21 -103h-495z" />
    <glyph glyph-name="twoinferior" unicode="&#x2082;" 
d="M-72 -322q2 83 34 151.5t82 115.5t110.5 87.5t120.5 75.5t109.5 70t80.5 80.5t31 99.5q0 55 -38.5 91t-101.5 36q-92 0 -204 -100l-64 78q52 54 125.5 91.5t148.5 37.5q117 0 184.5 -62.5t67.5 -162.5q0 -66 -26.5 -121.5t-70 -95t-96.5 -74t-109 -66.5t-104.5 -64
t-86 -74.5t-51.5 -90.5h448l-20 -103h-570z" />
    <glyph glyph-name="threeinferior" unicode="&#x2083;" 
d="M215 -342q-180 0 -297 135l80 72q88 -101 219 -101q85 0 151 61.5t66 151.5q0 65 -51 103.5t-121 38.5h-67l-19 61l248 238l61 51v4q-38 -6 -75 -6h-312l21 104h536l-14 -75l-299 -285q33 -4 67 -18.5t67 -41t54 -71t21 -100.5q0 -127 -98.5 -224.5t-237.5 -97.5z" />
    <glyph glyph-name="fourinferior" unicode="&#x2084;" 
d="M299 -322l45 234h-436l14 78l545 581h119l-109 -557h133l-18 -102h-133l-47 -234h-113zM74 14h291l53 279l33 127h-5q-43 -56 -86 -101l-286 -301v-4z" />
    <glyph glyph-name="fiveinferior" unicode="&#x2085;" 
d="M207 -342q-83 0 -158.5 36.5t-118.5 104.5l86 68q23 -44 74.5 -73.5t116.5 -29.5q91 0 166.5 69t75.5 163q0 69 -50.5 114.5t-126.5 45.5q-89 0 -168 -50l-65 27l135 438h449l-21 -104h-352l-49 -160q-5 -21 -12 -40t-11 -27l-4 -9h4q59 25 113 25q121 0 197.5 -72.5
t76.5 -185.5q0 -134 -108.5 -237t-249.5 -103z" />
    <glyph glyph-name="sixinferior" unicode="&#x2086;" 
d="M246 -342q-129 0 -201 86t-72 231q0 68 20.5 149t63 163.5t99 150.5t136.5 111t169 43q113 0 186 -47l-57 -90q-65 30 -129 30q-110 0 -199 -91t-133 -224h4q39 37 96 59.5t115 22.5q108 0 175 -65t67 -173q0 -107 -51 -190t-127.5 -124.5t-161.5 -41.5zM248 -236
q97 0 159 73t62 173q0 67 -41.5 106.5t-112.5 39.5q-83 0 -155 -56.5t-72 -130.5q0 -81 43 -143t117 -62z" />
    <glyph glyph-name="seveninferior" unicode="&#x2087;" 
d="M-47 -322l487 672l92 117v4q-41 -4 -104 -4h-350l20 104h594l-16 -77l-590 -816h-133z" />
    <glyph glyph-name="eightinferior" unicode="&#x2088;" 
d="M225 -340q-120 0 -202 62t-82 174q0 52 23 102t59 87t64 59t54 38q-75 62 -75 148q0 63 28.5 114.5t74 83.5t99.5 49t109 17q110 0 183 -54.5t73 -148.5q0 -46 -20.5 -94t-53.5 -87.5t-52.5 -59t-39.5 -37.5q100 -71 100 -168q0 -116 -103.5 -200.5t-238.5 -84.5z
M383 158q135 109 135 221q0 54 -42.5 82t-104.5 28q-72 0 -132.5 -40.5t-60.5 -112.5q0 -22 9.5 -41.5t21 -33t36.5 -29.5t40.5 -24.5t49.5 -25.5zM227 -238q81 0 152.5 52.5t71.5 126.5q0 27 -12.5 50t-39.5 42.5t-50.5 33t-64 33t-61.5 31.5q-166 -98 -166 -227
q0 -65 50 -103.5t120 -38.5z" />
    <glyph glyph-name="nineinferior" unicode="&#x2089;" 
d="M-53 -297l57 90q21 -13 59.5 -21t71.5 -8q109 0 197 90.5t133 223.5h-4q-39 -36 -96.5 -59t-114.5 -23q-108 0 -174 66t-66 174q0 158 103 257t235 99q130 0 202.5 -87.5t72.5 -232.5q0 -56 -15 -122t-42.5 -134.5t-71 -132.5t-96 -114.5t-121.5 -80.5t-144 -30
q-111 0 -186 45zM279 92q82 0 154.5 57.5t72.5 131.5q0 80 -42.5 142t-117.5 62q-96 0 -158.5 -73.5t-62.5 -173.5q0 -66 42 -106t112 -40z" />
    <glyph glyph-name="Euro" unicode="&#x20ac;" horiz-adv-x="1163" 
d="M41 545l20 104h113q5 73 29 166h-109l21 105h125q103 241 315 392.5t459 151.5q103 0 215 -28l-60 -127q-72 20 -157 20q-191 0 -360 -113t-257 -296h627l-39 -105h-629q-26 -79 -35 -166h601l-41 -104h-553q5 -91 35.5 -169t85.5 -137t140 -92.5t191 -33.5q112 0 189 26
l6 -135q-95 -29 -201 -29q-260 0 -424.5 157.5t-175.5 412.5h-131z" />
    <glyph glyph-name="numero" unicode="&#x2116;" horiz-adv-x="2111" 
d="M1530 928q0 121 95 217t222 96q104 0 170 -65t66 -164q0 -120 -97 -216t-223 -96q-103 0 -168 64.5t-65 163.5zM1649 938q0 -56 35 -92.5t90 -36.5q72 0 131 58.5t59 138.5q0 56 -35 90t-92 34q-74 0 -131 -57.5t-57 -134.5zM1454 453l21 108h499l-20 -108h-500zM78 0
l280 1440h127l535 -1037q16 -32 36 -80.5t32 -80.5l12 -33h4q8 118 24 194l201 1037h144l-283 -1440h-125l-535 1036q-16 32 -35.5 81t-31.5 81l-12 33h-5q-10 -119 -24 -195l-203 -1036h-141z" />
    <glyph glyph-name="trademark" unicode="&#x2122;" horiz-adv-x="2127" 
d="M1106 543l72 897h106l236 -514q8 -17 15 -38t10 -34l3 -12h4q11 45 29 84l236 514h106l70 -897h-113l-51 608l2 59h-4l-230 -499h-94l-229 499h-4l2 -59l-51 -608h-115zM594 543v790h-320v107h758v-107h-321v-790h-117z" />
    <glyph glyph-name="minus" unicode="&#x2212;" horiz-adv-x="1163" 
d="M57 522v119h1037v-119h-1037z" />
    <glyph glyph-name="infinity" unicode="&#x221e;" horiz-adv-x="968" 
d="M504 360q-146 0 -250 104.5t-104 250.5q0 147 103.5 249.5t250.5 102.5t249.5 -102.5t102.5 -249.5t-103 -251t-249 -104z" />
    <glyph glyph-name="approxequal" unicode="&#x2248;" horiz-adv-x="1163" 
d="M141 657l-67 91q60 60 137 100.5t162 40.5q65 0 124 -22.5t96.5 -49.5t87 -49.5t97.5 -22.5q62 0 124.5 33t107.5 82l67 -90q-57 -59 -135.5 -100t-163.5 -41q-65 0 -124 22.5t-96.5 49t-87 49t-97.5 22.5q-61 0 -123.5 -33.5t-108.5 -81.5zM141 303l-67 88
q60 60 137 100.5t162 40.5q65 0 124 -22.5t96.5 -49t87 -49t97.5 -22.5q62 0 124.5 33t107.5 82l67 -90q-57 -59 -135.5 -100.5t-163.5 -41.5q-65 0 -124 22.5t-96.5 49.5t-87 49.5t-97.5 22.5q-62 0 -124 -33t-108 -80z" />
    <glyph glyph-name="notequal" unicode="&#x2260;" horiz-adv-x="1163" 
d="M211 170l127 174h-242v119h326l174 237h-500v119h584l176 238l86 -60l-133 -178h242v-119h-324l-176 -237h500v-119h-584l-170 -233z" />
    <glyph glyph-name="lessequal" unicode="&#x2264;" horiz-adv-x="1163" 
d="M37 530v103l926 414v-138l-754 -325v-4l754 -326v-137zM39 -213h924v-119h-924v119z" />
    <glyph glyph-name="greaterequal" unicode="&#x2265;" horiz-adv-x="1163" 
d="M76 117v137l751 326v4l-751 325v138l925 -414v-103zM74 -213h923v-119h-923v119z" />
    <glyph glyph-name="commaaccent" unicode="&#xf6c3;" horiz-adv-x="686" 
d="M137 -129h135v-29q0 -67 -21 -123.5t-69 -132.5h-114q39 67 57 119t18 109q0 27 -6 57z" />
    <glyph glyph-name="cyrbreve" unicode="&#xf6d4;" horiz-adv-x="565" 
d="M549 1507q-103 0 -173.5 55t-70.5 144q0 31 12 78h119q-8 -31 -8 -60q0 -53 35.5 -82.5t91.5 -29.5q68 0 120.5 42t63.5 130h119q-11 -77 -42 -133.5t-75 -86.5t-91.5 -43.5t-100.5 -13.5z" />
    <glyph glyph-name="apple" unicode="&#xf8ff;" horiz-adv-x="2314" 
d="M342 -10v311l-258 148v569l258 145v310l543 290l274 -145l271 145l542 -290v-310l254 -145v-569l-254 -148v-311l-542 -289l-271 145l-274 -145zM424 61l487 -258l248 136l242 -136l487 258v285l234 131v510l-234 135v279l-487 258l-242 -131l-248 131l-487 -258v-279
l-234 -135v-510l234 -131v-285zM494 131v248l-203 123v461l203 118v252l440 234l225 -121l219 121l439 -234v-252l204 -118v-461l-204 -123v-248l-439 -233l-219 118l-225 -118zM913 186h88v467h467v82h-467v393h408q34 0 46.5 -13t12.5 -46v-86h86v111q0 61 -26.5 88.5
t-91.5 27.5h-656v-82h133v-942z" />
    <glyph glyph-name="zero.tnum" horiz-adv-x="1163" 
d="M78 440q0 83 10 173.5t33.5 191t58.5 193.5t88 178.5t118 149t153.5 101t189.5 37.5q404 0 404 -467q0 -83 -10 -173t-33.5 -190.5t-58 -193.5t-87.5 -178.5t-118 -148.5t-154 -100.5t-191 -37.5q-403 0 -403 465zM223 440q0 -331 262 -331q78 0 145.5 33t117.5 88
t91 129.5t67.5 155.5t44.5 167.5t26 164.5t8 148q0 160 -61 247t-201 87q-102 0 -187.5 -59t-142 -152.5t-96 -212.5t-57 -237t-17.5 -228z" />
    <glyph glyph-name="one.tnum" horiz-adv-x="1163" 
d="M109 0l22 127h322l204 1042l19 80h-4q-22 -29 -90 -86l-179 -149l-77 102l393 324h131l-256 -1313h315l-24 -127h-776z" />
    <glyph glyph-name="two.tnum" horiz-adv-x="1163" 
d="M20 0q1 58 13 111t35.5 100t49 86.5t66 79.5t74.5 70.5t86 66.5t88.5 60t93.5 59q14 9 43 26l69 42t64.5 40.5t63 43t54 43t50 46.5t38.5 48t31.5 53.5t18 56t7.5 62.5q0 110 -71.5 172.5t-184.5 62.5q-103 0 -198.5 -53t-162.5 -141l-102 82q82 107 206.5 177t270.5 70
q171 0 280 -96.5t109 -259.5q0 -57 -15 -110.5t-39.5 -96.5t-63.5 -86.5t-77.5 -77t-92.5 -71.5t-98 -65.5t-103 -63.5q-5 -3 -8.5 -5t-8 -5t-8.5 -5q-60 -36 -94.5 -58t-84.5 -56.5t-80.5 -63t-63 -64t-51 -74t-27.5 -79.5h749l-26 -127h-900z" />
    <glyph glyph-name="three.tnum" horiz-adv-x="1163" 
d="M16 172l97 98q140 -157 352 -157q73 0 143.5 28.5t125.5 76.5t88.5 118t33.5 147q0 119 -86 182.5t-221 63.5h-111l-18 84l440 422q20 20 43 40t36 30l13 10v4q-42 -6 -118 -6h-531l25 127h841l-18 -94l-526 -500q47 -2 94.5 -13t99.5 -37.5t91.5 -65.5t65 -102.5
t25.5 -142.5q0 -133 -72.5 -250.5t-198 -188.5t-269.5 -71q-131 0 -249 50.5t-196 146.5z" />
    <glyph glyph-name="four.tnum" horiz-adv-x="1163" 
d="M6 399l17 93l878 948h166l-178 -918h205l-25 -123h-205l-78 -399h-141l78 399h-717zM211 522h537l118 604q4 27 12.5 61.5t14.5 55.5l6 21h-4q-47 -60 -92 -111l-592 -627v-4z" />
    <glyph glyph-name="five.tnum" horiz-adv-x="1163" 
d="M37 178l102 92q114 -157 312 -157q169 0 296 117t127 278q0 128 -85.5 204t-223.5 76q-70 0 -139 -20t-103 -40l-34 -19l-88 32l213 699h700l-24 -127h-574l-113 -365l-28 -82h4q10 6 28.5 14.5t76.5 23t118 14.5q186 0 303 -113t117 -293q0 -144 -78.5 -268
t-211.5 -196.5t-286 -72.5q-124 0 -233.5 52.5t-175.5 150.5z" />
    </font>
</defs>
</svg>
